G04 #@! TF.FileFunction,Legend,Top*
%FSLAX46Y46*%
G04 Gerber Fmt 4.6, Leading zero omitted, Abs format (unit mm)*
G04 Created by KiCad (PCBNEW (2015-06-05 BZR 5717)-product) date Tue 11 Aug 2015 19:51:47 PDT*
%MOMM*%
G01*
G04 APERTURE LIST*
%ADD10C,0.152400*%
%ADD11C,0.150000*%
%ADD12C,0.200000*%
%ADD13C,0.304800*%
%ADD14C,0.228600*%
%ADD15C,0.127000*%
%ADD16C,0.381000*%
%ADD17C,0.254000*%
G04 APERTURE END LIST*
D10*
X200419428Y-107619000D02*
X200346857Y-107582714D01*
X200238000Y-107582714D01*
X200129143Y-107619000D01*
X200056571Y-107691571D01*
X200020286Y-107764143D01*
X199984000Y-107909286D01*
X199984000Y-108018143D01*
X200020286Y-108163286D01*
X200056571Y-108235857D01*
X200129143Y-108308429D01*
X200238000Y-108344714D01*
X200310571Y-108344714D01*
X200419428Y-108308429D01*
X200455714Y-108272143D01*
X200455714Y-108018143D01*
X200310571Y-108018143D01*
X200782286Y-108344714D02*
X200782286Y-107582714D01*
X201217714Y-108344714D01*
X201217714Y-107582714D01*
X201580572Y-108344714D02*
X201580572Y-107582714D01*
X201762000Y-107582714D01*
X201870857Y-107619000D01*
X201943429Y-107691571D01*
X201979714Y-107764143D01*
X202016000Y-107909286D01*
X202016000Y-108018143D01*
X201979714Y-108163286D01*
X201943429Y-108235857D01*
X201870857Y-108308429D01*
X201762000Y-108344714D01*
X201580572Y-108344714D01*
X164965858Y-106445571D02*
X165074715Y-106481857D01*
X165111000Y-106518143D01*
X165147286Y-106590714D01*
X165147286Y-106699571D01*
X165111000Y-106772143D01*
X165074715Y-106808429D01*
X165002143Y-106844714D01*
X164711858Y-106844714D01*
X164711858Y-106082714D01*
X164965858Y-106082714D01*
X165038429Y-106119000D01*
X165074715Y-106155286D01*
X165111000Y-106227857D01*
X165111000Y-106300429D01*
X165074715Y-106373000D01*
X165038429Y-106409286D01*
X164965858Y-106445571D01*
X164711858Y-106445571D01*
X165619000Y-106082714D02*
X165764143Y-106082714D01*
X165836715Y-106119000D01*
X165909286Y-106191571D01*
X165945572Y-106336714D01*
X165945572Y-106590714D01*
X165909286Y-106735857D01*
X165836715Y-106808429D01*
X165764143Y-106844714D01*
X165619000Y-106844714D01*
X165546429Y-106808429D01*
X165473858Y-106735857D01*
X165437572Y-106590714D01*
X165437572Y-106336714D01*
X165473858Y-106191571D01*
X165546429Y-106119000D01*
X165619000Y-106082714D01*
X166417286Y-106082714D02*
X166562429Y-106082714D01*
X166635001Y-106119000D01*
X166707572Y-106191571D01*
X166743858Y-106336714D01*
X166743858Y-106590714D01*
X166707572Y-106735857D01*
X166635001Y-106808429D01*
X166562429Y-106844714D01*
X166417286Y-106844714D01*
X166344715Y-106808429D01*
X166272144Y-106735857D01*
X166235858Y-106590714D01*
X166235858Y-106336714D01*
X166272144Y-106191571D01*
X166344715Y-106119000D01*
X166417286Y-106082714D01*
X166961572Y-106082714D02*
X167397001Y-106082714D01*
X167179287Y-106844714D02*
X167179287Y-106082714D01*
X165139286Y-121344714D02*
X165139286Y-120582714D01*
X165429571Y-120582714D01*
X165502143Y-120619000D01*
X165538428Y-120655286D01*
X165574714Y-120727857D01*
X165574714Y-120836714D01*
X165538428Y-120909286D01*
X165502143Y-120945571D01*
X165429571Y-120981857D01*
X165139286Y-120981857D01*
X166336714Y-121344714D02*
X166082714Y-120981857D01*
X165901286Y-121344714D02*
X165901286Y-120582714D01*
X166191571Y-120582714D01*
X166264143Y-120619000D01*
X166300428Y-120655286D01*
X166336714Y-120727857D01*
X166336714Y-120836714D01*
X166300428Y-120909286D01*
X166264143Y-120945571D01*
X166191571Y-120981857D01*
X165901286Y-120981857D01*
X166808428Y-120582714D02*
X166953571Y-120582714D01*
X167026143Y-120619000D01*
X167098714Y-120691571D01*
X167135000Y-120836714D01*
X167135000Y-121090714D01*
X167098714Y-121235857D01*
X167026143Y-121308429D01*
X166953571Y-121344714D01*
X166808428Y-121344714D01*
X166735857Y-121308429D01*
X166663286Y-121235857D01*
X166627000Y-121090714D01*
X166627000Y-120836714D01*
X166663286Y-120691571D01*
X166735857Y-120619000D01*
X166808428Y-120582714D01*
X167860714Y-120619000D02*
X167788143Y-120582714D01*
X167679286Y-120582714D01*
X167570429Y-120619000D01*
X167497857Y-120691571D01*
X167461572Y-120764143D01*
X167425286Y-120909286D01*
X167425286Y-121018143D01*
X167461572Y-121163286D01*
X167497857Y-121235857D01*
X167570429Y-121308429D01*
X167679286Y-121344714D01*
X167751857Y-121344714D01*
X167860714Y-121308429D01*
X167897000Y-121272143D01*
X167897000Y-121018143D01*
X167751857Y-121018143D01*
X204413572Y-93344714D02*
X204413572Y-92582714D01*
X204595000Y-92582714D01*
X204703857Y-92619000D01*
X204776429Y-92691571D01*
X204812714Y-92764143D01*
X204849000Y-92909286D01*
X204849000Y-93018143D01*
X204812714Y-93163286D01*
X204776429Y-93235857D01*
X204703857Y-93308429D01*
X204595000Y-93344714D01*
X204413572Y-93344714D01*
X205175572Y-93344714D02*
X205175572Y-92582714D01*
X205502143Y-93308429D02*
X205611000Y-93344714D01*
X205792429Y-93344714D01*
X205865000Y-93308429D01*
X205901286Y-93272143D01*
X205937571Y-93199571D01*
X205937571Y-93127000D01*
X205901286Y-93054429D01*
X205865000Y-93018143D01*
X205792429Y-92981857D01*
X205647286Y-92945571D01*
X205574714Y-92909286D01*
X205538429Y-92873000D01*
X205502143Y-92800429D01*
X205502143Y-92727857D01*
X205538429Y-92655286D01*
X205574714Y-92619000D01*
X205647286Y-92582714D01*
X205828714Y-92582714D01*
X205937571Y-92619000D01*
X206264143Y-93344714D02*
X206264143Y-92582714D01*
X206554428Y-92582714D01*
X206627000Y-92619000D01*
X206663285Y-92655286D01*
X206699571Y-92727857D01*
X206699571Y-92836714D01*
X206663285Y-92909286D01*
X206627000Y-92945571D01*
X206554428Y-92981857D01*
X206264143Y-92981857D01*
X207389000Y-93344714D02*
X207026143Y-93344714D01*
X207026143Y-92582714D01*
X207606714Y-93127000D02*
X207969571Y-93127000D01*
X207534142Y-93344714D02*
X207788142Y-92582714D01*
X208042142Y-93344714D01*
X208441285Y-92981857D02*
X208441285Y-93344714D01*
X208187285Y-92582714D02*
X208441285Y-92981857D01*
X208695285Y-92582714D01*
X203986144Y-83844714D02*
X203986144Y-83082714D01*
X204276429Y-83082714D01*
X204349001Y-83119000D01*
X204385286Y-83155286D01*
X204421572Y-83227857D01*
X204421572Y-83336714D01*
X204385286Y-83409286D01*
X204349001Y-83445571D01*
X204276429Y-83481857D01*
X203986144Y-83481857D01*
X204711858Y-83808429D02*
X204820715Y-83844714D01*
X205002144Y-83844714D01*
X205074715Y-83808429D01*
X205111001Y-83772143D01*
X205147286Y-83699571D01*
X205147286Y-83627000D01*
X205111001Y-83554429D01*
X205074715Y-83518143D01*
X205002144Y-83481857D01*
X204857001Y-83445571D01*
X204784429Y-83409286D01*
X204748144Y-83373000D01*
X204711858Y-83300429D01*
X204711858Y-83227857D01*
X204748144Y-83155286D01*
X204784429Y-83119000D01*
X204857001Y-83082714D01*
X205038429Y-83082714D01*
X205147286Y-83119000D01*
X205473858Y-83082714D02*
X205473858Y-83699571D01*
X205510143Y-83772143D01*
X205546429Y-83808429D01*
X205619000Y-83844714D01*
X205764143Y-83844714D01*
X205836715Y-83808429D01*
X205873000Y-83772143D01*
X205909286Y-83699571D01*
X205909286Y-83082714D01*
X206852715Y-83844714D02*
X206852715Y-83082714D01*
X207034143Y-83082714D01*
X207143000Y-83119000D01*
X207215572Y-83191571D01*
X207251857Y-83264143D01*
X207288143Y-83409286D01*
X207288143Y-83518143D01*
X207251857Y-83663286D01*
X207215572Y-83735857D01*
X207143000Y-83808429D01*
X207034143Y-83844714D01*
X206852715Y-83844714D01*
X208050143Y-83772143D02*
X208013857Y-83808429D01*
X207905000Y-83844714D01*
X207832429Y-83844714D01*
X207723572Y-83808429D01*
X207651000Y-83735857D01*
X207614715Y-83663286D01*
X207578429Y-83518143D01*
X207578429Y-83409286D01*
X207614715Y-83264143D01*
X207651000Y-83191571D01*
X207723572Y-83119000D01*
X207832429Y-83082714D01*
X207905000Y-83082714D01*
X208013857Y-83119000D01*
X208050143Y-83155286D01*
X138344714Y-80959428D02*
X137582714Y-80959428D01*
X137582714Y-80669143D01*
X137619000Y-80596571D01*
X137655286Y-80560286D01*
X137727857Y-80524000D01*
X137836714Y-80524000D01*
X137909286Y-80560286D01*
X137945571Y-80596571D01*
X137981857Y-80669143D01*
X137981857Y-80959428D01*
X138308429Y-80233714D02*
X138344714Y-80124857D01*
X138344714Y-79943428D01*
X138308429Y-79870857D01*
X138272143Y-79834571D01*
X138199571Y-79798286D01*
X138127000Y-79798286D01*
X138054429Y-79834571D01*
X138018143Y-79870857D01*
X137981857Y-79943428D01*
X137945571Y-80088571D01*
X137909286Y-80161143D01*
X137873000Y-80197428D01*
X137800429Y-80233714D01*
X137727857Y-80233714D01*
X137655286Y-80197428D01*
X137619000Y-80161143D01*
X137582714Y-80088571D01*
X137582714Y-79907143D01*
X137619000Y-79798286D01*
X137582714Y-79471714D02*
X138199571Y-79471714D01*
X138272143Y-79435429D01*
X138308429Y-79399143D01*
X138344714Y-79326572D01*
X138344714Y-79181429D01*
X138308429Y-79108857D01*
X138272143Y-79072572D01*
X138199571Y-79036286D01*
X137582714Y-79036286D01*
X138127000Y-78129143D02*
X138127000Y-77766286D01*
X138344714Y-78201715D02*
X137582714Y-77947715D01*
X138344714Y-77693715D01*
X138272143Y-77004286D02*
X138308429Y-77040572D01*
X138344714Y-77149429D01*
X138344714Y-77222000D01*
X138308429Y-77330857D01*
X138235857Y-77403429D01*
X138163286Y-77439714D01*
X138018143Y-77476000D01*
X137909286Y-77476000D01*
X137764143Y-77439714D01*
X137691571Y-77403429D01*
X137619000Y-77330857D01*
X137582714Y-77222000D01*
X137582714Y-77149429D01*
X137619000Y-77040572D01*
X137655286Y-77004286D01*
X132129143Y-84844714D02*
X131766286Y-84844714D01*
X131766286Y-84082714D01*
X132528285Y-84082714D02*
X132673428Y-84082714D01*
X132746000Y-84119000D01*
X132818571Y-84191571D01*
X132854857Y-84336714D01*
X132854857Y-84590714D01*
X132818571Y-84735857D01*
X132746000Y-84808429D01*
X132673428Y-84844714D01*
X132528285Y-84844714D01*
X132455714Y-84808429D01*
X132383143Y-84735857D01*
X132346857Y-84590714D01*
X132346857Y-84336714D01*
X132383143Y-84191571D01*
X132455714Y-84119000D01*
X132528285Y-84082714D01*
X133145143Y-84627000D02*
X133508000Y-84627000D01*
X133072571Y-84844714D02*
X133326571Y-84082714D01*
X133580571Y-84844714D01*
X133834572Y-84844714D02*
X133834572Y-84082714D01*
X134016000Y-84082714D01*
X134124857Y-84119000D01*
X134197429Y-84191571D01*
X134233714Y-84264143D01*
X134270000Y-84409286D01*
X134270000Y-84518143D01*
X134233714Y-84663286D01*
X134197429Y-84735857D01*
X134124857Y-84808429D01*
X134016000Y-84844714D01*
X133834572Y-84844714D01*
X113310572Y-84844714D02*
X112947715Y-84844714D01*
X112947715Y-84082714D01*
X113564572Y-84844714D02*
X113564572Y-84082714D01*
X113927429Y-84844714D02*
X113927429Y-84082714D01*
X114362857Y-84844714D01*
X114362857Y-84082714D01*
X114725715Y-84445571D02*
X114979715Y-84445571D01*
X115088572Y-84844714D02*
X114725715Y-84844714D01*
X114725715Y-84082714D01*
X115088572Y-84082714D01*
X125232143Y-121844714D02*
X125232143Y-121082714D01*
X125667571Y-121844714D01*
X125667571Y-121082714D01*
X126030429Y-121445571D02*
X126284429Y-121445571D01*
X126393286Y-121844714D02*
X126030429Y-121844714D01*
X126030429Y-121082714D01*
X126393286Y-121082714D01*
X126719858Y-121082714D02*
X126719858Y-121699571D01*
X126756143Y-121772143D01*
X126792429Y-121808429D01*
X126865000Y-121844714D01*
X127010143Y-121844714D01*
X127082715Y-121808429D01*
X127119000Y-121772143D01*
X127155286Y-121699571D01*
X127155286Y-121082714D01*
X127409286Y-121082714D02*
X127844715Y-121082714D01*
X127627001Y-121844714D02*
X127627001Y-121082714D01*
X128534143Y-121844714D02*
X128280143Y-121481857D01*
X128098715Y-121844714D02*
X128098715Y-121082714D01*
X128389000Y-121082714D01*
X128461572Y-121119000D01*
X128497857Y-121155286D01*
X128534143Y-121227857D01*
X128534143Y-121336714D01*
X128497857Y-121409286D01*
X128461572Y-121445571D01*
X128389000Y-121481857D01*
X128098715Y-121481857D01*
X128824429Y-121627000D02*
X129187286Y-121627000D01*
X128751857Y-121844714D02*
X129005857Y-121082714D01*
X129259857Y-121844714D01*
X129876715Y-121844714D02*
X129513858Y-121844714D01*
X129513858Y-121082714D01*
X110644314Y-117021285D02*
X111406314Y-116839856D01*
X110862029Y-116694713D01*
X111406314Y-116549571D01*
X110644314Y-116368142D01*
X111406314Y-116077856D02*
X110644314Y-116077856D01*
X111007171Y-115460999D02*
X111007171Y-115714999D01*
X111406314Y-115714999D02*
X110644314Y-115714999D01*
X110644314Y-115352142D01*
X111406314Y-115061856D02*
X110644314Y-115061856D01*
X111188600Y-114154714D02*
X111188600Y-113791857D01*
X111406314Y-114227286D02*
X110644314Y-113973286D01*
X111406314Y-113719286D01*
X111333743Y-113029857D02*
X111370029Y-113066143D01*
X111406314Y-113175000D01*
X111406314Y-113247571D01*
X111370029Y-113356428D01*
X111297457Y-113429000D01*
X111224886Y-113465285D01*
X111079743Y-113501571D01*
X110970886Y-113501571D01*
X110825743Y-113465285D01*
X110753171Y-113429000D01*
X110680600Y-113356428D01*
X110644314Y-113247571D01*
X110644314Y-113175000D01*
X110680600Y-113066143D01*
X110716886Y-113029857D01*
X111406314Y-112122714D02*
X110644314Y-112122714D01*
X110644314Y-111832429D01*
X110680600Y-111759857D01*
X110716886Y-111723572D01*
X110789457Y-111687286D01*
X110898314Y-111687286D01*
X110970886Y-111723572D01*
X111007171Y-111759857D01*
X111043457Y-111832429D01*
X111043457Y-112122714D01*
X110644314Y-111215572D02*
X110644314Y-111070429D01*
X110680600Y-110997857D01*
X110753171Y-110925286D01*
X110898314Y-110889000D01*
X111152314Y-110889000D01*
X111297457Y-110925286D01*
X111370029Y-110997857D01*
X111406314Y-111070429D01*
X111406314Y-111215572D01*
X111370029Y-111288143D01*
X111297457Y-111360714D01*
X111152314Y-111397000D01*
X110898314Y-111397000D01*
X110753171Y-111360714D01*
X110680600Y-111288143D01*
X110644314Y-111215572D01*
X110644314Y-110635000D02*
X111406314Y-110453571D01*
X110862029Y-110308428D01*
X111406314Y-110163286D01*
X110644314Y-109981857D01*
X111007171Y-109691571D02*
X111007171Y-109437571D01*
X111406314Y-109328714D02*
X111406314Y-109691571D01*
X110644314Y-109691571D01*
X110644314Y-109328714D01*
X111406314Y-108566714D02*
X111043457Y-108820714D01*
X111406314Y-109002142D02*
X110644314Y-109002142D01*
X110644314Y-108711857D01*
X110680600Y-108639285D01*
X110716886Y-108603000D01*
X110789457Y-108566714D01*
X110898314Y-108566714D01*
X110970886Y-108603000D01*
X111007171Y-108639285D01*
X111043457Y-108711857D01*
X111043457Y-109002142D01*
X111406314Y-107659571D02*
X110644314Y-107659571D01*
X111188600Y-107405571D01*
X110644314Y-107151571D01*
X111406314Y-107151571D01*
X110644314Y-106643572D02*
X110644314Y-106498429D01*
X110680600Y-106425857D01*
X110753171Y-106353286D01*
X110898314Y-106317000D01*
X111152314Y-106317000D01*
X111297457Y-106353286D01*
X111370029Y-106425857D01*
X111406314Y-106498429D01*
X111406314Y-106643572D01*
X111370029Y-106716143D01*
X111297457Y-106788714D01*
X111152314Y-106825000D01*
X110898314Y-106825000D01*
X110753171Y-106788714D01*
X110680600Y-106716143D01*
X110644314Y-106643572D01*
X111406314Y-105990428D02*
X110644314Y-105990428D01*
X111406314Y-105555000D01*
X110644314Y-105555000D01*
X111406314Y-105192142D02*
X110644314Y-105192142D01*
X110644314Y-104938143D02*
X110644314Y-104502714D01*
X111406314Y-104720428D02*
X110644314Y-104720428D01*
X110644314Y-104103572D02*
X110644314Y-103958429D01*
X110680600Y-103885857D01*
X110753171Y-103813286D01*
X110898314Y-103777000D01*
X111152314Y-103777000D01*
X111297457Y-103813286D01*
X111370029Y-103885857D01*
X111406314Y-103958429D01*
X111406314Y-104103572D01*
X111370029Y-104176143D01*
X111297457Y-104248714D01*
X111152314Y-104285000D01*
X110898314Y-104285000D01*
X110753171Y-104248714D01*
X110680600Y-104176143D01*
X110644314Y-104103572D01*
X111406314Y-103015000D02*
X111043457Y-103269000D01*
X111406314Y-103450428D02*
X110644314Y-103450428D01*
X110644314Y-103160143D01*
X110680600Y-103087571D01*
X110716886Y-103051286D01*
X110789457Y-103015000D01*
X110898314Y-103015000D01*
X110970886Y-103051286D01*
X111007171Y-103087571D01*
X111043457Y-103160143D01*
X111043457Y-103450428D01*
X111863514Y-113882570D02*
X111863514Y-114027713D01*
X111899800Y-114100284D01*
X111936086Y-114136570D01*
X112044943Y-114209141D01*
X112190086Y-114245427D01*
X112480371Y-114245427D01*
X112552943Y-114209141D01*
X112589229Y-114172856D01*
X112625514Y-114100284D01*
X112625514Y-113955141D01*
X112589229Y-113882570D01*
X112552943Y-113846284D01*
X112480371Y-113809999D01*
X112298943Y-113809999D01*
X112226371Y-113846284D01*
X112190086Y-113882570D01*
X112153800Y-113955141D01*
X112153800Y-114100284D01*
X112190086Y-114172856D01*
X112226371Y-114209141D01*
X112298943Y-114245427D01*
X111863514Y-113156856D02*
X111863514Y-113301999D01*
X111899800Y-113374570D01*
X111936086Y-113410856D01*
X112044943Y-113483427D01*
X112190086Y-113519713D01*
X112480371Y-113519713D01*
X112552943Y-113483427D01*
X112589229Y-113447142D01*
X112625514Y-113374570D01*
X112625514Y-113229427D01*
X112589229Y-113156856D01*
X112552943Y-113120570D01*
X112480371Y-113084285D01*
X112298943Y-113084285D01*
X112226371Y-113120570D01*
X112190086Y-113156856D01*
X112153800Y-113229427D01*
X112153800Y-113374570D01*
X112190086Y-113447142D01*
X112226371Y-113483427D01*
X112298943Y-113519713D01*
X112335229Y-112757713D02*
X112335229Y-112177142D01*
X112625514Y-111415142D02*
X112625514Y-111850570D01*
X112625514Y-111632856D02*
X111863514Y-111632856D01*
X111972371Y-111705427D01*
X112044943Y-111777999D01*
X112081229Y-111850570D01*
X111863514Y-110943428D02*
X111863514Y-110870856D01*
X111899800Y-110798285D01*
X111936086Y-110761999D01*
X112008657Y-110725713D01*
X112153800Y-110689428D01*
X112335229Y-110689428D01*
X112480371Y-110725713D01*
X112552943Y-110761999D01*
X112589229Y-110798285D01*
X112625514Y-110870856D01*
X112625514Y-110943428D01*
X112589229Y-111015999D01*
X112552943Y-111052285D01*
X112480371Y-111088570D01*
X112335229Y-111124856D01*
X112153800Y-111124856D01*
X112008657Y-111088570D01*
X111936086Y-111052285D01*
X111899800Y-111015999D01*
X111863514Y-110943428D01*
X111863514Y-110217714D02*
X111863514Y-110145142D01*
X111899800Y-110072571D01*
X111936086Y-110036285D01*
X112008657Y-109999999D01*
X112153800Y-109963714D01*
X112335229Y-109963714D01*
X112480371Y-109999999D01*
X112552943Y-110036285D01*
X112589229Y-110072571D01*
X112625514Y-110145142D01*
X112625514Y-110217714D01*
X112589229Y-110290285D01*
X112552943Y-110326571D01*
X112480371Y-110362856D01*
X112335229Y-110399142D01*
X112153800Y-110399142D01*
X112008657Y-110362856D01*
X111936086Y-110326571D01*
X111899800Y-110290285D01*
X111863514Y-110217714D01*
X112625514Y-109238000D02*
X112625514Y-109673428D01*
X112625514Y-109455714D02*
X111863514Y-109455714D01*
X111972371Y-109528285D01*
X112044943Y-109600857D01*
X112081229Y-109673428D01*
X111863514Y-108766286D02*
X111863514Y-108693714D01*
X111899800Y-108621143D01*
X111936086Y-108584857D01*
X112008657Y-108548571D01*
X112153800Y-108512286D01*
X112335229Y-108512286D01*
X112480371Y-108548571D01*
X112552943Y-108584857D01*
X112589229Y-108621143D01*
X112625514Y-108693714D01*
X112625514Y-108766286D01*
X112589229Y-108838857D01*
X112552943Y-108875143D01*
X112480371Y-108911428D01*
X112335229Y-108947714D01*
X112153800Y-108947714D01*
X112008657Y-108911428D01*
X111936086Y-108875143D01*
X111899800Y-108838857D01*
X111863514Y-108766286D01*
X111863514Y-107822857D02*
X111863514Y-108185714D01*
X112226371Y-108222000D01*
X112190086Y-108185714D01*
X112153800Y-108113143D01*
X112153800Y-107931714D01*
X112190086Y-107859143D01*
X112226371Y-107822857D01*
X112298943Y-107786572D01*
X112480371Y-107786572D01*
X112552943Y-107822857D01*
X112589229Y-107859143D01*
X112625514Y-107931714D01*
X112625514Y-108113143D01*
X112589229Y-108185714D01*
X112552943Y-108222000D01*
X111863514Y-106952001D02*
X112625514Y-106444001D01*
X111863514Y-106444001D02*
X112625514Y-106952001D01*
X112625514Y-105754573D02*
X112625514Y-106190001D01*
X112625514Y-105972287D02*
X111863514Y-105972287D01*
X111972371Y-106044858D01*
X112044943Y-106117430D01*
X112081229Y-106190001D01*
X113772143Y-114535713D02*
X113808429Y-114571999D01*
X113844714Y-114680856D01*
X113844714Y-114753427D01*
X113808429Y-114862284D01*
X113735857Y-114934856D01*
X113663286Y-114971141D01*
X113518143Y-115007427D01*
X113409286Y-115007427D01*
X113264143Y-114971141D01*
X113191571Y-114934856D01*
X113119000Y-114862284D01*
X113082714Y-114753427D01*
X113082714Y-114680856D01*
X113119000Y-114571999D01*
X113155286Y-114535713D01*
X113082714Y-114063999D02*
X113082714Y-113918856D01*
X113119000Y-113846284D01*
X113191571Y-113773713D01*
X113336714Y-113737427D01*
X113590714Y-113737427D01*
X113735857Y-113773713D01*
X113808429Y-113846284D01*
X113844714Y-113918856D01*
X113844714Y-114063999D01*
X113808429Y-114136570D01*
X113735857Y-114209141D01*
X113590714Y-114245427D01*
X113336714Y-114245427D01*
X113191571Y-114209141D01*
X113119000Y-114136570D01*
X113082714Y-114063999D01*
X113844714Y-113410855D02*
X113082714Y-113410855D01*
X113082714Y-113120570D01*
X113119000Y-113047998D01*
X113155286Y-113011713D01*
X113227857Y-112975427D01*
X113336714Y-112975427D01*
X113409286Y-113011713D01*
X113445571Y-113047998D01*
X113481857Y-113120570D01*
X113481857Y-113410855D01*
X113481857Y-112503713D02*
X113844714Y-112503713D01*
X113082714Y-112757713D02*
X113481857Y-112503713D01*
X113082714Y-112249713D01*
X113844714Y-111560284D02*
X113481857Y-111814284D01*
X113844714Y-111995712D02*
X113082714Y-111995712D01*
X113082714Y-111705427D01*
X113119000Y-111632855D01*
X113155286Y-111596570D01*
X113227857Y-111560284D01*
X113336714Y-111560284D01*
X113409286Y-111596570D01*
X113445571Y-111632855D01*
X113481857Y-111705427D01*
X113481857Y-111995712D01*
X113844714Y-111233712D02*
X113082714Y-111233712D01*
X113119000Y-110471713D02*
X113082714Y-110544284D01*
X113082714Y-110653141D01*
X113119000Y-110761998D01*
X113191571Y-110834570D01*
X113264143Y-110870855D01*
X113409286Y-110907141D01*
X113518143Y-110907141D01*
X113663286Y-110870855D01*
X113735857Y-110834570D01*
X113808429Y-110761998D01*
X113844714Y-110653141D01*
X113844714Y-110580570D01*
X113808429Y-110471713D01*
X113772143Y-110435427D01*
X113518143Y-110435427D01*
X113518143Y-110580570D01*
X113844714Y-110108855D02*
X113082714Y-110108855D01*
X113445571Y-110108855D02*
X113445571Y-109673427D01*
X113844714Y-109673427D02*
X113082714Y-109673427D01*
X113082714Y-109419427D02*
X113082714Y-108983998D01*
X113844714Y-109201712D02*
X113082714Y-109201712D01*
X113155286Y-108185713D02*
X113119000Y-108149427D01*
X113082714Y-108076856D01*
X113082714Y-107895427D01*
X113119000Y-107822856D01*
X113155286Y-107786570D01*
X113227857Y-107750285D01*
X113300429Y-107750285D01*
X113409286Y-107786570D01*
X113844714Y-108221999D01*
X113844714Y-107750285D01*
X113082714Y-107278571D02*
X113082714Y-107205999D01*
X113119000Y-107133428D01*
X113155286Y-107097142D01*
X113227857Y-107060856D01*
X113373000Y-107024571D01*
X113554429Y-107024571D01*
X113699571Y-107060856D01*
X113772143Y-107097142D01*
X113808429Y-107133428D01*
X113844714Y-107205999D01*
X113844714Y-107278571D01*
X113808429Y-107351142D01*
X113772143Y-107387428D01*
X113699571Y-107423713D01*
X113554429Y-107459999D01*
X113373000Y-107459999D01*
X113227857Y-107423713D01*
X113155286Y-107387428D01*
X113119000Y-107351142D01*
X113082714Y-107278571D01*
X113844714Y-106298857D02*
X113844714Y-106734285D01*
X113844714Y-106516571D02*
X113082714Y-106516571D01*
X113191571Y-106589142D01*
X113264143Y-106661714D01*
X113300429Y-106734285D01*
X113082714Y-105609428D02*
X113082714Y-105972285D01*
X113445571Y-106008571D01*
X113409286Y-105972285D01*
X113373000Y-105899714D01*
X113373000Y-105718285D01*
X113409286Y-105645714D01*
X113445571Y-105609428D01*
X113518143Y-105573143D01*
X113699571Y-105573143D01*
X113772143Y-105609428D01*
X113808429Y-105645714D01*
X113844714Y-105718285D01*
X113844714Y-105899714D01*
X113808429Y-105972285D01*
X113772143Y-106008571D01*
X115027629Y-115297714D02*
X115063914Y-115188857D01*
X115063914Y-115007428D01*
X115027629Y-114934857D01*
X114991343Y-114898571D01*
X114918771Y-114862286D01*
X114846200Y-114862286D01*
X114773629Y-114898571D01*
X114737343Y-114934857D01*
X114701057Y-115007428D01*
X114664771Y-115152571D01*
X114628486Y-115225143D01*
X114592200Y-115261428D01*
X114519629Y-115297714D01*
X114447057Y-115297714D01*
X114374486Y-115261428D01*
X114338200Y-115225143D01*
X114301914Y-115152571D01*
X114301914Y-114971143D01*
X114338200Y-114862286D01*
X114301914Y-114644572D02*
X114301914Y-114209143D01*
X115063914Y-114426857D02*
X114301914Y-114426857D01*
X114664771Y-113955143D02*
X114664771Y-113701143D01*
X115063914Y-113592286D02*
X115063914Y-113955143D01*
X114301914Y-113955143D01*
X114301914Y-113592286D01*
X115063914Y-113265714D02*
X114301914Y-113265714D01*
X114301914Y-112975429D01*
X114338200Y-112902857D01*
X114374486Y-112866572D01*
X114447057Y-112830286D01*
X114555914Y-112830286D01*
X114628486Y-112866572D01*
X114664771Y-112902857D01*
X114701057Y-112975429D01*
X114701057Y-113265714D01*
X115063914Y-112503714D02*
X114301914Y-112503714D01*
X114664771Y-112503714D02*
X114664771Y-112068286D01*
X115063914Y-112068286D02*
X114301914Y-112068286D01*
X114664771Y-111705428D02*
X114664771Y-111451428D01*
X115063914Y-111342571D02*
X115063914Y-111705428D01*
X114301914Y-111705428D01*
X114301914Y-111342571D01*
X115063914Y-111015999D02*
X114301914Y-111015999D01*
X115063914Y-110580571D01*
X114301914Y-110580571D01*
X115063914Y-109201714D02*
X114701057Y-109455714D01*
X115063914Y-109637142D02*
X114301914Y-109637142D01*
X114301914Y-109346857D01*
X114338200Y-109274285D01*
X114374486Y-109238000D01*
X114447057Y-109201714D01*
X114555914Y-109201714D01*
X114628486Y-109238000D01*
X114664771Y-109274285D01*
X114701057Y-109346857D01*
X114701057Y-109637142D01*
X114301914Y-108730000D02*
X114301914Y-108584857D01*
X114338200Y-108512285D01*
X114410771Y-108439714D01*
X114555914Y-108403428D01*
X114809914Y-108403428D01*
X114955057Y-108439714D01*
X115027629Y-108512285D01*
X115063914Y-108584857D01*
X115063914Y-108730000D01*
X115027629Y-108802571D01*
X114955057Y-108875142D01*
X114809914Y-108911428D01*
X114555914Y-108911428D01*
X114410771Y-108875142D01*
X114338200Y-108802571D01*
X114301914Y-108730000D01*
X115063914Y-108076856D02*
X114301914Y-108076856D01*
X114301914Y-107895428D01*
X114338200Y-107786571D01*
X114410771Y-107713999D01*
X114483343Y-107677714D01*
X114628486Y-107641428D01*
X114737343Y-107641428D01*
X114882486Y-107677714D01*
X114955057Y-107713999D01*
X115027629Y-107786571D01*
X115063914Y-107895428D01*
X115063914Y-108076856D01*
X114338200Y-106915714D02*
X114301914Y-106988285D01*
X114301914Y-107097142D01*
X114338200Y-107205999D01*
X114410771Y-107278571D01*
X114483343Y-107314856D01*
X114628486Y-107351142D01*
X114737343Y-107351142D01*
X114882486Y-107314856D01*
X114955057Y-107278571D01*
X115027629Y-107205999D01*
X115063914Y-107097142D01*
X115063914Y-107024571D01*
X115027629Y-106915714D01*
X114991343Y-106879428D01*
X114737343Y-106879428D01*
X114737343Y-107024571D01*
X114664771Y-106552856D02*
X114664771Y-106298856D01*
X115063914Y-106189999D02*
X115063914Y-106552856D01*
X114301914Y-106552856D01*
X114301914Y-106189999D01*
X115063914Y-105427999D02*
X114701057Y-105681999D01*
X115063914Y-105863427D02*
X114301914Y-105863427D01*
X114301914Y-105573142D01*
X114338200Y-105500570D01*
X114374486Y-105464285D01*
X114447057Y-105427999D01*
X114555914Y-105427999D01*
X114628486Y-105464285D01*
X114664771Y-105500570D01*
X114701057Y-105573142D01*
X114701057Y-105863427D01*
X115027629Y-105137713D02*
X115063914Y-105028856D01*
X115063914Y-104847427D01*
X115027629Y-104774856D01*
X114991343Y-104738570D01*
X114918771Y-104702285D01*
X114846200Y-104702285D01*
X114773629Y-104738570D01*
X114737343Y-104774856D01*
X114701057Y-104847427D01*
X114664771Y-104992570D01*
X114628486Y-105065142D01*
X114592200Y-105101427D01*
X114519629Y-105137713D01*
X114447057Y-105137713D01*
X114374486Y-105101427D01*
X114338200Y-105065142D01*
X114301914Y-104992570D01*
X114301914Y-104811142D01*
X114338200Y-104702285D01*
X116283114Y-112013856D02*
X115521114Y-112013856D01*
X115883971Y-112013856D02*
X115883971Y-111578428D01*
X116283114Y-111578428D02*
X115521114Y-111578428D01*
X115521114Y-111288142D02*
X116283114Y-111106713D01*
X115738829Y-110961570D01*
X116283114Y-110816428D01*
X115521114Y-110634999D01*
X116246829Y-110380999D02*
X116283114Y-110272142D01*
X116283114Y-110090713D01*
X116246829Y-110018142D01*
X116210543Y-109981856D01*
X116137971Y-109945571D01*
X116065400Y-109945571D01*
X115992829Y-109981856D01*
X115956543Y-110018142D01*
X115920257Y-110090713D01*
X115883971Y-110235856D01*
X115847686Y-110308428D01*
X115811400Y-110344713D01*
X115738829Y-110380999D01*
X115666257Y-110380999D01*
X115593686Y-110344713D01*
X115557400Y-110308428D01*
X115521114Y-110235856D01*
X115521114Y-110054428D01*
X115557400Y-109945571D01*
X115521114Y-109727857D02*
X115521114Y-109292428D01*
X116283114Y-109510142D02*
X115521114Y-109510142D01*
X116065400Y-109074714D02*
X116065400Y-108711857D01*
X116283114Y-109147286D02*
X115521114Y-108893286D01*
X116283114Y-108639286D01*
X116283114Y-107949857D02*
X115920257Y-108203857D01*
X116283114Y-108385285D02*
X115521114Y-108385285D01*
X115521114Y-108095000D01*
X115557400Y-108022428D01*
X115593686Y-107986143D01*
X115666257Y-107949857D01*
X115775114Y-107949857D01*
X115847686Y-107986143D01*
X115883971Y-108022428D01*
X115920257Y-108095000D01*
X115920257Y-108385285D01*
X155484200Y-95123000D02*
G75*
G03X155484200Y-95123000I-2500000J0D01*
G01*
X163810000Y-121000000D02*
G75*
G03X163810000Y-121000000I-3810000J0D01*
G01*
X163810000Y-79000000D02*
G75*
G03X163810000Y-79000000I-3810000J0D01*
G01*
X201038000Y-87497000D02*
X201038000Y-86281000D01*
X201038000Y-86281000D02*
X202962000Y-86281000D01*
X202962000Y-86281000D02*
X202962000Y-87497000D01*
X202962000Y-88513000D02*
X202962000Y-89729000D01*
X202962000Y-89729000D02*
X201038000Y-89729000D01*
X201038000Y-89729000D02*
X201038000Y-88513000D01*
X197038000Y-87497000D02*
X197038000Y-86281000D01*
X197038000Y-86281000D02*
X198962000Y-86281000D01*
X198962000Y-86281000D02*
X198962000Y-87497000D01*
X198962000Y-88513000D02*
X198962000Y-89729000D01*
X198962000Y-89729000D02*
X197038000Y-89729000D01*
X197038000Y-89729000D02*
X197038000Y-88513000D01*
X152651380Y-119973240D02*
X153601000Y-119973240D01*
X151650620Y-119973240D02*
X150701000Y-119973240D01*
X152651380Y-118532760D02*
X153601000Y-118532760D01*
X150701000Y-118532760D02*
X151650620Y-118532760D01*
X153601000Y-118532760D02*
X153601000Y-119973240D01*
X150701000Y-119973240D02*
X150701000Y-118532760D01*
X149349380Y-119973240D02*
X150299000Y-119973240D01*
X148348620Y-119973240D02*
X147399000Y-119973240D01*
X149349380Y-118532760D02*
X150299000Y-118532760D01*
X147399000Y-118532760D02*
X148348620Y-118532760D01*
X150299000Y-118532760D02*
X150299000Y-119973240D01*
X147399000Y-119973240D02*
X147399000Y-118532760D01*
X162505380Y-96720240D02*
X163455000Y-96720240D01*
X161504620Y-96720240D02*
X160555000Y-96720240D01*
X162505380Y-95279760D02*
X163455000Y-95279760D01*
X160555000Y-95279760D02*
X161504620Y-95279760D01*
X163455000Y-95279760D02*
X163455000Y-96720240D01*
X160555000Y-96720240D02*
X160555000Y-95279760D01*
X162505380Y-99720240D02*
X163455000Y-99720240D01*
X161504620Y-99720240D02*
X160555000Y-99720240D01*
X162505380Y-98279760D02*
X163455000Y-98279760D01*
X160555000Y-98279760D02*
X161504620Y-98279760D01*
X163455000Y-98279760D02*
X163455000Y-99720240D01*
X160555000Y-99720240D02*
X160555000Y-98279760D01*
X146047380Y-123910240D02*
X146997000Y-123910240D01*
X145046620Y-123910240D02*
X144097000Y-123910240D01*
X146047380Y-122469760D02*
X146997000Y-122469760D01*
X144097000Y-122469760D02*
X145046620Y-122469760D01*
X146997000Y-122469760D02*
X146997000Y-123910240D01*
X144097000Y-123910240D02*
X144097000Y-122469760D01*
X145036620Y-118532760D02*
X144087000Y-118532760D01*
X146037380Y-118532760D02*
X146987000Y-118532760D01*
X145036620Y-119973240D02*
X144087000Y-119973240D01*
X146987000Y-119973240D02*
X146037380Y-119973240D01*
X144087000Y-119973240D02*
X144087000Y-118532760D01*
X146987000Y-118532760D02*
X146987000Y-119973240D01*
X155616760Y-117345380D02*
X155616760Y-118295000D01*
X155616760Y-116344620D02*
X155616760Y-115395000D01*
X157057240Y-117345380D02*
X157057240Y-118295000D01*
X157057240Y-115395000D02*
X157057240Y-116344620D01*
X157057240Y-118295000D02*
X155616760Y-118295000D01*
X155616760Y-115395000D02*
X157057240Y-115395000D01*
X153838760Y-117345380D02*
X153838760Y-118295000D01*
X153838760Y-116344620D02*
X153838760Y-115395000D01*
X155279240Y-117345380D02*
X155279240Y-118295000D01*
X155279240Y-115395000D02*
X155279240Y-116344620D01*
X155279240Y-118295000D02*
X153838760Y-118295000D01*
X153838760Y-115395000D02*
X155279240Y-115395000D01*
X203031240Y-94617620D02*
X203031240Y-93668000D01*
X203031240Y-95618380D02*
X203031240Y-96568000D01*
X201590760Y-94617620D02*
X201590760Y-93668000D01*
X201590760Y-96568000D02*
X201590760Y-95618380D01*
X201590760Y-93668000D02*
X203031240Y-93668000D01*
X203031240Y-96568000D02*
X201590760Y-96568000D01*
X193538960Y-99057380D02*
X193538960Y-100007000D01*
X193538960Y-98056620D02*
X193538960Y-97107000D01*
X194979440Y-99057380D02*
X194979440Y-100007000D01*
X194979440Y-97107000D02*
X194979440Y-98056620D01*
X194979440Y-100007000D02*
X193538960Y-100007000D01*
X193538960Y-97107000D02*
X194979440Y-97107000D01*
D11*
X209350000Y-84300000D02*
X209350000Y-91700000D01*
X209350000Y-91700000D02*
X203600000Y-91700000D01*
X203600000Y-91700000D02*
X203600000Y-84300000D01*
X203600000Y-84300000D02*
X209350000Y-84300000D01*
D12*
X164600000Y-102300000D02*
G75*
G03X164600000Y-102300000I-100000J0D01*
G01*
D13*
X165540000Y-102730000D02*
X165540000Y-105270000D01*
X165540000Y-105270000D02*
X160460000Y-105270000D01*
X160460000Y-105270000D02*
X160460000Y-102730000D01*
X160460000Y-102730000D02*
X165540000Y-102730000D01*
D11*
X209350000Y-93800000D02*
X209350000Y-116200000D01*
X209350000Y-116200000D02*
X203600000Y-116200000D01*
X203600000Y-116200000D02*
X203600000Y-93800000D01*
X203600000Y-100100000D02*
X203600000Y-100050000D01*
X203600000Y-93800000D02*
X209350000Y-93800000D01*
D14*
X178731000Y-121222000D02*
G75*
G03X178731000Y-121222000I-127000J0D01*
G01*
D13*
X179620000Y-121730000D02*
X179620000Y-124270000D01*
X179620000Y-124270000D02*
X164380000Y-124270000D01*
X164380000Y-124270000D02*
X164380000Y-121730000D01*
X164380000Y-121730000D02*
X179620000Y-121730000D01*
X177080000Y-121730000D02*
X177080000Y-124270000D01*
D11*
X128143000Y-120269000D02*
X128143000Y-107569000D01*
X128143000Y-107569000D02*
X135763000Y-107569000D01*
X135763000Y-107569000D02*
X135763000Y-120269000D01*
X135763000Y-120269000D02*
X128143000Y-120269000D01*
X119888000Y-120269000D02*
X119888000Y-107569000D01*
X119888000Y-107569000D02*
X127508000Y-107569000D01*
X127508000Y-107569000D02*
X127508000Y-120269000D01*
X127508000Y-120269000D02*
X119888000Y-120269000D01*
X110142000Y-98350000D02*
X110142000Y-85650000D01*
X110142000Y-85650000D02*
X117762000Y-85650000D01*
X117762000Y-85650000D02*
X117762000Y-98350000D01*
X117762000Y-98350000D02*
X110142000Y-98350000D01*
X130142000Y-98350000D02*
X130142000Y-85650000D01*
X130142000Y-85650000D02*
X137762000Y-85650000D01*
X137762000Y-85650000D02*
X137762000Y-98350000D01*
X137762000Y-98350000D02*
X130142000Y-98350000D01*
D10*
X148504620Y-84261500D02*
X147520000Y-84261500D01*
X147520000Y-84261500D02*
X147520000Y-85738500D01*
X147520000Y-85738500D02*
X148504620Y-85738500D01*
X150480000Y-84261500D02*
X149505380Y-84261500D01*
X150480000Y-84261500D02*
X150480000Y-85738500D01*
X150480000Y-85738500D02*
X149505380Y-85738500D01*
X152504620Y-84261500D02*
X151520000Y-84261500D01*
X151520000Y-84261500D02*
X151520000Y-85738500D01*
X151520000Y-85738500D02*
X152504620Y-85738500D01*
X154480000Y-84261500D02*
X153505380Y-84261500D01*
X154480000Y-84261500D02*
X154480000Y-85738500D01*
X154480000Y-85738500D02*
X153505380Y-85738500D01*
X156504620Y-84261500D02*
X155520000Y-84261500D01*
X155520000Y-84261500D02*
X155520000Y-85738500D01*
X155520000Y-85738500D02*
X156504620Y-85738500D01*
X158480000Y-84261500D02*
X157505380Y-84261500D01*
X158480000Y-84261500D02*
X158480000Y-85738500D01*
X158480000Y-85738500D02*
X157505380Y-85738500D01*
X122213500Y-96495380D02*
X122213500Y-97480000D01*
X122213500Y-97480000D02*
X123690500Y-97480000D01*
X123690500Y-97480000D02*
X123690500Y-96495380D01*
X122213500Y-94520000D02*
X122213500Y-95494620D01*
X122213500Y-94520000D02*
X123690500Y-94520000D01*
X123690500Y-94520000D02*
X123690500Y-95494620D01*
X117952000Y-86500000D02*
X117952000Y-93500000D01*
X117952000Y-93500000D02*
X129952000Y-93500000D01*
X129952000Y-93500000D02*
X129952000Y-86500000D01*
X129952000Y-86500000D02*
X117952000Y-86500000D01*
X160504620Y-84261500D02*
X159520000Y-84261500D01*
X159520000Y-84261500D02*
X159520000Y-85738500D01*
X159520000Y-85738500D02*
X160504620Y-85738500D01*
X162480000Y-84261500D02*
X161505380Y-84261500D01*
X162480000Y-84261500D02*
X162480000Y-85738500D01*
X162480000Y-85738500D02*
X161505380Y-85738500D01*
X124213500Y-96495380D02*
X124213500Y-97480000D01*
X124213500Y-97480000D02*
X125690500Y-97480000D01*
X125690500Y-97480000D02*
X125690500Y-96495380D01*
X124213500Y-94520000D02*
X124213500Y-95494620D01*
X124213500Y-94520000D02*
X125690500Y-94520000D01*
X125690500Y-94520000D02*
X125690500Y-95494620D01*
X164504620Y-84261500D02*
X163520000Y-84261500D01*
X163520000Y-84261500D02*
X163520000Y-85738500D01*
X163520000Y-85738500D02*
X164504620Y-85738500D01*
X166480000Y-84261500D02*
X165505380Y-84261500D01*
X166480000Y-84261500D02*
X166480000Y-85738500D01*
X166480000Y-85738500D02*
X165505380Y-85738500D01*
X168504620Y-84261500D02*
X167520000Y-84261500D01*
X167520000Y-84261500D02*
X167520000Y-85738500D01*
X167520000Y-85738500D02*
X168504620Y-85738500D01*
X170480000Y-84261500D02*
X169505380Y-84261500D01*
X170480000Y-84261500D02*
X170480000Y-85738500D01*
X170480000Y-85738500D02*
X169505380Y-85738500D01*
X172504620Y-84261500D02*
X171520000Y-84261500D01*
X171520000Y-84261500D02*
X171520000Y-85738500D01*
X171520000Y-85738500D02*
X172504620Y-85738500D01*
X174480000Y-84261500D02*
X173505380Y-84261500D01*
X174480000Y-84261500D02*
X174480000Y-85738500D01*
X174480000Y-85738500D02*
X173505380Y-85738500D01*
X161504620Y-93261500D02*
X160520000Y-93261500D01*
X160520000Y-93261500D02*
X160520000Y-94738500D01*
X160520000Y-94738500D02*
X161504620Y-94738500D01*
X163480000Y-93261500D02*
X162505380Y-93261500D01*
X163480000Y-93261500D02*
X163480000Y-94738500D01*
X163480000Y-94738500D02*
X162505380Y-94738500D01*
X161504620Y-100261500D02*
X160520000Y-100261500D01*
X160520000Y-100261500D02*
X160520000Y-101738500D01*
X160520000Y-101738500D02*
X161504620Y-101738500D01*
X163480000Y-100261500D02*
X162505380Y-100261500D01*
X163480000Y-100261500D02*
X163480000Y-101738500D01*
X163480000Y-101738500D02*
X162505380Y-101738500D01*
X145046620Y-120546500D02*
X144062000Y-120546500D01*
X144062000Y-120546500D02*
X144062000Y-122023500D01*
X144062000Y-122023500D02*
X145046620Y-122023500D01*
X147022000Y-120546500D02*
X146047380Y-120546500D01*
X147022000Y-120546500D02*
X147022000Y-122023500D01*
X147022000Y-122023500D02*
X146047380Y-122023500D01*
X142227380Y-122023500D02*
X143212000Y-122023500D01*
X143212000Y-122023500D02*
X143212000Y-120546500D01*
X143212000Y-120546500D02*
X142227380Y-120546500D01*
X140252000Y-122023500D02*
X141226620Y-122023500D01*
X140252000Y-122023500D02*
X140252000Y-120546500D01*
X140252000Y-120546500D02*
X141226620Y-120546500D01*
X142506620Y-105814500D02*
X141522000Y-105814500D01*
X141522000Y-105814500D02*
X141522000Y-107291500D01*
X141522000Y-107291500D02*
X142506620Y-107291500D01*
X144482000Y-105814500D02*
X143507380Y-105814500D01*
X144482000Y-105814500D02*
X144482000Y-107291500D01*
X144482000Y-107291500D02*
X143507380Y-107291500D01*
X140239000Y-117993000D02*
X140239000Y-116801000D01*
X140239000Y-116801000D02*
X142209000Y-116801000D01*
X142209000Y-116801000D02*
X142209000Y-117993000D01*
X142209000Y-119009000D02*
X142209000Y-120191000D01*
X142209000Y-120191000D02*
X140239000Y-120191000D01*
D11*
X140239000Y-120191000D02*
X140239000Y-119009000D01*
D10*
X140112000Y-109611000D02*
X140112000Y-108419000D01*
X140112000Y-108419000D02*
X142082000Y-108419000D01*
X142082000Y-108419000D02*
X142082000Y-109611000D01*
X142082000Y-110627000D02*
X142082000Y-111809000D01*
X142082000Y-111809000D02*
X140112000Y-111809000D01*
D11*
X140112000Y-111809000D02*
X140112000Y-110627000D01*
D10*
X197334500Y-108216620D02*
X197334500Y-107232000D01*
X197334500Y-107232000D02*
X195857500Y-107232000D01*
X195857500Y-107232000D02*
X195857500Y-108216620D01*
X197334500Y-110192000D02*
X197334500Y-109217380D01*
X197334500Y-110192000D02*
X195857500Y-110192000D01*
X195857500Y-110192000D02*
X195857500Y-109217380D01*
X161683620Y-106195500D02*
X160699000Y-106195500D01*
X160699000Y-106195500D02*
X160699000Y-107672500D01*
X160699000Y-107672500D02*
X161683620Y-107672500D01*
X163659000Y-106195500D02*
X162684380Y-106195500D01*
X163659000Y-106195500D02*
X163659000Y-107672500D01*
X163659000Y-107672500D02*
X162684380Y-107672500D01*
X172061500Y-92468620D02*
X172061500Y-91484000D01*
X172061500Y-91484000D02*
X170584500Y-91484000D01*
X170584500Y-91484000D02*
X170584500Y-92468620D01*
X172061500Y-94444000D02*
X172061500Y-93469380D01*
X172061500Y-94444000D02*
X170584500Y-94444000D01*
X170584500Y-94444000D02*
X170584500Y-93469380D01*
D11*
X195000000Y-123000000D02*
X195000000Y-117000000D01*
X195000000Y-117000000D02*
X201000000Y-117000000D01*
X201000000Y-117000000D02*
X201000000Y-123000000D01*
X201000000Y-123000000D02*
X195000000Y-123000000D01*
D15*
X199750000Y-120000000D02*
G75*
G03X199750000Y-120000000I-1750000J0D01*
G01*
D10*
X202952046Y-112385000D02*
G75*
G03X202952046Y-112385000I-2008046J0D01*
G01*
D11*
X193524000Y-90556000D02*
X196572000Y-90556000D01*
X196572000Y-90556000D02*
X196572000Y-83444000D01*
X196572000Y-83444000D02*
X193524000Y-83444000D01*
X190476000Y-90556000D02*
X189714000Y-90556000D01*
X189714000Y-90556000D02*
X187428000Y-89032000D01*
X187428000Y-89032000D02*
X187428000Y-84968000D01*
X187428000Y-84968000D02*
X189714000Y-83444000D01*
X189714000Y-83444000D02*
X190476000Y-83444000D01*
D10*
X143100000Y-118200000D02*
G75*
G03X143100000Y-118200000I-100000J0D01*
G01*
D11*
X142675000Y-115875000D02*
X143325000Y-115875000D01*
X142675000Y-110125000D02*
X143325000Y-110125000D01*
X153325000Y-110125000D02*
X152675000Y-110125000D01*
X153325000Y-115875000D02*
X152675000Y-115875000D01*
X142675000Y-115875000D02*
X142675000Y-110125000D01*
X153325000Y-115875000D02*
X153325000Y-110125000D01*
X143325000Y-115875000D02*
X143325000Y-117475000D01*
X173000000Y-121000000D02*
X173000000Y-95000000D01*
X173000000Y-95000000D02*
X193000000Y-95000000D01*
X193000000Y-95000000D02*
X193000000Y-121000000D01*
X193000000Y-121000000D02*
X173000000Y-121000000D01*
D10*
X140800000Y-99600000D02*
X140800000Y-100400000D01*
X140800000Y-104400000D02*
X140800000Y-103600000D01*
X155200000Y-104400000D02*
X155200000Y-103600000D01*
X154800000Y-104800000D02*
G75*
G03X155200000Y-104400000I0J400000D01*
G01*
X155200000Y-99600000D02*
X155200000Y-100400000D01*
X140800000Y-104400000D02*
G75*
G03X141200000Y-104800000I400000J0D01*
G01*
X155200000Y-99600000D02*
G75*
G03X154800000Y-99200000I-400000J0D01*
G01*
X141200000Y-99200000D02*
G75*
G03X140800000Y-99600000I0J-400000D01*
G01*
X154700000Y-104800000D02*
X141300000Y-104800000D01*
X154700000Y-99200000D02*
X141300000Y-99200000D01*
X117810000Y-79000000D02*
G75*
G03X117810000Y-79000000I-3810000J0D01*
G01*
X209810000Y-79000000D02*
G75*
G03X209810000Y-79000000I-3810000J0D01*
G01*
X209810000Y-121000000D02*
G75*
G03X209810000Y-121000000I-3810000J0D01*
G01*
X117810000Y-121000000D02*
G75*
G03X117810000Y-121000000I-3810000J0D01*
G01*
X155484200Y-77978000D02*
G75*
G03X155484200Y-77978000I-2500000J0D01*
G01*
X200950200Y-77978000D02*
G75*
G03X200950200Y-77978000I-2500000J0D01*
G01*
X200950200Y-95123000D02*
G75*
G03X200950200Y-95123000I-2500000J0D01*
G01*
X140485500Y-115100180D02*
X140485500Y-116084800D01*
X140485500Y-116084800D02*
X141962500Y-116084800D01*
X141962500Y-116084800D02*
X141962500Y-115100180D01*
X140485500Y-113124800D02*
X140485500Y-114099420D01*
X140485500Y-113124800D02*
X141962500Y-113124800D01*
X141962500Y-113124800D02*
X141962500Y-114099420D01*
D16*
X144502160Y-92199640D02*
X145701040Y-89100840D01*
X145701040Y-89100840D02*
X145101600Y-89499620D01*
X144100840Y-90200660D02*
X145401320Y-87399040D01*
X144502160Y-92199640D02*
X145101600Y-91501140D01*
X144900940Y-87200920D02*
X144100840Y-90200660D01*
X144100840Y-90200660D02*
X145299720Y-89400560D01*
X145299720Y-89400560D02*
X144502160Y-92199640D01*
X144502160Y-92199640D02*
X144400560Y-91300480D01*
X145000000Y-85809000D02*
X149699000Y-92794000D01*
X149699000Y-92794000D02*
X140301000Y-92794000D01*
X140301000Y-92794000D02*
X145000000Y-85809000D01*
D11*
X148950000Y-82350000D02*
X139050000Y-82350000D01*
X139050000Y-82350000D02*
X139050000Y-76600000D01*
X139050000Y-76600000D02*
X148950000Y-76600000D01*
X148950000Y-76600000D02*
X148950000Y-82350000D01*
D17*
X128826000Y-80000000D02*
G75*
G03X128826000Y-80000000I-4826000J0D01*
G01*
D10*
X134000000Y-106000000D02*
X122000000Y-106000000D01*
X122000000Y-100000000D02*
X134000000Y-100000000D01*
X122000000Y-100000000D02*
G75*
G03X122000000Y-106000000I3000000J-3000000D01*
G01*
X134000000Y-106000000D02*
G75*
G03X134000000Y-100000000I-3000000J3000000D01*
G01*
X201650600Y-85819343D02*
X201614314Y-85855629D01*
X201505457Y-85891914D01*
X201432886Y-85891914D01*
X201324029Y-85855629D01*
X201251457Y-85783057D01*
X201215172Y-85710486D01*
X201178886Y-85565343D01*
X201178886Y-85456486D01*
X201215172Y-85311343D01*
X201251457Y-85238771D01*
X201324029Y-85166200D01*
X201432886Y-85129914D01*
X201505457Y-85129914D01*
X201614314Y-85166200D01*
X201650600Y-85202486D01*
X202376314Y-85891914D02*
X201940886Y-85891914D01*
X202158600Y-85891914D02*
X202158600Y-85129914D01*
X202086029Y-85238771D01*
X202013457Y-85311343D01*
X201940886Y-85347629D01*
X197586600Y-85819343D02*
X197550314Y-85855629D01*
X197441457Y-85891914D01*
X197368886Y-85891914D01*
X197260029Y-85855629D01*
X197187457Y-85783057D01*
X197151172Y-85710486D01*
X197114886Y-85565343D01*
X197114886Y-85456486D01*
X197151172Y-85311343D01*
X197187457Y-85238771D01*
X197260029Y-85166200D01*
X197368886Y-85129914D01*
X197441457Y-85129914D01*
X197550314Y-85166200D01*
X197586600Y-85202486D01*
X197876886Y-85202486D02*
X197913172Y-85166200D01*
X197985743Y-85129914D01*
X198167172Y-85129914D01*
X198239743Y-85166200D01*
X198276029Y-85202486D01*
X198312314Y-85275057D01*
X198312314Y-85347629D01*
X198276029Y-85456486D01*
X197840600Y-85891914D01*
X198312314Y-85891914D01*
X152273000Y-120972943D02*
X152236714Y-121009229D01*
X152127857Y-121045514D01*
X152055286Y-121045514D01*
X151946429Y-121009229D01*
X151873857Y-120936657D01*
X151837572Y-120864086D01*
X151801286Y-120718943D01*
X151801286Y-120610086D01*
X151837572Y-120464943D01*
X151873857Y-120392371D01*
X151946429Y-120319800D01*
X152055286Y-120283514D01*
X152127857Y-120283514D01*
X152236714Y-120319800D01*
X152273000Y-120356086D01*
X152527000Y-120283514D02*
X152998714Y-120283514D01*
X152744714Y-120573800D01*
X152853572Y-120573800D01*
X152926143Y-120610086D01*
X152962429Y-120646371D01*
X152998714Y-120718943D01*
X152998714Y-120900371D01*
X152962429Y-120972943D01*
X152926143Y-121009229D01*
X152853572Y-121045514D01*
X152635857Y-121045514D01*
X152563286Y-121009229D01*
X152527000Y-120972943D01*
X149225000Y-120972943D02*
X149188714Y-121009229D01*
X149079857Y-121045514D01*
X149007286Y-121045514D01*
X148898429Y-121009229D01*
X148825857Y-120936657D01*
X148789572Y-120864086D01*
X148753286Y-120718943D01*
X148753286Y-120610086D01*
X148789572Y-120464943D01*
X148825857Y-120392371D01*
X148898429Y-120319800D01*
X149007286Y-120283514D01*
X149079857Y-120283514D01*
X149188714Y-120319800D01*
X149225000Y-120356086D01*
X149878143Y-120537514D02*
X149878143Y-121045514D01*
X149696714Y-120247229D02*
X149515286Y-120791514D01*
X149987000Y-120791514D01*
X164261800Y-96182543D02*
X164225514Y-96218829D01*
X164116657Y-96255114D01*
X164044086Y-96255114D01*
X163935229Y-96218829D01*
X163862657Y-96146257D01*
X163826372Y-96073686D01*
X163790086Y-95928543D01*
X163790086Y-95819686D01*
X163826372Y-95674543D01*
X163862657Y-95601971D01*
X163935229Y-95529400D01*
X164044086Y-95493114D01*
X164116657Y-95493114D01*
X164225514Y-95529400D01*
X164261800Y-95565686D01*
X164951229Y-95493114D02*
X164588372Y-95493114D01*
X164552086Y-95855971D01*
X164588372Y-95819686D01*
X164660943Y-95783400D01*
X164842372Y-95783400D01*
X164914943Y-95819686D01*
X164951229Y-95855971D01*
X164987514Y-95928543D01*
X164987514Y-96109971D01*
X164951229Y-96182543D01*
X164914943Y-96218829D01*
X164842372Y-96255114D01*
X164660943Y-96255114D01*
X164588372Y-96218829D01*
X164552086Y-96182543D01*
X162026600Y-98011343D02*
X161990314Y-98047629D01*
X161881457Y-98083914D01*
X161808886Y-98083914D01*
X161700029Y-98047629D01*
X161627457Y-97975057D01*
X161591172Y-97902486D01*
X161554886Y-97757343D01*
X161554886Y-97648486D01*
X161591172Y-97503343D01*
X161627457Y-97430771D01*
X161700029Y-97358200D01*
X161808886Y-97321914D01*
X161881457Y-97321914D01*
X161990314Y-97358200D01*
X162026600Y-97394486D01*
X162679743Y-97321914D02*
X162534600Y-97321914D01*
X162462029Y-97358200D01*
X162425743Y-97394486D01*
X162353172Y-97503343D01*
X162316886Y-97648486D01*
X162316886Y-97938771D01*
X162353172Y-98011343D01*
X162389457Y-98047629D01*
X162462029Y-98083914D01*
X162607172Y-98083914D01*
X162679743Y-98047629D01*
X162716029Y-98011343D01*
X162752314Y-97938771D01*
X162752314Y-97757343D01*
X162716029Y-97684771D01*
X162679743Y-97648486D01*
X162607172Y-97612200D01*
X162462029Y-97612200D01*
X162389457Y-97648486D01*
X162353172Y-97684771D01*
X162316886Y-97757343D01*
X147873000Y-123772143D02*
X147836714Y-123808429D01*
X147727857Y-123844714D01*
X147655286Y-123844714D01*
X147546429Y-123808429D01*
X147473857Y-123735857D01*
X147437572Y-123663286D01*
X147401286Y-123518143D01*
X147401286Y-123409286D01*
X147437572Y-123264143D01*
X147473857Y-123191571D01*
X147546429Y-123119000D01*
X147655286Y-123082714D01*
X147727857Y-123082714D01*
X147836714Y-123119000D01*
X147873000Y-123155286D01*
X148127000Y-123082714D02*
X148635000Y-123082714D01*
X148308429Y-123844714D01*
X143129000Y-118737743D02*
X143092714Y-118774029D01*
X142983857Y-118810314D01*
X142911286Y-118810314D01*
X142802429Y-118774029D01*
X142729857Y-118701457D01*
X142693572Y-118628886D01*
X142657286Y-118483743D01*
X142657286Y-118374886D01*
X142693572Y-118229743D01*
X142729857Y-118157171D01*
X142802429Y-118084600D01*
X142911286Y-118048314D01*
X142983857Y-118048314D01*
X143092714Y-118084600D01*
X143129000Y-118120886D01*
X143564429Y-118374886D02*
X143491857Y-118338600D01*
X143455572Y-118302314D01*
X143419286Y-118229743D01*
X143419286Y-118193457D01*
X143455572Y-118120886D01*
X143491857Y-118084600D01*
X143564429Y-118048314D01*
X143709572Y-118048314D01*
X143782143Y-118084600D01*
X143818429Y-118120886D01*
X143854714Y-118193457D01*
X143854714Y-118229743D01*
X143818429Y-118302314D01*
X143782143Y-118338600D01*
X143709572Y-118374886D01*
X143564429Y-118374886D01*
X143491857Y-118411171D01*
X143455572Y-118447457D01*
X143419286Y-118520029D01*
X143419286Y-118665171D01*
X143455572Y-118737743D01*
X143491857Y-118774029D01*
X143564429Y-118810314D01*
X143709572Y-118810314D01*
X143782143Y-118774029D01*
X143818429Y-118737743D01*
X143854714Y-118665171D01*
X143854714Y-118520029D01*
X143818429Y-118447457D01*
X143782143Y-118411171D01*
X143709572Y-118374886D01*
X157759400Y-116096143D02*
X157723114Y-116132429D01*
X157614257Y-116168714D01*
X157541686Y-116168714D01*
X157432829Y-116132429D01*
X157360257Y-116059857D01*
X157323972Y-115987286D01*
X157287686Y-115842143D01*
X157287686Y-115733286D01*
X157323972Y-115588143D01*
X157360257Y-115515571D01*
X157432829Y-115443000D01*
X157541686Y-115406714D01*
X157614257Y-115406714D01*
X157723114Y-115443000D01*
X157759400Y-115479286D01*
X158122257Y-116168714D02*
X158267400Y-116168714D01*
X158339972Y-116132429D01*
X158376257Y-116096143D01*
X158448829Y-115987286D01*
X158485114Y-115842143D01*
X158485114Y-115551857D01*
X158448829Y-115479286D01*
X158412543Y-115443000D01*
X158339972Y-115406714D01*
X158194829Y-115406714D01*
X158122257Y-115443000D01*
X158085972Y-115479286D01*
X158049686Y-115551857D01*
X158049686Y-115733286D01*
X158085972Y-115805857D01*
X158122257Y-115842143D01*
X158194829Y-115878429D01*
X158339972Y-115878429D01*
X158412543Y-115842143D01*
X158448829Y-115805857D01*
X158485114Y-115733286D01*
X153942143Y-114876943D02*
X153905857Y-114913229D01*
X153797000Y-114949514D01*
X153724429Y-114949514D01*
X153615572Y-114913229D01*
X153543000Y-114840657D01*
X153506715Y-114768086D01*
X153470429Y-114622943D01*
X153470429Y-114514086D01*
X153506715Y-114368943D01*
X153543000Y-114296371D01*
X153615572Y-114223800D01*
X153724429Y-114187514D01*
X153797000Y-114187514D01*
X153905857Y-114223800D01*
X153942143Y-114260086D01*
X154667857Y-114949514D02*
X154232429Y-114949514D01*
X154450143Y-114949514D02*
X154450143Y-114187514D01*
X154377572Y-114296371D01*
X154305000Y-114368943D01*
X154232429Y-114405229D01*
X155139571Y-114187514D02*
X155212143Y-114187514D01*
X155284714Y-114223800D01*
X155321000Y-114260086D01*
X155357286Y-114332657D01*
X155393571Y-114477800D01*
X155393571Y-114659229D01*
X155357286Y-114804371D01*
X155321000Y-114876943D01*
X155284714Y-114913229D01*
X155212143Y-114949514D01*
X155139571Y-114949514D01*
X155067000Y-114913229D01*
X155030714Y-114876943D01*
X154994429Y-114804371D01*
X154958143Y-114659229D01*
X154958143Y-114477800D01*
X154994429Y-114332657D01*
X155030714Y-114260086D01*
X155067000Y-114223800D01*
X155139571Y-114187514D01*
X201897343Y-97604943D02*
X201861057Y-97641229D01*
X201752200Y-97677514D01*
X201679629Y-97677514D01*
X201570772Y-97641229D01*
X201498200Y-97568657D01*
X201461915Y-97496086D01*
X201425629Y-97350943D01*
X201425629Y-97242086D01*
X201461915Y-97096943D01*
X201498200Y-97024371D01*
X201570772Y-96951800D01*
X201679629Y-96915514D01*
X201752200Y-96915514D01*
X201861057Y-96951800D01*
X201897343Y-96988086D01*
X202623057Y-97677514D02*
X202187629Y-97677514D01*
X202405343Y-97677514D02*
X202405343Y-96915514D01*
X202332772Y-97024371D01*
X202260200Y-97096943D01*
X202187629Y-97133229D01*
X203348771Y-97677514D02*
X202913343Y-97677514D01*
X203131057Y-97677514D02*
X203131057Y-96915514D01*
X203058486Y-97024371D01*
X202985914Y-97096943D01*
X202913343Y-97133229D01*
X193972543Y-96588943D02*
X193936257Y-96625229D01*
X193827400Y-96661514D01*
X193754829Y-96661514D01*
X193645972Y-96625229D01*
X193573400Y-96552657D01*
X193537115Y-96480086D01*
X193500829Y-96334943D01*
X193500829Y-96226086D01*
X193537115Y-96080943D01*
X193573400Y-96008371D01*
X193645972Y-95935800D01*
X193754829Y-95899514D01*
X193827400Y-95899514D01*
X193936257Y-95935800D01*
X193972543Y-95972086D01*
X194698257Y-96661514D02*
X194262829Y-96661514D01*
X194480543Y-96661514D02*
X194480543Y-95899514D01*
X194407972Y-96008371D01*
X194335400Y-96080943D01*
X194262829Y-96117229D01*
X194988543Y-95972086D02*
X195024829Y-95935800D01*
X195097400Y-95899514D01*
X195278829Y-95899514D01*
X195351400Y-95935800D01*
X195387686Y-95972086D01*
X195423971Y-96044657D01*
X195423971Y-96117229D01*
X195387686Y-96226086D01*
X194952257Y-96661514D01*
X195423971Y-96661514D01*
X202579514Y-91490799D02*
X203123800Y-91490799D01*
X203232657Y-91527085D01*
X203305229Y-91599656D01*
X203341514Y-91708513D01*
X203341514Y-91781085D01*
X202652086Y-91164228D02*
X202615800Y-91127942D01*
X202579514Y-91055371D01*
X202579514Y-90873942D01*
X202615800Y-90801371D01*
X202652086Y-90765085D01*
X202724657Y-90728800D01*
X202797229Y-90728800D01*
X202906086Y-90765085D01*
X203341514Y-91200514D01*
X203341514Y-90728800D01*
X165354001Y-101589114D02*
X165354001Y-102133400D01*
X165317715Y-102242257D01*
X165245144Y-102314829D01*
X165136287Y-102351114D01*
X165063715Y-102351114D01*
X165644286Y-101589114D02*
X166116000Y-101589114D01*
X165862000Y-101879400D01*
X165970858Y-101879400D01*
X166043429Y-101915686D01*
X166079715Y-101951971D01*
X166116000Y-102024543D01*
X166116000Y-102205971D01*
X166079715Y-102278543D01*
X166043429Y-102314829D01*
X165970858Y-102351114D01*
X165753143Y-102351114D01*
X165680572Y-102314829D01*
X165644286Y-102278543D01*
X202376314Y-104089199D02*
X202920600Y-104089199D01*
X203029457Y-104125485D01*
X203102029Y-104198056D01*
X203138314Y-104306913D01*
X203138314Y-104379485D01*
X202630314Y-103399771D02*
X203138314Y-103399771D01*
X202340029Y-103581200D02*
X202884314Y-103762628D01*
X202884314Y-103290914D01*
X171746001Y-120082714D02*
X171746001Y-120627000D01*
X171709715Y-120735857D01*
X171637144Y-120808429D01*
X171528287Y-120844714D01*
X171455715Y-120844714D01*
X172471715Y-120082714D02*
X172108858Y-120082714D01*
X172072572Y-120445571D01*
X172108858Y-120409286D01*
X172181429Y-120373000D01*
X172362858Y-120373000D01*
X172435429Y-120409286D01*
X172471715Y-120445571D01*
X172508000Y-120518143D01*
X172508000Y-120699571D01*
X172471715Y-120772143D01*
X172435429Y-120808429D01*
X172362858Y-120844714D01*
X172181429Y-120844714D01*
X172108858Y-120808429D01*
X172072572Y-120772143D01*
X127217714Y-114481428D02*
X126455714Y-114481428D01*
X126455714Y-114191143D01*
X126492000Y-114118571D01*
X126528286Y-114082286D01*
X126600857Y-114046000D01*
X126709714Y-114046000D01*
X126782286Y-114082286D01*
X126818571Y-114118571D01*
X126854857Y-114191143D01*
X126854857Y-114481428D01*
X127217714Y-113320286D02*
X127217714Y-113755714D01*
X127217714Y-113538000D02*
X126455714Y-113538000D01*
X126564571Y-113610571D01*
X126637143Y-113683143D01*
X126673429Y-113755714D01*
X118962714Y-114481428D02*
X118200714Y-114481428D01*
X118200714Y-114191143D01*
X118237000Y-114118571D01*
X118273286Y-114082286D01*
X118345857Y-114046000D01*
X118454714Y-114046000D01*
X118527286Y-114082286D01*
X118563571Y-114118571D01*
X118599857Y-114191143D01*
X118599857Y-114481428D01*
X118273286Y-113755714D02*
X118237000Y-113719428D01*
X118200714Y-113646857D01*
X118200714Y-113465428D01*
X118237000Y-113392857D01*
X118273286Y-113356571D01*
X118345857Y-113320286D01*
X118418429Y-113320286D01*
X118527286Y-113356571D01*
X118962714Y-113792000D01*
X118962714Y-113320286D01*
X115437572Y-99844714D02*
X115437572Y-99082714D01*
X115727857Y-99082714D01*
X115800429Y-99119000D01*
X115836714Y-99155286D01*
X115873000Y-99227857D01*
X115873000Y-99336714D01*
X115836714Y-99409286D01*
X115800429Y-99445571D01*
X115727857Y-99481857D01*
X115437572Y-99481857D01*
X116127000Y-99082714D02*
X116598714Y-99082714D01*
X116344714Y-99373000D01*
X116453572Y-99373000D01*
X116526143Y-99409286D01*
X116562429Y-99445571D01*
X116598714Y-99518143D01*
X116598714Y-99699571D01*
X116562429Y-99772143D01*
X116526143Y-99808429D01*
X116453572Y-99844714D01*
X116235857Y-99844714D01*
X116163286Y-99808429D01*
X116127000Y-99772143D01*
X129216714Y-92562428D02*
X128454714Y-92562428D01*
X128454714Y-92272143D01*
X128491000Y-92199571D01*
X128527286Y-92163286D01*
X128599857Y-92127000D01*
X128708714Y-92127000D01*
X128781286Y-92163286D01*
X128817571Y-92199571D01*
X128853857Y-92272143D01*
X128853857Y-92562428D01*
X128708714Y-91473857D02*
X129216714Y-91473857D01*
X128418429Y-91655286D02*
X128962714Y-91836714D01*
X128962714Y-91365000D01*
X148818600Y-87111114D02*
X148564600Y-86748257D01*
X148383172Y-87111114D02*
X148383172Y-86349114D01*
X148673457Y-86349114D01*
X148746029Y-86385400D01*
X148782314Y-86421686D01*
X148818600Y-86494257D01*
X148818600Y-86603114D01*
X148782314Y-86675686D01*
X148746029Y-86711971D01*
X148673457Y-86748257D01*
X148383172Y-86748257D01*
X149544314Y-87111114D02*
X149108886Y-87111114D01*
X149326600Y-87111114D02*
X149326600Y-86349114D01*
X149254029Y-86457971D01*
X149181457Y-86530543D01*
X149108886Y-86566829D01*
X152882600Y-87111114D02*
X152628600Y-86748257D01*
X152447172Y-87111114D02*
X152447172Y-86349114D01*
X152737457Y-86349114D01*
X152810029Y-86385400D01*
X152846314Y-86421686D01*
X152882600Y-86494257D01*
X152882600Y-86603114D01*
X152846314Y-86675686D01*
X152810029Y-86711971D01*
X152737457Y-86748257D01*
X152447172Y-86748257D01*
X153172886Y-86421686D02*
X153209172Y-86385400D01*
X153281743Y-86349114D01*
X153463172Y-86349114D01*
X153535743Y-86385400D01*
X153572029Y-86421686D01*
X153608314Y-86494257D01*
X153608314Y-86566829D01*
X153572029Y-86675686D01*
X153136600Y-87111114D01*
X153608314Y-87111114D01*
X156946600Y-87111114D02*
X156692600Y-86748257D01*
X156511172Y-87111114D02*
X156511172Y-86349114D01*
X156801457Y-86349114D01*
X156874029Y-86385400D01*
X156910314Y-86421686D01*
X156946600Y-86494257D01*
X156946600Y-86603114D01*
X156910314Y-86675686D01*
X156874029Y-86711971D01*
X156801457Y-86748257D01*
X156511172Y-86748257D01*
X157200600Y-86349114D02*
X157672314Y-86349114D01*
X157418314Y-86639400D01*
X157527172Y-86639400D01*
X157599743Y-86675686D01*
X157636029Y-86711971D01*
X157672314Y-86784543D01*
X157672314Y-86965971D01*
X157636029Y-87038543D01*
X157599743Y-87074829D01*
X157527172Y-87111114D01*
X157309457Y-87111114D01*
X157236886Y-87074829D01*
X157200600Y-87038543D01*
X123344714Y-98627000D02*
X122981857Y-98881000D01*
X123344714Y-99062428D02*
X122582714Y-99062428D01*
X122582714Y-98772143D01*
X122619000Y-98699571D01*
X122655286Y-98663286D01*
X122727857Y-98627000D01*
X122836714Y-98627000D01*
X122909286Y-98663286D01*
X122945571Y-98699571D01*
X122981857Y-98772143D01*
X122981857Y-99062428D01*
X122836714Y-97973857D02*
X123344714Y-97973857D01*
X122546429Y-98155286D02*
X123090714Y-98336714D01*
X123090714Y-97865000D01*
X119873000Y-85344714D02*
X119619000Y-84981857D01*
X119437572Y-85344714D02*
X119437572Y-84582714D01*
X119727857Y-84582714D01*
X119800429Y-84619000D01*
X119836714Y-84655286D01*
X119873000Y-84727857D01*
X119873000Y-84836714D01*
X119836714Y-84909286D01*
X119800429Y-84945571D01*
X119727857Y-84981857D01*
X119437572Y-84981857D01*
X120562429Y-84582714D02*
X120199572Y-84582714D01*
X120163286Y-84945571D01*
X120199572Y-84909286D01*
X120272143Y-84873000D01*
X120453572Y-84873000D01*
X120526143Y-84909286D01*
X120562429Y-84945571D01*
X120598714Y-85018143D01*
X120598714Y-85199571D01*
X120562429Y-85272143D01*
X120526143Y-85308429D01*
X120453572Y-85344714D01*
X120272143Y-85344714D01*
X120199572Y-85308429D01*
X120163286Y-85272143D01*
X160604200Y-87111114D02*
X160350200Y-86748257D01*
X160168772Y-87111114D02*
X160168772Y-86349114D01*
X160459057Y-86349114D01*
X160531629Y-86385400D01*
X160567914Y-86421686D01*
X160604200Y-86494257D01*
X160604200Y-86603114D01*
X160567914Y-86675686D01*
X160531629Y-86711971D01*
X160459057Y-86748257D01*
X160168772Y-86748257D01*
X161257343Y-86349114D02*
X161112200Y-86349114D01*
X161039629Y-86385400D01*
X161003343Y-86421686D01*
X160930772Y-86530543D01*
X160894486Y-86675686D01*
X160894486Y-86965971D01*
X160930772Y-87038543D01*
X160967057Y-87074829D01*
X161039629Y-87111114D01*
X161184772Y-87111114D01*
X161257343Y-87074829D01*
X161293629Y-87038543D01*
X161329914Y-86965971D01*
X161329914Y-86784543D01*
X161293629Y-86711971D01*
X161257343Y-86675686D01*
X161184772Y-86639400D01*
X161039629Y-86639400D01*
X160967057Y-86675686D01*
X160930772Y-86711971D01*
X160894486Y-86784543D01*
X125344714Y-98627000D02*
X124981857Y-98881000D01*
X125344714Y-99062428D02*
X124582714Y-99062428D01*
X124582714Y-98772143D01*
X124619000Y-98699571D01*
X124655286Y-98663286D01*
X124727857Y-98627000D01*
X124836714Y-98627000D01*
X124909286Y-98663286D01*
X124945571Y-98699571D01*
X124981857Y-98772143D01*
X124981857Y-99062428D01*
X124582714Y-98373000D02*
X124582714Y-97865000D01*
X125344714Y-98191571D01*
X164465000Y-87111114D02*
X164211000Y-86748257D01*
X164029572Y-87111114D02*
X164029572Y-86349114D01*
X164319857Y-86349114D01*
X164392429Y-86385400D01*
X164428714Y-86421686D01*
X164465000Y-86494257D01*
X164465000Y-86603114D01*
X164428714Y-86675686D01*
X164392429Y-86711971D01*
X164319857Y-86748257D01*
X164029572Y-86748257D01*
X164900429Y-86675686D02*
X164827857Y-86639400D01*
X164791572Y-86603114D01*
X164755286Y-86530543D01*
X164755286Y-86494257D01*
X164791572Y-86421686D01*
X164827857Y-86385400D01*
X164900429Y-86349114D01*
X165045572Y-86349114D01*
X165118143Y-86385400D01*
X165154429Y-86421686D01*
X165190714Y-86494257D01*
X165190714Y-86530543D01*
X165154429Y-86603114D01*
X165118143Y-86639400D01*
X165045572Y-86675686D01*
X164900429Y-86675686D01*
X164827857Y-86711971D01*
X164791572Y-86748257D01*
X164755286Y-86820829D01*
X164755286Y-86965971D01*
X164791572Y-87038543D01*
X164827857Y-87074829D01*
X164900429Y-87111114D01*
X165045572Y-87111114D01*
X165118143Y-87074829D01*
X165154429Y-87038543D01*
X165190714Y-86965971D01*
X165190714Y-86820829D01*
X165154429Y-86748257D01*
X165118143Y-86711971D01*
X165045572Y-86675686D01*
X168732200Y-87111114D02*
X168478200Y-86748257D01*
X168296772Y-87111114D02*
X168296772Y-86349114D01*
X168587057Y-86349114D01*
X168659629Y-86385400D01*
X168695914Y-86421686D01*
X168732200Y-86494257D01*
X168732200Y-86603114D01*
X168695914Y-86675686D01*
X168659629Y-86711971D01*
X168587057Y-86748257D01*
X168296772Y-86748257D01*
X169095057Y-87111114D02*
X169240200Y-87111114D01*
X169312772Y-87074829D01*
X169349057Y-87038543D01*
X169421629Y-86929686D01*
X169457914Y-86784543D01*
X169457914Y-86494257D01*
X169421629Y-86421686D01*
X169385343Y-86385400D01*
X169312772Y-86349114D01*
X169167629Y-86349114D01*
X169095057Y-86385400D01*
X169058772Y-86421686D01*
X169022486Y-86494257D01*
X169022486Y-86675686D01*
X169058772Y-86748257D01*
X169095057Y-86784543D01*
X169167629Y-86820829D01*
X169312772Y-86820829D01*
X169385343Y-86784543D01*
X169421629Y-86748257D01*
X169457914Y-86675686D01*
X172230143Y-87111114D02*
X171976143Y-86748257D01*
X171794715Y-87111114D02*
X171794715Y-86349114D01*
X172085000Y-86349114D01*
X172157572Y-86385400D01*
X172193857Y-86421686D01*
X172230143Y-86494257D01*
X172230143Y-86603114D01*
X172193857Y-86675686D01*
X172157572Y-86711971D01*
X172085000Y-86748257D01*
X171794715Y-86748257D01*
X172955857Y-87111114D02*
X172520429Y-87111114D01*
X172738143Y-87111114D02*
X172738143Y-86349114D01*
X172665572Y-86457971D01*
X172593000Y-86530543D01*
X172520429Y-86566829D01*
X173427571Y-86349114D02*
X173500143Y-86349114D01*
X173572714Y-86385400D01*
X173609000Y-86421686D01*
X173645286Y-86494257D01*
X173681571Y-86639400D01*
X173681571Y-86820829D01*
X173645286Y-86965971D01*
X173609000Y-87038543D01*
X173572714Y-87074829D01*
X173500143Y-87111114D01*
X173427571Y-87111114D01*
X173355000Y-87074829D01*
X173318714Y-87038543D01*
X173282429Y-86965971D01*
X173246143Y-86820829D01*
X173246143Y-86639400D01*
X173282429Y-86494257D01*
X173318714Y-86421686D01*
X173355000Y-86385400D01*
X173427571Y-86349114D01*
X162273343Y-93003914D02*
X162019343Y-92641057D01*
X161837915Y-93003914D02*
X161837915Y-92241914D01*
X162128200Y-92241914D01*
X162200772Y-92278200D01*
X162237057Y-92314486D01*
X162273343Y-92387057D01*
X162273343Y-92495914D01*
X162237057Y-92568486D01*
X162200772Y-92604771D01*
X162128200Y-92641057D01*
X161837915Y-92641057D01*
X162999057Y-93003914D02*
X162563629Y-93003914D01*
X162781343Y-93003914D02*
X162781343Y-92241914D01*
X162708772Y-92350771D01*
X162636200Y-92423343D01*
X162563629Y-92459629D01*
X163724771Y-93003914D02*
X163289343Y-93003914D01*
X163507057Y-93003914D02*
X163507057Y-92241914D01*
X163434486Y-92350771D01*
X163361914Y-92423343D01*
X163289343Y-92459629D01*
X164305343Y-100928714D02*
X164051343Y-100565857D01*
X163869915Y-100928714D02*
X163869915Y-100166714D01*
X164160200Y-100166714D01*
X164232772Y-100203000D01*
X164269057Y-100239286D01*
X164305343Y-100311857D01*
X164305343Y-100420714D01*
X164269057Y-100493286D01*
X164232772Y-100529571D01*
X164160200Y-100565857D01*
X163869915Y-100565857D01*
X165031057Y-100928714D02*
X164595629Y-100928714D01*
X164813343Y-100928714D02*
X164813343Y-100166714D01*
X164740772Y-100275571D01*
X164668200Y-100348143D01*
X164595629Y-100384429D01*
X165321343Y-100239286D02*
X165357629Y-100203000D01*
X165430200Y-100166714D01*
X165611629Y-100166714D01*
X165684200Y-100203000D01*
X165720486Y-100239286D01*
X165756771Y-100311857D01*
X165756771Y-100384429D01*
X165720486Y-100493286D01*
X165285057Y-100928714D01*
X165756771Y-100928714D01*
X147642943Y-122264714D02*
X147388943Y-121901857D01*
X147207515Y-122264714D02*
X147207515Y-121502714D01*
X147497800Y-121502714D01*
X147570372Y-121539000D01*
X147606657Y-121575286D01*
X147642943Y-121647857D01*
X147642943Y-121756714D01*
X147606657Y-121829286D01*
X147570372Y-121865571D01*
X147497800Y-121901857D01*
X147207515Y-121901857D01*
X148368657Y-122264714D02*
X147933229Y-122264714D01*
X148150943Y-122264714D02*
X148150943Y-121502714D01*
X148078372Y-121611571D01*
X148005800Y-121684143D01*
X147933229Y-121720429D01*
X148622657Y-121502714D02*
X149094371Y-121502714D01*
X148840371Y-121793000D01*
X148949229Y-121793000D01*
X149021800Y-121829286D01*
X149058086Y-121865571D01*
X149094371Y-121938143D01*
X149094371Y-122119571D01*
X149058086Y-122192143D01*
X149021800Y-122228429D01*
X148949229Y-122264714D01*
X148731514Y-122264714D01*
X148658943Y-122228429D01*
X148622657Y-122192143D01*
X141010143Y-123344714D02*
X140756143Y-122981857D01*
X140574715Y-123344714D02*
X140574715Y-122582714D01*
X140865000Y-122582714D01*
X140937572Y-122619000D01*
X140973857Y-122655286D01*
X141010143Y-122727857D01*
X141010143Y-122836714D01*
X140973857Y-122909286D01*
X140937572Y-122945571D01*
X140865000Y-122981857D01*
X140574715Y-122981857D01*
X141735857Y-123344714D02*
X141300429Y-123344714D01*
X141518143Y-123344714D02*
X141518143Y-122582714D01*
X141445572Y-122691571D01*
X141373000Y-122764143D01*
X141300429Y-122800429D01*
X142389000Y-122836714D02*
X142389000Y-123344714D01*
X142207571Y-122546429D02*
X142026143Y-123090714D01*
X142497857Y-123090714D01*
X140844714Y-106989857D02*
X140481857Y-107243857D01*
X140844714Y-107425285D02*
X140082714Y-107425285D01*
X140082714Y-107135000D01*
X140119000Y-107062428D01*
X140155286Y-107026143D01*
X140227857Y-106989857D01*
X140336714Y-106989857D01*
X140409286Y-107026143D01*
X140445571Y-107062428D01*
X140481857Y-107135000D01*
X140481857Y-107425285D01*
X140844714Y-106264143D02*
X140844714Y-106699571D01*
X140844714Y-106481857D02*
X140082714Y-106481857D01*
X140191571Y-106554428D01*
X140264143Y-106627000D01*
X140300429Y-106699571D01*
X140082714Y-105574714D02*
X140082714Y-105937571D01*
X140445571Y-105973857D01*
X140409286Y-105937571D01*
X140373000Y-105865000D01*
X140373000Y-105683571D01*
X140409286Y-105611000D01*
X140445571Y-105574714D01*
X140518143Y-105538429D01*
X140699571Y-105538429D01*
X140772143Y-105574714D01*
X140808429Y-105611000D01*
X140844714Y-105683571D01*
X140844714Y-105865000D01*
X140808429Y-105937571D01*
X140772143Y-105973857D01*
X139844714Y-118989857D02*
X139481857Y-119243857D01*
X139844714Y-119425285D02*
X139082714Y-119425285D01*
X139082714Y-119135000D01*
X139119000Y-119062428D01*
X139155286Y-119026143D01*
X139227857Y-118989857D01*
X139336714Y-118989857D01*
X139409286Y-119026143D01*
X139445571Y-119062428D01*
X139481857Y-119135000D01*
X139481857Y-119425285D01*
X139844714Y-118264143D02*
X139844714Y-118699571D01*
X139844714Y-118481857D02*
X139082714Y-118481857D01*
X139191571Y-118554428D01*
X139264143Y-118627000D01*
X139300429Y-118699571D01*
X139082714Y-117611000D02*
X139082714Y-117756143D01*
X139119000Y-117828714D01*
X139155286Y-117865000D01*
X139264143Y-117937571D01*
X139409286Y-117973857D01*
X139699571Y-117973857D01*
X139772143Y-117937571D01*
X139808429Y-117901286D01*
X139844714Y-117828714D01*
X139844714Y-117683571D01*
X139808429Y-117611000D01*
X139772143Y-117574714D01*
X139699571Y-117538429D01*
X139518143Y-117538429D01*
X139445571Y-117574714D01*
X139409286Y-117611000D01*
X139373000Y-117683571D01*
X139373000Y-117828714D01*
X139409286Y-117901286D01*
X139445571Y-117937571D01*
X139518143Y-117973857D01*
X139844714Y-110489857D02*
X139481857Y-110743857D01*
X139844714Y-110925285D02*
X139082714Y-110925285D01*
X139082714Y-110635000D01*
X139119000Y-110562428D01*
X139155286Y-110526143D01*
X139227857Y-110489857D01*
X139336714Y-110489857D01*
X139409286Y-110526143D01*
X139445571Y-110562428D01*
X139481857Y-110635000D01*
X139481857Y-110925285D01*
X139844714Y-109764143D02*
X139844714Y-110199571D01*
X139844714Y-109981857D02*
X139082714Y-109981857D01*
X139191571Y-110054428D01*
X139264143Y-110127000D01*
X139300429Y-110199571D01*
X139082714Y-109510143D02*
X139082714Y-109002143D01*
X139844714Y-109328714D01*
X198464714Y-109201857D02*
X198101857Y-109455857D01*
X198464714Y-109637285D02*
X197702714Y-109637285D01*
X197702714Y-109347000D01*
X197739000Y-109274428D01*
X197775286Y-109238143D01*
X197847857Y-109201857D01*
X197956714Y-109201857D01*
X198029286Y-109238143D01*
X198065571Y-109274428D01*
X198101857Y-109347000D01*
X198101857Y-109637285D01*
X198464714Y-108476143D02*
X198464714Y-108911571D01*
X198464714Y-108693857D02*
X197702714Y-108693857D01*
X197811571Y-108766428D01*
X197884143Y-108839000D01*
X197920429Y-108911571D01*
X198029286Y-108040714D02*
X197993000Y-108113286D01*
X197956714Y-108149571D01*
X197884143Y-108185857D01*
X197847857Y-108185857D01*
X197775286Y-108149571D01*
X197739000Y-108113286D01*
X197702714Y-108040714D01*
X197702714Y-107895571D01*
X197739000Y-107823000D01*
X197775286Y-107786714D01*
X197847857Y-107750429D01*
X197884143Y-107750429D01*
X197956714Y-107786714D01*
X197993000Y-107823000D01*
X198029286Y-107895571D01*
X198029286Y-108040714D01*
X198065571Y-108113286D01*
X198101857Y-108149571D01*
X198174429Y-108185857D01*
X198319571Y-108185857D01*
X198392143Y-108149571D01*
X198428429Y-108113286D01*
X198464714Y-108040714D01*
X198464714Y-107895571D01*
X198428429Y-107823000D01*
X198392143Y-107786714D01*
X198319571Y-107750429D01*
X198174429Y-107750429D01*
X198101857Y-107786714D01*
X198065571Y-107823000D01*
X198029286Y-107895571D01*
X161663743Y-108853514D02*
X161409743Y-108490657D01*
X161228315Y-108853514D02*
X161228315Y-108091514D01*
X161518600Y-108091514D01*
X161591172Y-108127800D01*
X161627457Y-108164086D01*
X161663743Y-108236657D01*
X161663743Y-108345514D01*
X161627457Y-108418086D01*
X161591172Y-108454371D01*
X161518600Y-108490657D01*
X161228315Y-108490657D01*
X162389457Y-108853514D02*
X161954029Y-108853514D01*
X162171743Y-108853514D02*
X162171743Y-108091514D01*
X162099172Y-108200371D01*
X162026600Y-108272943D01*
X161954029Y-108309229D01*
X162752314Y-108853514D02*
X162897457Y-108853514D01*
X162970029Y-108817229D01*
X163006314Y-108780943D01*
X163078886Y-108672086D01*
X163115171Y-108526943D01*
X163115171Y-108236657D01*
X163078886Y-108164086D01*
X163042600Y-108127800D01*
X162970029Y-108091514D01*
X162824886Y-108091514D01*
X162752314Y-108127800D01*
X162716029Y-108164086D01*
X162679743Y-108236657D01*
X162679743Y-108418086D01*
X162716029Y-108490657D01*
X162752314Y-108526943D01*
X162824886Y-108563229D01*
X162970029Y-108563229D01*
X163042600Y-108526943D01*
X163078886Y-108490657D01*
X163115171Y-108418086D01*
X168572543Y-93410314D02*
X168318543Y-93047457D01*
X168137115Y-93410314D02*
X168137115Y-92648314D01*
X168427400Y-92648314D01*
X168499972Y-92684600D01*
X168536257Y-92720886D01*
X168572543Y-92793457D01*
X168572543Y-92902314D01*
X168536257Y-92974886D01*
X168499972Y-93011171D01*
X168427400Y-93047457D01*
X168137115Y-93047457D01*
X168862829Y-92720886D02*
X168899115Y-92684600D01*
X168971686Y-92648314D01*
X169153115Y-92648314D01*
X169225686Y-92684600D01*
X169261972Y-92720886D01*
X169298257Y-92793457D01*
X169298257Y-92866029D01*
X169261972Y-92974886D01*
X168826543Y-93410314D01*
X169298257Y-93410314D01*
X169769971Y-92648314D02*
X169842543Y-92648314D01*
X169915114Y-92684600D01*
X169951400Y-92720886D01*
X169987686Y-92793457D01*
X170023971Y-92938600D01*
X170023971Y-93120029D01*
X169987686Y-93265171D01*
X169951400Y-93337743D01*
X169915114Y-93374029D01*
X169842543Y-93410314D01*
X169769971Y-93410314D01*
X169697400Y-93374029D01*
X169661114Y-93337743D01*
X169624829Y-93265171D01*
X169588543Y-93120029D01*
X169588543Y-92938600D01*
X169624829Y-92793457D01*
X169661114Y-92720886D01*
X169697400Y-92684600D01*
X169769971Y-92648314D01*
X196919429Y-115308429D02*
X197028286Y-115344714D01*
X197209715Y-115344714D01*
X197282286Y-115308429D01*
X197318572Y-115272143D01*
X197354857Y-115199571D01*
X197354857Y-115127000D01*
X197318572Y-115054429D01*
X197282286Y-115018143D01*
X197209715Y-114981857D01*
X197064572Y-114945571D01*
X196992000Y-114909286D01*
X196955715Y-114873000D01*
X196919429Y-114800429D01*
X196919429Y-114727857D01*
X196955715Y-114655286D01*
X196992000Y-114619000D01*
X197064572Y-114582714D01*
X197246000Y-114582714D01*
X197354857Y-114619000D01*
X198080571Y-115344714D02*
X197645143Y-115344714D01*
X197862857Y-115344714D02*
X197862857Y-114582714D01*
X197790286Y-114691571D01*
X197717714Y-114764143D01*
X197645143Y-114800429D01*
X199952429Y-108802714D02*
X200387858Y-108802714D01*
X200170144Y-109564714D02*
X200170144Y-108802714D01*
X200641858Y-109564714D02*
X200641858Y-108802714D01*
X200932143Y-108802714D01*
X201004715Y-108839000D01*
X201041000Y-108875286D01*
X201077286Y-108947857D01*
X201077286Y-109056714D01*
X201041000Y-109129286D01*
X201004715Y-109165571D01*
X200932143Y-109201857D01*
X200641858Y-109201857D01*
X201803000Y-109564714D02*
X201367572Y-109564714D01*
X201585286Y-109564714D02*
X201585286Y-108802714D01*
X201512715Y-108911571D01*
X201440143Y-108984143D01*
X201367572Y-109020429D01*
X191443429Y-81675514D02*
X191443429Y-82292371D01*
X191479714Y-82364943D01*
X191516000Y-82401229D01*
X191588571Y-82437514D01*
X191733714Y-82437514D01*
X191806286Y-82401229D01*
X191842571Y-82364943D01*
X191878857Y-82292371D01*
X191878857Y-81675514D01*
X192640857Y-82437514D02*
X192205429Y-82437514D01*
X192423143Y-82437514D02*
X192423143Y-81675514D01*
X192350572Y-81784371D01*
X192278000Y-81856943D01*
X192205429Y-81893229D01*
X153582714Y-114080571D02*
X154199571Y-114080571D01*
X154272143Y-114044286D01*
X154308429Y-114008000D01*
X154344714Y-113935429D01*
X154344714Y-113790286D01*
X154308429Y-113717714D01*
X154272143Y-113681429D01*
X154199571Y-113645143D01*
X153582714Y-113645143D01*
X153655286Y-113318571D02*
X153619000Y-113282285D01*
X153582714Y-113209714D01*
X153582714Y-113028285D01*
X153619000Y-112955714D01*
X153655286Y-112919428D01*
X153727857Y-112883143D01*
X153800429Y-112883143D01*
X153909286Y-112919428D01*
X154344714Y-113354857D01*
X154344714Y-112883143D01*
X171582714Y-114580571D02*
X172199571Y-114580571D01*
X172272143Y-114544286D01*
X172308429Y-114508000D01*
X172344714Y-114435429D01*
X172344714Y-114290286D01*
X172308429Y-114217714D01*
X172272143Y-114181429D01*
X172199571Y-114145143D01*
X171582714Y-114145143D01*
X171582714Y-113854857D02*
X171582714Y-113383143D01*
X171873000Y-113637143D01*
X171873000Y-113528285D01*
X171909286Y-113455714D01*
X171945571Y-113419428D01*
X172018143Y-113383143D01*
X172199571Y-113383143D01*
X172272143Y-113419428D01*
X172308429Y-113455714D01*
X172344714Y-113528285D01*
X172344714Y-113746000D01*
X172308429Y-113818571D01*
X172272143Y-113854857D01*
X147637143Y-98381857D02*
X147637143Y-98744714D01*
X147383143Y-97982714D02*
X147637143Y-98381857D01*
X147891143Y-97982714D01*
X148544286Y-98744714D02*
X148108858Y-98744714D01*
X148326572Y-98744714D02*
X148326572Y-97982714D01*
X148254001Y-98091571D01*
X148181429Y-98164143D01*
X148108858Y-98200429D01*
X139844714Y-114989857D02*
X139481857Y-115243857D01*
X139844714Y-115425285D02*
X139082714Y-115425285D01*
X139082714Y-115135000D01*
X139119000Y-115062428D01*
X139155286Y-115026143D01*
X139227857Y-114989857D01*
X139336714Y-114989857D01*
X139409286Y-115026143D01*
X139445571Y-115062428D01*
X139481857Y-115135000D01*
X139481857Y-115425285D01*
X139155286Y-114699571D02*
X139119000Y-114663285D01*
X139082714Y-114590714D01*
X139082714Y-114409285D01*
X139119000Y-114336714D01*
X139155286Y-114300428D01*
X139227857Y-114264143D01*
X139300429Y-114264143D01*
X139409286Y-114300428D01*
X139844714Y-114735857D01*
X139844714Y-114264143D01*
X139844714Y-113538429D02*
X139844714Y-113973857D01*
X139844714Y-113756143D02*
X139082714Y-113756143D01*
X139191571Y-113828714D01*
X139264143Y-113901286D01*
X139300429Y-113973857D01*
X143746001Y-83392714D02*
X143746001Y-83937000D01*
X143709715Y-84045857D01*
X143637144Y-84118429D01*
X143528287Y-84154714D01*
X143455715Y-84154714D01*
X144508000Y-84154714D02*
X144072572Y-84154714D01*
X144290286Y-84154714D02*
X144290286Y-83392714D01*
X144217715Y-83501571D01*
X144145143Y-83574143D01*
X144072572Y-83610429D01*
X130246001Y-79945571D02*
X129992001Y-79945571D01*
X129992001Y-80344714D02*
X129992001Y-79582714D01*
X130354858Y-79582714D01*
X131044286Y-80344714D02*
X130608858Y-80344714D01*
X130826572Y-80344714D02*
X130826572Y-79582714D01*
X130754001Y-79691571D01*
X130681429Y-79764143D01*
X130608858Y-79800429D01*
X136046429Y-103344714D02*
X135792429Y-102981857D01*
X135611001Y-103344714D02*
X135611001Y-102582714D01*
X135901286Y-102582714D01*
X135973858Y-102619000D01*
X136010143Y-102655286D01*
X136046429Y-102727857D01*
X136046429Y-102836714D01*
X136010143Y-102909286D01*
X135973858Y-102945571D01*
X135901286Y-102981857D01*
X135611001Y-102981857D01*
X136264143Y-102582714D02*
X136518143Y-103344714D01*
X136772143Y-102582714D01*
X137425286Y-103344714D02*
X136989858Y-103344714D01*
X137207572Y-103344714D02*
X137207572Y-102582714D01*
X137135001Y-102691571D01*
X137062429Y-102764143D01*
X136989858Y-102800429D01*
M02*
