G04 #@! TF.FileFunction,Copper,L1,Top,Signal*
%FSLAX46Y46*%
G04 Gerber Fmt 4.6, Leading zero omitted, Abs format (unit mm)*
G04 Created by KiCad (PCBNEW (2015-06-05 BZR 5717)-product) date Tue 11 Aug 2015 19:51:47 PDT*
%MOMM*%
G01*
G04 APERTURE LIST*
%ADD10C,0.152400*%
%ADD11R,1.300000X0.900000*%
%ADD12R,0.800000X0.800000*%
%ADD13R,2.100000X1.400000*%
%ADD14O,2.100000X1.400000*%
%ADD15R,1.524000X1.524000*%
%ADD16C,1.524000*%
%ADD17C,3.048000*%
%ADD18R,0.950000X0.950000*%
%ADD19R,2.700000X6.200000*%
%ADD20R,1.400000X1.100000*%
%ADD21C,1.750000*%
%ADD22R,2.032000X2.032000*%
%ADD23R,1.270000X1.270000*%
%ADD24R,2.032000X3.657600*%
%ADD25R,2.032000X1.016000*%
%ADD26R,0.400000X1.750000*%
%ADD27R,3.500000X1.000000*%
%ADD28R,5.600000X2.100000*%
%ADD29R,1.400000X2.100000*%
%ADD30O,1.400000X2.100000*%
%ADD31C,1.998980*%
%ADD32C,2.500000*%
%ADD33C,0.584200*%
%ADD34C,1.016000*%
%ADD35C,0.203200*%
%ADD36C,0.250000*%
%ADD37C,0.609600*%
%ADD38C,0.254000*%
G04 APERTURE END LIST*
D10*
D11*
X201990000Y-87047500D03*
X201990000Y-88952500D03*
X197990000Y-87047500D03*
X197990000Y-88952500D03*
D12*
X151396000Y-119263000D03*
X152896000Y-119263000D03*
X148094000Y-119263000D03*
X149594000Y-119263000D03*
X161250000Y-96010000D03*
X162750000Y-96010000D03*
X161250000Y-99010000D03*
X162750000Y-99010000D03*
X144792000Y-123200000D03*
X146292000Y-123200000D03*
X146292000Y-119243000D03*
X144792000Y-119243000D03*
X156327000Y-116090000D03*
X156327000Y-117590000D03*
X154549000Y-116090000D03*
X154549000Y-117590000D03*
X202321000Y-95873000D03*
X202321000Y-94373000D03*
X194249200Y-97802000D03*
X194249200Y-99302000D03*
D13*
X207000000Y-86750000D03*
D14*
X207000000Y-89250000D03*
D15*
X164270000Y-104000000D03*
D16*
X161730000Y-104000000D03*
D14*
X207000000Y-98750000D03*
X207000000Y-101250000D03*
D13*
X207000000Y-96250000D03*
D14*
X207000000Y-103750000D03*
X207000000Y-106250000D03*
X207000000Y-108750000D03*
X207000000Y-111250000D03*
X207000000Y-113750000D03*
D15*
X178350000Y-123000000D03*
D16*
X175810000Y-123000000D03*
X173270000Y-123000000D03*
X170730000Y-123000000D03*
X168190000Y-123000000D03*
X165650000Y-123000000D03*
D17*
X131953000Y-116459000D03*
X131953000Y-111379000D03*
X123698000Y-116459000D03*
X123698000Y-111379000D03*
X113952000Y-94540000D03*
X113952000Y-89460000D03*
X133952000Y-94540000D03*
X133952000Y-89460000D03*
D18*
X148275000Y-85010000D03*
X149725000Y-85010000D03*
X152275000Y-85010000D03*
X153725000Y-85010000D03*
X156275000Y-85010000D03*
X157725000Y-85010000D03*
X122962000Y-96725000D03*
X122962000Y-95275000D03*
D19*
X119802000Y-90000000D03*
X128102000Y-90000000D03*
D18*
X160275000Y-85010000D03*
X161725000Y-85010000D03*
X124962000Y-96725000D03*
X124962000Y-95275000D03*
X164275000Y-85010000D03*
X165725000Y-85010000D03*
X168275000Y-85010000D03*
X169725000Y-85010000D03*
X172275000Y-85010000D03*
X173725000Y-85010000D03*
X161275000Y-94010000D03*
X162725000Y-94010000D03*
X161275000Y-101010000D03*
X162725000Y-101010000D03*
X144817000Y-121295000D03*
X146267000Y-121295000D03*
X142457000Y-121275000D03*
X141007000Y-121275000D03*
X142277000Y-106563000D03*
X143727000Y-106563000D03*
D20*
X141214000Y-117616000D03*
X141214000Y-119366000D03*
X141087000Y-109234000D03*
X141087000Y-110984000D03*
D18*
X196586000Y-107987000D03*
X196586000Y-109437000D03*
X161454000Y-106944000D03*
X162904000Y-106944000D03*
X171313000Y-92239000D03*
X171313000Y-93689000D03*
D21*
X195750000Y-116750000D03*
X200250000Y-116750000D03*
X195750000Y-123250000D03*
X200250000Y-123250000D03*
D22*
X200914000Y-112395000D03*
D23*
X150571200Y-106070400D03*
X148945600Y-106070400D03*
X146710400Y-106070400D03*
X152196800Y-106070400D03*
D24*
X188698000Y-87000000D03*
D25*
X195302000Y-87000000D03*
X195302000Y-84714000D03*
X195302000Y-89286000D03*
D26*
X143775000Y-116600000D03*
X144425000Y-116600000D03*
X145075000Y-116600000D03*
X145725000Y-116600000D03*
X146375000Y-116600000D03*
X147025000Y-116600000D03*
X147675000Y-116600000D03*
X148325000Y-116600000D03*
X148975000Y-116600000D03*
X149625000Y-116600000D03*
X150275000Y-116600000D03*
X150925000Y-116600000D03*
X151575000Y-116600000D03*
X152225000Y-116600000D03*
X152225000Y-109400000D03*
X151575000Y-109400000D03*
X150925000Y-109400000D03*
X150275000Y-109400000D03*
X149625000Y-109400000D03*
X148975000Y-109400000D03*
X148325000Y-109400000D03*
X147675000Y-109400000D03*
X147025000Y-109400000D03*
X146375000Y-109400000D03*
X145725000Y-109400000D03*
X145075000Y-109400000D03*
X144425000Y-109400000D03*
X143775000Y-109400000D03*
D27*
X191000000Y-111600000D03*
X191000000Y-109600000D03*
X191000000Y-107600000D03*
X191000000Y-105600000D03*
X191000000Y-103600000D03*
X191000000Y-101600000D03*
X191000000Y-99600000D03*
X191000000Y-97600000D03*
X175000000Y-97600000D03*
X175000000Y-99600000D03*
X175000000Y-101600000D03*
X175000000Y-103600000D03*
X175000000Y-105600000D03*
X175000000Y-107600000D03*
X175000000Y-109600000D03*
X175000000Y-111600000D03*
D28*
X143250000Y-102000000D03*
X152750000Y-102000000D03*
D18*
X141234000Y-115329800D03*
X141234000Y-113879800D03*
D29*
X146500000Y-80000000D03*
D30*
X141500000Y-80000000D03*
D31*
X124000000Y-82540000D03*
X124000000Y-77460000D03*
D32*
X131750000Y-104600000D03*
X124250000Y-101400000D03*
D33*
X143459200Y-119278400D03*
X147929600Y-120497600D03*
X147726400Y-115011200D03*
X154432000Y-119278400D03*
X141020800Y-112572800D03*
X195681600Y-99364800D03*
X194056000Y-109728000D03*
X201777600Y-93065600D03*
X172313600Y-97536000D03*
X199948800Y-89001600D03*
X164185600Y-94081600D03*
X164388800Y-98755200D03*
X141630400Y-99568000D03*
X200500000Y-121000000D03*
X142849600Y-108102400D03*
X142849600Y-114401600D03*
X196697600Y-98552000D03*
X196697600Y-106680000D03*
X155854400Y-114808000D03*
X143662400Y-121310400D03*
X138582400Y-123139200D03*
X151384000Y-123139200D03*
X139192000Y-122529600D03*
X149555200Y-122326400D03*
X169875200Y-104241600D03*
X178206400Y-104648000D03*
X188976000Y-95300800D03*
X178206400Y-107696000D03*
X169875200Y-107696000D03*
X154228800Y-108508800D03*
X154228800Y-112166400D03*
X146507200Y-112166400D03*
X188163200Y-105664000D03*
X195478400Y-105664000D03*
X197713600Y-105664000D03*
X197713600Y-101193600D03*
X169875200Y-105664000D03*
X149352000Y-111150400D03*
X146100800Y-113995200D03*
X171297600Y-103225600D03*
X171297600Y-100584000D03*
X187960000Y-100584000D03*
X204622400Y-100177600D03*
X145491200Y-107899200D03*
X185521600Y-102209600D03*
X144678400Y-107696000D03*
X187350400Y-101600000D03*
X195072000Y-106680000D03*
X166827200Y-119888000D03*
X148539200Y-107696000D03*
X147116800Y-107492800D03*
D34*
X113952000Y-94540000D02*
X113952000Y-98952000D01*
X116400000Y-101400000D02*
X124250000Y-101400000D01*
X113952000Y-98952000D02*
X116400000Y-101400000D01*
D35*
X152225000Y-116600000D02*
X152225000Y-117681000D01*
X152896000Y-118225000D02*
X152896000Y-119263000D01*
X152781000Y-118110000D02*
X152896000Y-118225000D01*
X152654000Y-118110000D02*
X152781000Y-118110000D01*
X152225000Y-117681000D02*
X152654000Y-118110000D01*
X148325000Y-116600000D02*
X148325000Y-117867000D01*
X148094000Y-118098000D02*
X148094000Y-119263000D01*
X148325000Y-117867000D02*
X148094000Y-118098000D01*
X147025000Y-116600000D02*
X148325000Y-116600000D01*
X144425000Y-116600000D02*
X144425000Y-118876000D01*
X144425000Y-118876000D02*
X144792000Y-119243000D01*
D36*
X122962000Y-95275000D02*
X122962000Y-91010000D01*
X121952000Y-90000000D02*
X119802000Y-90000000D01*
X122962000Y-91010000D02*
X121952000Y-90000000D01*
D35*
X143494600Y-119243000D02*
X143459200Y-119278400D01*
X144792000Y-119243000D02*
X143494600Y-119243000D01*
X148094000Y-120333200D02*
X147929600Y-120497600D01*
X148094000Y-119263000D02*
X148094000Y-120333200D01*
X147675000Y-115062600D02*
X147726400Y-115011200D01*
X147675000Y-116600000D02*
X147675000Y-115062600D01*
X154416600Y-119263000D02*
X154432000Y-119278400D01*
X152896000Y-119263000D02*
X154416600Y-119263000D01*
X141087000Y-112506600D02*
X141020800Y-112572800D01*
X141087000Y-110984000D02*
X141087000Y-112506600D01*
X195618800Y-99302000D02*
X195681600Y-99364800D01*
X194249200Y-99302000D02*
X195618800Y-99302000D01*
X193928000Y-109600000D02*
X194056000Y-109728000D01*
X191000000Y-109600000D02*
X193928000Y-109600000D01*
X202321000Y-93609000D02*
X201777600Y-93065600D01*
X202321000Y-94373000D02*
X202321000Y-93609000D01*
X172377600Y-97600000D02*
X172313600Y-97536000D01*
X175000000Y-97600000D02*
X172377600Y-97600000D01*
X199899700Y-88952500D02*
X199948800Y-89001600D01*
X197990000Y-88952500D02*
X199899700Y-88952500D01*
X164114000Y-94010000D02*
X164185600Y-94081600D01*
X162725000Y-94010000D02*
X164114000Y-94010000D01*
X164134000Y-99010000D02*
X164388800Y-98755200D01*
X162750000Y-99010000D02*
X164134000Y-99010000D01*
D34*
X119802000Y-84198000D02*
X121460000Y-82540000D01*
X121460000Y-82540000D02*
X124000000Y-82540000D01*
X119802000Y-90000000D02*
X119802000Y-84198000D01*
X137404000Y-82540000D02*
X139395200Y-84531200D01*
X139395200Y-84531200D02*
X139395200Y-95504000D01*
X139395200Y-95504000D02*
X141630400Y-97739200D01*
X141630400Y-97739200D02*
X141630400Y-99568000D01*
X124000000Y-82540000D02*
X137404000Y-82540000D01*
D35*
X142849600Y-114401600D02*
X142240000Y-115011200D01*
X142240000Y-115011200D02*
X141552600Y-115011200D01*
X141552600Y-115011200D02*
X141234000Y-115329800D01*
X145075000Y-116600000D02*
X145075000Y-117897000D01*
X145542000Y-120570000D02*
X144792000Y-121320000D01*
X145542000Y-118364000D02*
X145542000Y-120570000D01*
X145075000Y-117897000D02*
X145542000Y-118364000D01*
X144792000Y-121320000D02*
X144792000Y-123200000D01*
X142477000Y-121295000D02*
X142457000Y-121275000D01*
D37*
X161340800Y-109118400D02*
X161454000Y-109005200D01*
X161137600Y-109118400D02*
X161340800Y-109118400D01*
X161454000Y-109005200D02*
X161454000Y-106944000D01*
X143677800Y-121295000D02*
X143662400Y-121310400D01*
X144817000Y-121295000D02*
X143677800Y-121295000D01*
X143627000Y-121275000D02*
X143662400Y-121310400D01*
X142457000Y-121275000D02*
X143627000Y-121275000D01*
D35*
X142277000Y-107529800D02*
X142849600Y-108102400D01*
X142849600Y-114401600D02*
X143459200Y-115011200D01*
X143459200Y-115011200D02*
X144678400Y-115011200D01*
X144678400Y-115011200D02*
X145075000Y-115407800D01*
X145075000Y-115407800D02*
X145075000Y-116600000D01*
X142277000Y-106563000D02*
X142277000Y-107529800D01*
D37*
X191000000Y-96105600D02*
X188698000Y-93803600D01*
X188698000Y-92239000D02*
X188698000Y-87000000D01*
X188698000Y-93803600D02*
X188698000Y-92239000D01*
X191000000Y-97600000D02*
X191000000Y-96105600D01*
X171313000Y-92239000D02*
X188698000Y-92239000D01*
X191202000Y-97802000D02*
X191000000Y-97600000D01*
X194249200Y-97802000D02*
X191202000Y-97802000D01*
X195947600Y-97802000D02*
X196697600Y-98552000D01*
X196697600Y-106680000D02*
X196586000Y-106791600D01*
X196586000Y-106791600D02*
X196586000Y-107987000D01*
X194249200Y-97802000D02*
X195947600Y-97802000D01*
X194163200Y-107600000D02*
X194550200Y-107987000D01*
X194550200Y-107987000D02*
X196586000Y-107987000D01*
X191000000Y-107600000D02*
X194163200Y-107600000D01*
X202698000Y-96250000D02*
X202321000Y-95873000D01*
X207000000Y-96250000D02*
X202698000Y-96250000D01*
X201574400Y-98552000D02*
X202321000Y-97805400D01*
X202321000Y-97805400D02*
X202321000Y-95873000D01*
X196697600Y-98552000D02*
X201574400Y-98552000D01*
X169482600Y-92239000D02*
X169062400Y-92659200D01*
X161137600Y-109118400D02*
X168859200Y-109118400D01*
X169482600Y-92239000D02*
X171313000Y-92239000D01*
X169062400Y-108915200D02*
X168859200Y-109118400D01*
X169062400Y-92659200D02*
X169062400Y-108915200D01*
X155854400Y-109118400D02*
X161137600Y-109118400D01*
X155854400Y-109118400D02*
X155854400Y-114808000D01*
X195349500Y-87047500D02*
X195302000Y-87000000D01*
X197990000Y-87047500D02*
X195349500Y-87047500D01*
D35*
X122962000Y-96725000D02*
X123141000Y-96725000D01*
X150275000Y-116600000D02*
X150275000Y-117890000D01*
X151396000Y-118376000D02*
X151396000Y-119263000D01*
X151130000Y-118110000D02*
X151396000Y-118376000D01*
X150495000Y-118110000D02*
X151130000Y-118110000D01*
X150275000Y-117890000D02*
X150495000Y-118110000D01*
X138176000Y-99364802D02*
X138176000Y-99364802D01*
X125780802Y-99364802D02*
X138176000Y-99364802D01*
X123141000Y-96725000D02*
X125780802Y-99364802D01*
X138176002Y-99364802D02*
X138582400Y-99771200D01*
X138582400Y-99771200D02*
X138582400Y-123139200D01*
X151384000Y-123139200D02*
X151396000Y-123127200D01*
X151396000Y-123127200D02*
X151396000Y-119263000D01*
X138176000Y-99364802D02*
X138176002Y-99364802D01*
X149625000Y-116600000D02*
X149625000Y-118256000D01*
X149594000Y-118287000D02*
X149594000Y-119263000D01*
X149625000Y-118256000D02*
X149594000Y-118287000D01*
X124962000Y-97936400D02*
X125984000Y-98958400D01*
X125984000Y-98958400D02*
X138176000Y-98958400D01*
X124962000Y-96725000D02*
X124962000Y-97936400D01*
X138176000Y-98958400D02*
X138379200Y-98958400D01*
X138379200Y-98958400D02*
X138988800Y-99568000D01*
X138988800Y-99602850D02*
X138988810Y-99602860D01*
X138988800Y-99568000D02*
X138988800Y-99602850D01*
X139192000Y-120958642D02*
X139192000Y-122529600D01*
X138988810Y-120755452D02*
X139192000Y-120958642D01*
X138988810Y-99602860D02*
X138988810Y-120755452D01*
X149555200Y-119301800D02*
X149594000Y-119263000D01*
X149555200Y-122326400D02*
X149555200Y-119301800D01*
X151575000Y-108317800D02*
X152806402Y-107086398D01*
X152806402Y-107086398D02*
X158496002Y-107086398D01*
X158496002Y-107086398D02*
X158902400Y-106680000D01*
X158902400Y-106680000D02*
X158902400Y-100177600D01*
X158902400Y-100177600D02*
X159918400Y-99161600D01*
X159918400Y-99161600D02*
X159918400Y-96520000D01*
X159918400Y-96520000D02*
X160428400Y-96010000D01*
X160428400Y-96010000D02*
X161250000Y-96010000D01*
X151575000Y-109400000D02*
X151575000Y-108317800D01*
X161275000Y-95985000D02*
X161250000Y-96010000D01*
X161275000Y-94010000D02*
X161275000Y-95985000D01*
X173725000Y-87996600D02*
X171500800Y-90220800D01*
X171500800Y-90220800D02*
X161747200Y-90220800D01*
X161747200Y-90220800D02*
X161275000Y-90693000D01*
X161275000Y-90693000D02*
X161275000Y-94010000D01*
X173725000Y-85010000D02*
X173725000Y-87996600D01*
X152225000Y-108480600D02*
X153009600Y-107696000D01*
X153009600Y-107696000D02*
X158902400Y-107696000D01*
X158902400Y-107696000D02*
X159715200Y-106883200D01*
X159715200Y-106883200D02*
X159715200Y-101396800D01*
X159715200Y-101396800D02*
X160102000Y-101010000D01*
X160102000Y-101010000D02*
X161275000Y-101010000D01*
X152225000Y-109400000D02*
X152225000Y-108480600D01*
X161250000Y-100985000D02*
X161275000Y-101010000D01*
X161250000Y-99010000D02*
X161250000Y-100985000D01*
X146267000Y-121295000D02*
X146267000Y-119268000D01*
X146267000Y-119268000D02*
X146292000Y-119243000D01*
X146375000Y-116600000D02*
X146375000Y-119160000D01*
X146375000Y-119160000D02*
X146292000Y-119243000D01*
X154549000Y-116090000D02*
X156327000Y-116090000D01*
X151575000Y-116600000D02*
X151575000Y-115252000D01*
X154549000Y-115433000D02*
X154549000Y-116090000D01*
X154178000Y-115062000D02*
X154549000Y-115433000D01*
X151765000Y-115062000D02*
X154178000Y-115062000D01*
X151575000Y-115252000D02*
X151765000Y-115062000D01*
D34*
X141061600Y-77460000D02*
X141500000Y-77898400D01*
X141500000Y-77898400D02*
X141500000Y-80000000D01*
X124000000Y-77460000D02*
X141061600Y-77460000D01*
X148275000Y-85010000D02*
X147010000Y-85010000D01*
X146500000Y-84500000D02*
X146500000Y-80000000D01*
X147010000Y-85010000D02*
X146500000Y-84500000D01*
X131953000Y-111379000D02*
X131953000Y-104803000D01*
X131953000Y-104803000D02*
X131750000Y-104600000D01*
D35*
X172752000Y-103600000D02*
X172110400Y-104241600D01*
X172110400Y-104241600D02*
X169875200Y-104241600D01*
X175000000Y-103600000D02*
X172752000Y-103600000D01*
X163921600Y-106944000D02*
X164270000Y-106595600D01*
X164270000Y-106595600D02*
X164270000Y-104000000D01*
X162904000Y-106944000D02*
X163921600Y-106944000D01*
X178612800Y-95300800D02*
X178206400Y-95707200D01*
X178206400Y-95707200D02*
X178206400Y-104648000D01*
X178110400Y-107600000D02*
X175000000Y-107600000D01*
X178110400Y-107600000D02*
X178206400Y-107696000D01*
X188976000Y-95300800D02*
X178612800Y-95300800D01*
X169971200Y-107600000D02*
X169875200Y-107696000D01*
X154228800Y-108508800D02*
X154228800Y-112166400D01*
X146507200Y-112166400D02*
X146375000Y-112034200D01*
X146375000Y-112034200D02*
X146375000Y-109400000D01*
X175000000Y-107600000D02*
X169971200Y-107600000D01*
X188099200Y-105600000D02*
X188163200Y-105664000D01*
X195478400Y-105664000D02*
X197713600Y-105664000D01*
X197713600Y-101193600D02*
X197770000Y-101250000D01*
X197770000Y-101250000D02*
X207000000Y-101250000D01*
X175000000Y-105600000D02*
X188099200Y-105600000D01*
X169939200Y-105600000D02*
X169875200Y-105664000D01*
X149352000Y-111150400D02*
X148975000Y-110773400D01*
X148975000Y-110773400D02*
X148975000Y-109400000D01*
X175000000Y-105600000D02*
X169939200Y-105600000D01*
X194868800Y-101600000D02*
X195478400Y-102209600D01*
X195478400Y-102209600D02*
X204419200Y-102209600D01*
X204419200Y-102209600D02*
X204825600Y-102616000D01*
X204825600Y-102616000D02*
X204825600Y-103225600D01*
X204825600Y-103225600D02*
X205350000Y-103750000D01*
X205350000Y-103750000D02*
X207000000Y-103750000D01*
X191000000Y-101600000D02*
X194868800Y-101600000D01*
X145725000Y-113619400D02*
X146100800Y-113995200D01*
X171297600Y-103225600D02*
X171297600Y-100584000D01*
X187960000Y-100584000D02*
X188976000Y-101600000D01*
X188976000Y-101600000D02*
X191000000Y-101600000D01*
X145725000Y-109400000D02*
X145725000Y-113619400D01*
X197104000Y-100177600D02*
X204622400Y-100177600D01*
X196494400Y-100787200D02*
X197104000Y-100177600D01*
X193649600Y-100787200D02*
X196494400Y-100787200D01*
X192462400Y-99600000D02*
X193649600Y-100787200D01*
X191000000Y-99600000D02*
X192462400Y-99600000D01*
X190828800Y-99771200D02*
X191000000Y-99600000D01*
X145075000Y-108315400D02*
X145491200Y-107899200D01*
X185521600Y-102209600D02*
X185521600Y-100177600D01*
X185521600Y-100177600D02*
X185928000Y-99771200D01*
X185928000Y-99771200D02*
X190828800Y-99771200D01*
X145075000Y-109400000D02*
X145075000Y-108315400D01*
X193820800Y-103600000D02*
X195072000Y-104851200D01*
X195072000Y-104851200D02*
X202590400Y-104851200D01*
X202590400Y-104851200D02*
X204419200Y-106680000D01*
X204419200Y-106680000D02*
X204419200Y-108102400D01*
X204419200Y-108102400D02*
X205066800Y-108750000D01*
X205066800Y-108750000D02*
X207000000Y-108750000D01*
X191000000Y-103600000D02*
X193820800Y-103600000D01*
X144425000Y-107949400D02*
X144678400Y-107696000D01*
X187350400Y-101600000D02*
X187756800Y-102006400D01*
X187756800Y-102006400D02*
X187756800Y-103022400D01*
X187756800Y-103022400D02*
X188334400Y-103600000D01*
X188334400Y-103600000D02*
X191000000Y-103600000D01*
X144425000Y-109400000D02*
X144425000Y-107949400D01*
X193992000Y-105600000D02*
X195072000Y-106680000D01*
X191000000Y-105600000D02*
X193992000Y-105600000D01*
X170206400Y-109600000D02*
X166827200Y-112979200D01*
X166827200Y-112979200D02*
X166827200Y-119888000D01*
X175000000Y-109600000D02*
X170206400Y-109600000D01*
X169832000Y-111600000D02*
X168190000Y-113242000D01*
X168190000Y-113242000D02*
X168190000Y-123000000D01*
X175000000Y-111600000D02*
X169832000Y-111600000D01*
D36*
X124962000Y-95275000D02*
X124962000Y-91010000D01*
X125952000Y-90020000D02*
X128082000Y-90020000D01*
X124962000Y-91010000D02*
X125952000Y-90020000D01*
X128082000Y-90020000D02*
X128102000Y-90000000D01*
D35*
X149725000Y-85010000D02*
X152275000Y-85010000D01*
X153725000Y-85010000D02*
X156275000Y-85010000D01*
X157725000Y-85010000D02*
X160275000Y-85010000D01*
X161725000Y-85010000D02*
X164275000Y-85010000D01*
X165725000Y-85010000D02*
X168275000Y-85010000D01*
X169725000Y-85010000D02*
X172275000Y-85010000D01*
X141464000Y-116600000D02*
X141214000Y-116850000D01*
X141214000Y-116850000D02*
X141214000Y-117616000D01*
X143775000Y-116600000D02*
X141464000Y-116600000D01*
X139838400Y-117616000D02*
X139598400Y-117856000D01*
X139598400Y-117856000D02*
X139598400Y-120497600D01*
X139598400Y-120497600D02*
X140375800Y-121275000D01*
X140375800Y-121275000D02*
X141007000Y-121275000D01*
X141214000Y-117616000D02*
X139838400Y-117616000D01*
X143727000Y-109352000D02*
X143775000Y-109400000D01*
X143727000Y-106563000D02*
X143727000Y-109352000D01*
X141253000Y-109400000D02*
X141087000Y-109234000D01*
X143775000Y-109400000D02*
X141253000Y-109400000D01*
X196451200Y-111600000D02*
X196586000Y-111465200D01*
X196586000Y-111465200D02*
X196586000Y-109437000D01*
X195750000Y-111600000D02*
X196451200Y-111600000D01*
X191000000Y-111600000D02*
X195750000Y-111600000D01*
X195750000Y-116750000D02*
X195750000Y-111600000D01*
X195750000Y-116750000D02*
X195750000Y-123250000D01*
X177190400Y-101600000D02*
X177596800Y-101193600D01*
X177596800Y-101193600D02*
X177596800Y-95707200D01*
X177596800Y-95707200D02*
X175578600Y-93689000D01*
X175578600Y-93689000D02*
X171313000Y-93689000D01*
X175000000Y-101600000D02*
X177190400Y-101600000D01*
X150275000Y-106366600D02*
X150571200Y-106070400D01*
X150275000Y-109400000D02*
X150275000Y-106366600D01*
X149625000Y-106749800D02*
X148945600Y-106070400D01*
X149625000Y-109400000D02*
X149625000Y-106749800D01*
X148325000Y-108321800D02*
X148539200Y-108107600D01*
X148539200Y-108107600D02*
X148539200Y-107696000D01*
X148325000Y-109400000D02*
X148325000Y-108321800D01*
X147116800Y-106476800D02*
X146710400Y-106070400D01*
X147116800Y-107492800D02*
X147116800Y-106476800D01*
X150925000Y-108659400D02*
X150977600Y-108606800D01*
X150925000Y-109400000D02*
X150925000Y-108659400D01*
X150977600Y-108606800D02*
X150977600Y-107492800D01*
X150977600Y-107492800D02*
X151384000Y-107086400D01*
X152196800Y-106908600D02*
X152196800Y-106070400D01*
X152019000Y-107086400D02*
X152196800Y-106908600D01*
X151384000Y-107086400D02*
X152019000Y-107086400D01*
X147675000Y-108321800D02*
X147675000Y-109400000D01*
X147939801Y-104840999D02*
X147939801Y-108056999D01*
X151761600Y-104241600D02*
X148539200Y-104241600D01*
X152750000Y-103253200D02*
X151761600Y-104241600D01*
X147939801Y-108056999D02*
X147675000Y-108321800D01*
X148539200Y-104241600D02*
X147939801Y-104840999D01*
X152750000Y-102000000D02*
X152750000Y-103253200D01*
X147025000Y-108284414D02*
X145491200Y-106750614D01*
X147025000Y-109400000D02*
X147025000Y-108284414D01*
X145491200Y-106750614D02*
X145491200Y-104851200D01*
X145491200Y-104851200D02*
X144678400Y-104038400D01*
X143250000Y-103253200D02*
X143250000Y-102000000D01*
X144035200Y-104038400D02*
X143250000Y-103253200D01*
X144678400Y-104038400D02*
X144035200Y-104038400D01*
D37*
X206430800Y-84714000D02*
X207000000Y-85283200D01*
X207000000Y-85283200D02*
X207000000Y-86750000D01*
X201990000Y-84714000D02*
X206430800Y-84714000D01*
X195302000Y-84714000D02*
X201990000Y-84714000D01*
X201990000Y-87047500D02*
X201990000Y-84714000D01*
D35*
X141234000Y-113879800D02*
X141745800Y-113879800D01*
X145725000Y-115041800D02*
X145725000Y-116600000D01*
X144272000Y-113588800D02*
X145725000Y-115041800D01*
X142036800Y-113588800D02*
X144272000Y-113588800D01*
X141745800Y-113879800D02*
X142036800Y-113588800D01*
D38*
G36*
X134873000Y-119873000D02*
X120127000Y-119873000D01*
X120127000Y-108127000D01*
X134873000Y-108127000D01*
X134873000Y-119873000D01*
X134873000Y-119873000D01*
G37*
X134873000Y-119873000D02*
X120127000Y-119873000D01*
X120127000Y-108127000D01*
X134873000Y-108127000D01*
X134873000Y-119873000D01*
G36*
X136873000Y-97873000D02*
X126127000Y-97873000D01*
X126127000Y-86127000D01*
X136873000Y-86127000D01*
X136873000Y-97873000D01*
X136873000Y-97873000D01*
G37*
X136873000Y-97873000D02*
X126127000Y-97873000D01*
X126127000Y-86127000D01*
X136873000Y-86127000D01*
X136873000Y-97873000D01*
G36*
X195873000Y-87873000D02*
X193000000Y-87873000D01*
X192951399Y-87882667D01*
X192910197Y-87910197D01*
X192882667Y-87951399D01*
X192873000Y-88000000D01*
X192873000Y-90873000D01*
X181127000Y-90873000D01*
X181127000Y-83127000D01*
X192873000Y-83127000D01*
X192873000Y-86000000D01*
X192882667Y-86048601D01*
X192910197Y-86089803D01*
X192951399Y-86117333D01*
X193000000Y-86127000D01*
X195873000Y-86127000D01*
X195873000Y-87873000D01*
X195873000Y-87873000D01*
G37*
X195873000Y-87873000D02*
X193000000Y-87873000D01*
X192951399Y-87882667D01*
X192910197Y-87910197D01*
X192882667Y-87951399D01*
X192873000Y-88000000D01*
X192873000Y-90873000D01*
X181127000Y-90873000D01*
X181127000Y-83127000D01*
X192873000Y-83127000D01*
X192873000Y-86000000D01*
X192882667Y-86048601D01*
X192910197Y-86089803D01*
X192951399Y-86117333D01*
X193000000Y-86127000D01*
X195873000Y-86127000D01*
X195873000Y-87873000D01*
G36*
X145110200Y-120391142D02*
X145018011Y-120483331D01*
X144665000Y-120483331D01*
X144665000Y-120119250D01*
X144665000Y-119370000D01*
X143915750Y-119370000D01*
X143757000Y-119528750D01*
X143757000Y-119769310D01*
X143853673Y-120002699D01*
X144032302Y-120181327D01*
X144265691Y-120278000D01*
X144506250Y-120278000D01*
X144665000Y-120119250D01*
X144665000Y-120483331D01*
X144342000Y-120483331D01*
X144216096Y-120507759D01*
X144105438Y-120580450D01*
X144051740Y-120660000D01*
X143727547Y-120660000D01*
X143627000Y-120640000D01*
X143221843Y-120640000D01*
X143171550Y-120563438D01*
X143061813Y-120489364D01*
X142932000Y-120463331D01*
X142251961Y-120463331D01*
X142273699Y-120454327D01*
X142452327Y-120275698D01*
X142549000Y-120042309D01*
X142549000Y-119651750D01*
X142390250Y-119493000D01*
X141341000Y-119493000D01*
X141341000Y-119513000D01*
X141087000Y-119513000D01*
X141087000Y-119493000D01*
X141067000Y-119493000D01*
X141067000Y-119239000D01*
X141087000Y-119239000D01*
X141087000Y-119219000D01*
X141341000Y-119219000D01*
X141341000Y-119239000D01*
X142390250Y-119239000D01*
X142549000Y-119080250D01*
X142549000Y-118689691D01*
X142452327Y-118456302D01*
X142273699Y-118277673D01*
X142231757Y-118260300D01*
X142250669Y-118166000D01*
X142250669Y-117066000D01*
X142244033Y-117031800D01*
X143238331Y-117031800D01*
X143238331Y-117475000D01*
X143262759Y-117600904D01*
X143335450Y-117711562D01*
X143445187Y-117785636D01*
X143575000Y-117811669D01*
X143677134Y-117811669D01*
X143686673Y-117834698D01*
X143865301Y-118013327D01*
X144098690Y-118110000D01*
X144166250Y-118110000D01*
X144325000Y-117951250D01*
X144325000Y-116727000D01*
X144311669Y-116727000D01*
X144311669Y-116473000D01*
X144325000Y-116473000D01*
X144325000Y-116453000D01*
X144525000Y-116453000D01*
X144525000Y-116473000D01*
X144538331Y-116473000D01*
X144538331Y-116727000D01*
X144525000Y-116727000D01*
X144525000Y-117951250D01*
X144683750Y-118110000D01*
X144707979Y-118110000D01*
X144769671Y-118202329D01*
X144775342Y-118208000D01*
X144664998Y-118208000D01*
X144664998Y-118366748D01*
X144506250Y-118208000D01*
X144265691Y-118208000D01*
X144032302Y-118304673D01*
X143853673Y-118483301D01*
X143757000Y-118716690D01*
X143757000Y-118957250D01*
X143915750Y-119116000D01*
X144665000Y-119116000D01*
X144665000Y-119096000D01*
X144919000Y-119096000D01*
X144919000Y-119116000D01*
X144939000Y-119116000D01*
X144939000Y-119370000D01*
X144919000Y-119370000D01*
X144919000Y-120119250D01*
X145077750Y-120278000D01*
X145110200Y-120278000D01*
X145110200Y-120391142D01*
X145110200Y-120391142D01*
G37*
X145110200Y-120391142D02*
X145018011Y-120483331D01*
X144665000Y-120483331D01*
X144665000Y-120119250D01*
X144665000Y-119370000D01*
X143915750Y-119370000D01*
X143757000Y-119528750D01*
X143757000Y-119769310D01*
X143853673Y-120002699D01*
X144032302Y-120181327D01*
X144265691Y-120278000D01*
X144506250Y-120278000D01*
X144665000Y-120119250D01*
X144665000Y-120483331D01*
X144342000Y-120483331D01*
X144216096Y-120507759D01*
X144105438Y-120580450D01*
X144051740Y-120660000D01*
X143727547Y-120660000D01*
X143627000Y-120640000D01*
X143221843Y-120640000D01*
X143171550Y-120563438D01*
X143061813Y-120489364D01*
X142932000Y-120463331D01*
X142251961Y-120463331D01*
X142273699Y-120454327D01*
X142452327Y-120275698D01*
X142549000Y-120042309D01*
X142549000Y-119651750D01*
X142390250Y-119493000D01*
X141341000Y-119493000D01*
X141341000Y-119513000D01*
X141087000Y-119513000D01*
X141087000Y-119493000D01*
X141067000Y-119493000D01*
X141067000Y-119239000D01*
X141087000Y-119239000D01*
X141087000Y-119219000D01*
X141341000Y-119219000D01*
X141341000Y-119239000D01*
X142390250Y-119239000D01*
X142549000Y-119080250D01*
X142549000Y-118689691D01*
X142452327Y-118456302D01*
X142273699Y-118277673D01*
X142231757Y-118260300D01*
X142250669Y-118166000D01*
X142250669Y-117066000D01*
X142244033Y-117031800D01*
X143238331Y-117031800D01*
X143238331Y-117475000D01*
X143262759Y-117600904D01*
X143335450Y-117711562D01*
X143445187Y-117785636D01*
X143575000Y-117811669D01*
X143677134Y-117811669D01*
X143686673Y-117834698D01*
X143865301Y-118013327D01*
X144098690Y-118110000D01*
X144166250Y-118110000D01*
X144325000Y-117951250D01*
X144325000Y-116727000D01*
X144311669Y-116727000D01*
X144311669Y-116473000D01*
X144325000Y-116473000D01*
X144325000Y-116453000D01*
X144525000Y-116453000D01*
X144525000Y-116473000D01*
X144538331Y-116473000D01*
X144538331Y-116727000D01*
X144525000Y-116727000D01*
X144525000Y-117951250D01*
X144683750Y-118110000D01*
X144707979Y-118110000D01*
X144769671Y-118202329D01*
X144775342Y-118208000D01*
X144664998Y-118208000D01*
X144664998Y-118366748D01*
X144506250Y-118208000D01*
X144265691Y-118208000D01*
X144032302Y-118304673D01*
X143853673Y-118483301D01*
X143757000Y-118716690D01*
X143757000Y-118957250D01*
X143915750Y-119116000D01*
X144665000Y-119116000D01*
X144665000Y-119096000D01*
X144919000Y-119096000D01*
X144919000Y-119116000D01*
X144939000Y-119116000D01*
X144939000Y-119370000D01*
X144919000Y-119370000D01*
X144919000Y-120119250D01*
X145077750Y-120278000D01*
X145110200Y-120278000D01*
X145110200Y-120391142D01*
G36*
X145524931Y-114231074D02*
X144577329Y-113283471D01*
X144437243Y-113189869D01*
X144272000Y-113157000D01*
X142422000Y-113157000D01*
X142422000Y-111660309D01*
X142422000Y-111269750D01*
X142263250Y-111111000D01*
X141214000Y-111111000D01*
X141214000Y-112010250D01*
X141372750Y-112169000D01*
X141660691Y-112169000D01*
X141913310Y-112169000D01*
X142146699Y-112072327D01*
X142325327Y-111893698D01*
X142422000Y-111660309D01*
X142422000Y-113157000D01*
X142036800Y-113157000D01*
X141952219Y-113173824D01*
X141948550Y-113168238D01*
X141838813Y-113094164D01*
X141709000Y-113068131D01*
X140759000Y-113068131D01*
X140633096Y-113092559D01*
X140522438Y-113165250D01*
X140448364Y-113274987D01*
X140422331Y-113404800D01*
X140422331Y-114354800D01*
X140446759Y-114480704D01*
X140519450Y-114591362D01*
X140538858Y-114604463D01*
X140522438Y-114615250D01*
X140448364Y-114724987D01*
X140422331Y-114854800D01*
X140422331Y-115804800D01*
X140446759Y-115930704D01*
X140519450Y-116041362D01*
X140629187Y-116115436D01*
X140759000Y-116141469D01*
X141709000Y-116141469D01*
X141834904Y-116117041D01*
X141945562Y-116044350D01*
X142019636Y-115934613D01*
X142045669Y-115804800D01*
X142045669Y-115443000D01*
X142240000Y-115443000D01*
X142405242Y-115410131D01*
X142405243Y-115410131D01*
X142545329Y-115316529D01*
X142837967Y-115023890D01*
X142861253Y-115023910D01*
X143153868Y-115316525D01*
X143153871Y-115316529D01*
X143153872Y-115316529D01*
X143247474Y-115379072D01*
X143293957Y-115410131D01*
X143293958Y-115410132D01*
X143416107Y-115434429D01*
X143338438Y-115485450D01*
X143264364Y-115595187D01*
X143238331Y-115725000D01*
X143238331Y-116168200D01*
X141464000Y-116168200D01*
X141298757Y-116201069D01*
X141158671Y-116294671D01*
X141158668Y-116294674D01*
X140908671Y-116544671D01*
X140815069Y-116684757D01*
X140806202Y-116729331D01*
X140514000Y-116729331D01*
X140388096Y-116753759D01*
X140277438Y-116826450D01*
X140203364Y-116936187D01*
X140177331Y-117066000D01*
X140177331Y-117184200D01*
X140127000Y-117184200D01*
X140127000Y-112113623D01*
X140260690Y-112169000D01*
X140513309Y-112169000D01*
X140801250Y-112169000D01*
X140960000Y-112010250D01*
X140960000Y-111111000D01*
X140940000Y-111111000D01*
X140940000Y-110857000D01*
X140960000Y-110857000D01*
X140960000Y-110837000D01*
X141214000Y-110837000D01*
X141214000Y-110857000D01*
X142263250Y-110857000D01*
X142422000Y-110698250D01*
X142422000Y-110307691D01*
X142325327Y-110074302D01*
X142146699Y-109895673D01*
X142104757Y-109878300D01*
X142114083Y-109831800D01*
X143238331Y-109831800D01*
X143238331Y-110275000D01*
X143262759Y-110400904D01*
X143335450Y-110511562D01*
X143445187Y-110585636D01*
X143575000Y-110611669D01*
X143975000Y-110611669D01*
X144100904Y-110587241D01*
X144101438Y-110586889D01*
X144225000Y-110611669D01*
X144625000Y-110611669D01*
X144750904Y-110587241D01*
X144751438Y-110586889D01*
X144875000Y-110611669D01*
X145275000Y-110611669D01*
X145293200Y-110608137D01*
X145293200Y-113619400D01*
X145326069Y-113784643D01*
X145419671Y-113924729D01*
X145478509Y-113983567D01*
X145478392Y-114118440D01*
X145524931Y-114231074D01*
X145524931Y-114231074D01*
G37*
X145524931Y-114231074D02*
X144577329Y-113283471D01*
X144437243Y-113189869D01*
X144272000Y-113157000D01*
X142422000Y-113157000D01*
X142422000Y-111660309D01*
X142422000Y-111269750D01*
X142263250Y-111111000D01*
X141214000Y-111111000D01*
X141214000Y-112010250D01*
X141372750Y-112169000D01*
X141660691Y-112169000D01*
X141913310Y-112169000D01*
X142146699Y-112072327D01*
X142325327Y-111893698D01*
X142422000Y-111660309D01*
X142422000Y-113157000D01*
X142036800Y-113157000D01*
X141952219Y-113173824D01*
X141948550Y-113168238D01*
X141838813Y-113094164D01*
X141709000Y-113068131D01*
X140759000Y-113068131D01*
X140633096Y-113092559D01*
X140522438Y-113165250D01*
X140448364Y-113274987D01*
X140422331Y-113404800D01*
X140422331Y-114354800D01*
X140446759Y-114480704D01*
X140519450Y-114591362D01*
X140538858Y-114604463D01*
X140522438Y-114615250D01*
X140448364Y-114724987D01*
X140422331Y-114854800D01*
X140422331Y-115804800D01*
X140446759Y-115930704D01*
X140519450Y-116041362D01*
X140629187Y-116115436D01*
X140759000Y-116141469D01*
X141709000Y-116141469D01*
X141834904Y-116117041D01*
X141945562Y-116044350D01*
X142019636Y-115934613D01*
X142045669Y-115804800D01*
X142045669Y-115443000D01*
X142240000Y-115443000D01*
X142405242Y-115410131D01*
X142405243Y-115410131D01*
X142545329Y-115316529D01*
X142837967Y-115023890D01*
X142861253Y-115023910D01*
X143153868Y-115316525D01*
X143153871Y-115316529D01*
X143153872Y-115316529D01*
X143247474Y-115379072D01*
X143293957Y-115410131D01*
X143293958Y-115410132D01*
X143416107Y-115434429D01*
X143338438Y-115485450D01*
X143264364Y-115595187D01*
X143238331Y-115725000D01*
X143238331Y-116168200D01*
X141464000Y-116168200D01*
X141298757Y-116201069D01*
X141158671Y-116294671D01*
X141158668Y-116294674D01*
X140908671Y-116544671D01*
X140815069Y-116684757D01*
X140806202Y-116729331D01*
X140514000Y-116729331D01*
X140388096Y-116753759D01*
X140277438Y-116826450D01*
X140203364Y-116936187D01*
X140177331Y-117066000D01*
X140177331Y-117184200D01*
X140127000Y-117184200D01*
X140127000Y-112113623D01*
X140260690Y-112169000D01*
X140513309Y-112169000D01*
X140801250Y-112169000D01*
X140960000Y-112010250D01*
X140960000Y-111111000D01*
X140940000Y-111111000D01*
X140940000Y-110857000D01*
X140960000Y-110857000D01*
X140960000Y-110837000D01*
X141214000Y-110837000D01*
X141214000Y-110857000D01*
X142263250Y-110857000D01*
X142422000Y-110698250D01*
X142422000Y-110307691D01*
X142325327Y-110074302D01*
X142146699Y-109895673D01*
X142104757Y-109878300D01*
X142114083Y-109831800D01*
X143238331Y-109831800D01*
X143238331Y-110275000D01*
X143262759Y-110400904D01*
X143335450Y-110511562D01*
X143445187Y-110585636D01*
X143575000Y-110611669D01*
X143975000Y-110611669D01*
X144100904Y-110587241D01*
X144101438Y-110586889D01*
X144225000Y-110611669D01*
X144625000Y-110611669D01*
X144750904Y-110587241D01*
X144751438Y-110586889D01*
X144875000Y-110611669D01*
X145275000Y-110611669D01*
X145293200Y-110608137D01*
X145293200Y-113619400D01*
X145326069Y-113784643D01*
X145419671Y-113924729D01*
X145478509Y-113983567D01*
X145478392Y-114118440D01*
X145524931Y-114231074D01*
G36*
X147822000Y-116727000D02*
X147775000Y-116727000D01*
X147701250Y-116727000D01*
X147648750Y-116727000D01*
X147575000Y-116727000D01*
X147528000Y-116727000D01*
X147528000Y-116473000D01*
X147575000Y-116473000D01*
X147648750Y-116473000D01*
X147701250Y-116473000D01*
X147775000Y-116473000D01*
X147822000Y-116473000D01*
X147822000Y-116727000D01*
X147822000Y-116727000D01*
G37*
X147822000Y-116727000D02*
X147775000Y-116727000D01*
X147701250Y-116727000D01*
X147648750Y-116727000D01*
X147575000Y-116727000D01*
X147528000Y-116727000D01*
X147528000Y-116473000D01*
X147575000Y-116473000D01*
X147648750Y-116473000D01*
X147701250Y-116473000D01*
X147775000Y-116473000D01*
X147822000Y-116473000D01*
X147822000Y-116727000D01*
G36*
X156503518Y-118515768D02*
X156200000Y-118971045D01*
X156200000Y-118466250D01*
X156200000Y-117717000D01*
X155450750Y-117717000D01*
X155438000Y-117729750D01*
X155425250Y-117717000D01*
X154676000Y-117717000D01*
X154676000Y-118466250D01*
X154834750Y-118625000D01*
X155075310Y-118625000D01*
X155308699Y-118528327D01*
X155438000Y-118399025D01*
X155567301Y-118528327D01*
X155800690Y-118625000D01*
X156041250Y-118625000D01*
X156200000Y-118466250D01*
X156200000Y-118971045D01*
X154894330Y-120929553D01*
X154889581Y-120941050D01*
X154882667Y-120951399D01*
X154880213Y-120963732D01*
X154875414Y-120975354D01*
X154875427Y-120987797D01*
X154873000Y-121000000D01*
X154873000Y-123873000D01*
X154422000Y-123873000D01*
X154422000Y-118466250D01*
X154422000Y-117717000D01*
X153672750Y-117717000D01*
X153514000Y-117875750D01*
X153514000Y-118116309D01*
X153588835Y-118296977D01*
X153422309Y-118228000D01*
X153181750Y-118228000D01*
X153060000Y-118349750D01*
X153060000Y-117601309D01*
X153060000Y-116885750D01*
X152901250Y-116727000D01*
X152325000Y-116727000D01*
X152325000Y-117951250D01*
X152483750Y-118110000D01*
X152551310Y-118110000D01*
X152784699Y-118013327D01*
X152963327Y-117834698D01*
X153060000Y-117601309D01*
X153060000Y-118349750D01*
X153023000Y-118386750D01*
X153023000Y-119136000D01*
X153772250Y-119136000D01*
X153931000Y-118977250D01*
X153931000Y-118736690D01*
X153856165Y-118556023D01*
X154022690Y-118625000D01*
X154263250Y-118625000D01*
X154422000Y-118466250D01*
X154422000Y-123873000D01*
X153931000Y-123873000D01*
X153931000Y-119789310D01*
X153931000Y-119548750D01*
X153772250Y-119390000D01*
X153023000Y-119390000D01*
X153023000Y-120139250D01*
X153181750Y-120298000D01*
X153422309Y-120298000D01*
X153655698Y-120201327D01*
X153834327Y-120022699D01*
X153931000Y-119789310D01*
X153931000Y-123873000D01*
X147967000Y-123873000D01*
X147967000Y-120139250D01*
X147967000Y-119390000D01*
X147967000Y-119136000D01*
X147967000Y-118386750D01*
X147808250Y-118228000D01*
X147567691Y-118228000D01*
X147334302Y-118324673D01*
X147155673Y-118503301D01*
X147059000Y-118736690D01*
X147059000Y-118977250D01*
X147217750Y-119136000D01*
X147967000Y-119136000D01*
X147967000Y-119390000D01*
X147217750Y-119390000D01*
X147059000Y-119548750D01*
X147059000Y-119789310D01*
X147155673Y-120022699D01*
X147334302Y-120201327D01*
X147567691Y-120298000D01*
X147808250Y-120298000D01*
X147967000Y-120139250D01*
X147967000Y-123873000D01*
X147266238Y-123873000D01*
X147327000Y-123726310D01*
X147327000Y-123485750D01*
X147327000Y-122914250D01*
X147327000Y-122673690D01*
X147230327Y-122440301D01*
X147051698Y-122261673D01*
X146818309Y-122165000D01*
X146577750Y-122165000D01*
X146419000Y-122323750D01*
X146419000Y-123073000D01*
X147168250Y-123073000D01*
X147327000Y-122914250D01*
X147327000Y-123485750D01*
X147168250Y-123327000D01*
X146419000Y-123327000D01*
X146419000Y-123347000D01*
X146165000Y-123347000D01*
X146165000Y-123327000D01*
X146145000Y-123327000D01*
X146145000Y-123073000D01*
X146165000Y-123073000D01*
X146165000Y-122323750D01*
X146006250Y-122165000D01*
X145765691Y-122165000D01*
X145532302Y-122261673D01*
X145353673Y-122440301D01*
X145330829Y-122495450D01*
X145321813Y-122489364D01*
X145223800Y-122469708D01*
X145223800Y-122106669D01*
X145292000Y-122106669D01*
X145417904Y-122082241D01*
X145528562Y-122009550D01*
X145541663Y-121990141D01*
X145552450Y-122006562D01*
X145662187Y-122080636D01*
X145792000Y-122106669D01*
X146742000Y-122106669D01*
X146867904Y-122082241D01*
X146978562Y-122009550D01*
X147052636Y-121899813D01*
X147078669Y-121770000D01*
X147078669Y-120820000D01*
X147054241Y-120694096D01*
X146981550Y-120583438D01*
X146871813Y-120509364D01*
X146742000Y-120483331D01*
X146698800Y-120483331D01*
X146698800Y-119978349D01*
X146817904Y-119955241D01*
X146928562Y-119882550D01*
X147002636Y-119772813D01*
X147028669Y-119643000D01*
X147028669Y-118843000D01*
X147004241Y-118717096D01*
X146931550Y-118606438D01*
X146821813Y-118532364D01*
X146806800Y-118529353D01*
X146806800Y-118110000D01*
X146806800Y-118069450D01*
X146925000Y-117951250D01*
X146925000Y-117806516D01*
X146936673Y-117834698D01*
X147115301Y-118013327D01*
X147237830Y-118064080D01*
X147283750Y-118110000D01*
X147348690Y-118110000D01*
X147351310Y-118110000D01*
X147416250Y-118110000D01*
X147462169Y-118064080D01*
X147584699Y-118013327D01*
X147675000Y-117923025D01*
X147765301Y-118013327D01*
X147887830Y-118064080D01*
X147933750Y-118110000D01*
X147998690Y-118110000D01*
X148001310Y-118110000D01*
X148066250Y-118110000D01*
X148112169Y-118064080D01*
X148234699Y-118013327D01*
X148413327Y-117834698D01*
X148425000Y-117806516D01*
X148425000Y-117951250D01*
X148583750Y-118110000D01*
X148651310Y-118110000D01*
X148884699Y-118013327D01*
X149063327Y-117834698D01*
X149072865Y-117811669D01*
X149175000Y-117811669D01*
X149193200Y-117808137D01*
X149193200Y-118131153D01*
X149162200Y-118287000D01*
X149162200Y-118532500D01*
X149068096Y-118550759D01*
X149055430Y-118559078D01*
X149032327Y-118503301D01*
X148853698Y-118324673D01*
X148620309Y-118228000D01*
X148379750Y-118228000D01*
X148221000Y-118386750D01*
X148221000Y-119136000D01*
X148241000Y-119136000D01*
X148241000Y-119390000D01*
X148221000Y-119390000D01*
X148221000Y-120139250D01*
X148379750Y-120298000D01*
X148620309Y-120298000D01*
X148853698Y-120201327D01*
X149032327Y-120022699D01*
X149055170Y-119967549D01*
X149064187Y-119973636D01*
X149123400Y-119985510D01*
X149123400Y-121878148D01*
X149027947Y-121973435D01*
X148933008Y-122202074D01*
X148932792Y-122449640D01*
X149027332Y-122678444D01*
X149202235Y-122853653D01*
X149430874Y-122948592D01*
X149678440Y-122948808D01*
X149907244Y-122854268D01*
X150082453Y-122679365D01*
X150177392Y-122450726D01*
X150177608Y-122203160D01*
X150083068Y-121974356D01*
X149987000Y-121878119D01*
X149987000Y-119999669D01*
X149994000Y-119999669D01*
X150119904Y-119975241D01*
X150230562Y-119902550D01*
X150304636Y-119792813D01*
X150330669Y-119663000D01*
X150330669Y-118863000D01*
X150306241Y-118737096D01*
X150233550Y-118626438D01*
X150123813Y-118552364D01*
X150025800Y-118532708D01*
X150025800Y-118411851D01*
X150025800Y-118411846D01*
X150052411Y-118278069D01*
X150189671Y-118415329D01*
X150329757Y-118508931D01*
X150329758Y-118508931D01*
X150495000Y-118541800D01*
X150916271Y-118541800D01*
X150870096Y-118550759D01*
X150759438Y-118623450D01*
X150685364Y-118733187D01*
X150659331Y-118863000D01*
X150659331Y-119663000D01*
X150683759Y-119788904D01*
X150756450Y-119899562D01*
X150866187Y-119973636D01*
X150964200Y-119993291D01*
X150964200Y-122678969D01*
X150856747Y-122786235D01*
X150761808Y-123014874D01*
X150761592Y-123262440D01*
X150856132Y-123491244D01*
X151031035Y-123666453D01*
X151259674Y-123761392D01*
X151507240Y-123761608D01*
X151736044Y-123667068D01*
X151911253Y-123492165D01*
X152006192Y-123263526D01*
X152006408Y-123015960D01*
X151911868Y-122787156D01*
X151827800Y-122702940D01*
X151827800Y-119993499D01*
X151921904Y-119975241D01*
X151934569Y-119966921D01*
X151957673Y-120022699D01*
X152136302Y-120201327D01*
X152369691Y-120298000D01*
X152610250Y-120298000D01*
X152769000Y-120139250D01*
X152769000Y-119390000D01*
X152749000Y-119390000D01*
X152749000Y-119136000D01*
X152769000Y-119136000D01*
X152769000Y-118386750D01*
X152610250Y-118228000D01*
X152369691Y-118228000D01*
X152136302Y-118324673D01*
X151957673Y-118503301D01*
X151934829Y-118558450D01*
X151925813Y-118552364D01*
X151827800Y-118532708D01*
X151827800Y-118376005D01*
X151827800Y-118376000D01*
X151827801Y-118376000D01*
X151800384Y-118238173D01*
X151794931Y-118210758D01*
X151794931Y-118210757D01*
X151701329Y-118070671D01*
X151442327Y-117811669D01*
X151477134Y-117811669D01*
X151486673Y-117834698D01*
X151665301Y-118013327D01*
X151898690Y-118110000D01*
X151966250Y-118110000D01*
X152125000Y-117951250D01*
X152125000Y-116727000D01*
X152111669Y-116727000D01*
X152111669Y-116473000D01*
X152125000Y-116473000D01*
X152125000Y-116453000D01*
X152325000Y-116453000D01*
X152325000Y-116473000D01*
X152901250Y-116473000D01*
X153060000Y-116314250D01*
X153060000Y-115598691D01*
X153016552Y-115493800D01*
X153883176Y-115493800D01*
X153838364Y-115560187D01*
X153812331Y-115690000D01*
X153812331Y-116490000D01*
X153836759Y-116615904D01*
X153845078Y-116628569D01*
X153789301Y-116651673D01*
X153610673Y-116830302D01*
X153514000Y-117063691D01*
X153514000Y-117304250D01*
X153672750Y-117463000D01*
X154422000Y-117463000D01*
X154422000Y-117443000D01*
X154676000Y-117443000D01*
X154676000Y-117463000D01*
X155425250Y-117463000D01*
X155438000Y-117450250D01*
X155450750Y-117463000D01*
X156200000Y-117463000D01*
X156200000Y-117443000D01*
X156454000Y-117443000D01*
X156454000Y-117463000D01*
X156474000Y-117463000D01*
X156474000Y-117717000D01*
X156454000Y-117717000D01*
X156454000Y-118466250D01*
X156503518Y-118515768D01*
X156503518Y-118515768D01*
G37*
X156503518Y-118515768D02*
X156200000Y-118971045D01*
X156200000Y-118466250D01*
X156200000Y-117717000D01*
X155450750Y-117717000D01*
X155438000Y-117729750D01*
X155425250Y-117717000D01*
X154676000Y-117717000D01*
X154676000Y-118466250D01*
X154834750Y-118625000D01*
X155075310Y-118625000D01*
X155308699Y-118528327D01*
X155438000Y-118399025D01*
X155567301Y-118528327D01*
X155800690Y-118625000D01*
X156041250Y-118625000D01*
X156200000Y-118466250D01*
X156200000Y-118971045D01*
X154894330Y-120929553D01*
X154889581Y-120941050D01*
X154882667Y-120951399D01*
X154880213Y-120963732D01*
X154875414Y-120975354D01*
X154875427Y-120987797D01*
X154873000Y-121000000D01*
X154873000Y-123873000D01*
X154422000Y-123873000D01*
X154422000Y-118466250D01*
X154422000Y-117717000D01*
X153672750Y-117717000D01*
X153514000Y-117875750D01*
X153514000Y-118116309D01*
X153588835Y-118296977D01*
X153422309Y-118228000D01*
X153181750Y-118228000D01*
X153060000Y-118349750D01*
X153060000Y-117601309D01*
X153060000Y-116885750D01*
X152901250Y-116727000D01*
X152325000Y-116727000D01*
X152325000Y-117951250D01*
X152483750Y-118110000D01*
X152551310Y-118110000D01*
X152784699Y-118013327D01*
X152963327Y-117834698D01*
X153060000Y-117601309D01*
X153060000Y-118349750D01*
X153023000Y-118386750D01*
X153023000Y-119136000D01*
X153772250Y-119136000D01*
X153931000Y-118977250D01*
X153931000Y-118736690D01*
X153856165Y-118556023D01*
X154022690Y-118625000D01*
X154263250Y-118625000D01*
X154422000Y-118466250D01*
X154422000Y-123873000D01*
X153931000Y-123873000D01*
X153931000Y-119789310D01*
X153931000Y-119548750D01*
X153772250Y-119390000D01*
X153023000Y-119390000D01*
X153023000Y-120139250D01*
X153181750Y-120298000D01*
X153422309Y-120298000D01*
X153655698Y-120201327D01*
X153834327Y-120022699D01*
X153931000Y-119789310D01*
X153931000Y-123873000D01*
X147967000Y-123873000D01*
X147967000Y-120139250D01*
X147967000Y-119390000D01*
X147967000Y-119136000D01*
X147967000Y-118386750D01*
X147808250Y-118228000D01*
X147567691Y-118228000D01*
X147334302Y-118324673D01*
X147155673Y-118503301D01*
X147059000Y-118736690D01*
X147059000Y-118977250D01*
X147217750Y-119136000D01*
X147967000Y-119136000D01*
X147967000Y-119390000D01*
X147217750Y-119390000D01*
X147059000Y-119548750D01*
X147059000Y-119789310D01*
X147155673Y-120022699D01*
X147334302Y-120201327D01*
X147567691Y-120298000D01*
X147808250Y-120298000D01*
X147967000Y-120139250D01*
X147967000Y-123873000D01*
X147266238Y-123873000D01*
X147327000Y-123726310D01*
X147327000Y-123485750D01*
X147327000Y-122914250D01*
X147327000Y-122673690D01*
X147230327Y-122440301D01*
X147051698Y-122261673D01*
X146818309Y-122165000D01*
X146577750Y-122165000D01*
X146419000Y-122323750D01*
X146419000Y-123073000D01*
X147168250Y-123073000D01*
X147327000Y-122914250D01*
X147327000Y-123485750D01*
X147168250Y-123327000D01*
X146419000Y-123327000D01*
X146419000Y-123347000D01*
X146165000Y-123347000D01*
X146165000Y-123327000D01*
X146145000Y-123327000D01*
X146145000Y-123073000D01*
X146165000Y-123073000D01*
X146165000Y-122323750D01*
X146006250Y-122165000D01*
X145765691Y-122165000D01*
X145532302Y-122261673D01*
X145353673Y-122440301D01*
X145330829Y-122495450D01*
X145321813Y-122489364D01*
X145223800Y-122469708D01*
X145223800Y-122106669D01*
X145292000Y-122106669D01*
X145417904Y-122082241D01*
X145528562Y-122009550D01*
X145541663Y-121990141D01*
X145552450Y-122006562D01*
X145662187Y-122080636D01*
X145792000Y-122106669D01*
X146742000Y-122106669D01*
X146867904Y-122082241D01*
X146978562Y-122009550D01*
X147052636Y-121899813D01*
X147078669Y-121770000D01*
X147078669Y-120820000D01*
X147054241Y-120694096D01*
X146981550Y-120583438D01*
X146871813Y-120509364D01*
X146742000Y-120483331D01*
X146698800Y-120483331D01*
X146698800Y-119978349D01*
X146817904Y-119955241D01*
X146928562Y-119882550D01*
X147002636Y-119772813D01*
X147028669Y-119643000D01*
X147028669Y-118843000D01*
X147004241Y-118717096D01*
X146931550Y-118606438D01*
X146821813Y-118532364D01*
X146806800Y-118529353D01*
X146806800Y-118110000D01*
X146806800Y-118069450D01*
X146925000Y-117951250D01*
X146925000Y-117806516D01*
X146936673Y-117834698D01*
X147115301Y-118013327D01*
X147237830Y-118064080D01*
X147283750Y-118110000D01*
X147348690Y-118110000D01*
X147351310Y-118110000D01*
X147416250Y-118110000D01*
X147462169Y-118064080D01*
X147584699Y-118013327D01*
X147675000Y-117923025D01*
X147765301Y-118013327D01*
X147887830Y-118064080D01*
X147933750Y-118110000D01*
X147998690Y-118110000D01*
X148001310Y-118110000D01*
X148066250Y-118110000D01*
X148112169Y-118064080D01*
X148234699Y-118013327D01*
X148413327Y-117834698D01*
X148425000Y-117806516D01*
X148425000Y-117951250D01*
X148583750Y-118110000D01*
X148651310Y-118110000D01*
X148884699Y-118013327D01*
X149063327Y-117834698D01*
X149072865Y-117811669D01*
X149175000Y-117811669D01*
X149193200Y-117808137D01*
X149193200Y-118131153D01*
X149162200Y-118287000D01*
X149162200Y-118532500D01*
X149068096Y-118550759D01*
X149055430Y-118559078D01*
X149032327Y-118503301D01*
X148853698Y-118324673D01*
X148620309Y-118228000D01*
X148379750Y-118228000D01*
X148221000Y-118386750D01*
X148221000Y-119136000D01*
X148241000Y-119136000D01*
X148241000Y-119390000D01*
X148221000Y-119390000D01*
X148221000Y-120139250D01*
X148379750Y-120298000D01*
X148620309Y-120298000D01*
X148853698Y-120201327D01*
X149032327Y-120022699D01*
X149055170Y-119967549D01*
X149064187Y-119973636D01*
X149123400Y-119985510D01*
X149123400Y-121878148D01*
X149027947Y-121973435D01*
X148933008Y-122202074D01*
X148932792Y-122449640D01*
X149027332Y-122678444D01*
X149202235Y-122853653D01*
X149430874Y-122948592D01*
X149678440Y-122948808D01*
X149907244Y-122854268D01*
X150082453Y-122679365D01*
X150177392Y-122450726D01*
X150177608Y-122203160D01*
X150083068Y-121974356D01*
X149987000Y-121878119D01*
X149987000Y-119999669D01*
X149994000Y-119999669D01*
X150119904Y-119975241D01*
X150230562Y-119902550D01*
X150304636Y-119792813D01*
X150330669Y-119663000D01*
X150330669Y-118863000D01*
X150306241Y-118737096D01*
X150233550Y-118626438D01*
X150123813Y-118552364D01*
X150025800Y-118532708D01*
X150025800Y-118411851D01*
X150025800Y-118411846D01*
X150052411Y-118278069D01*
X150189671Y-118415329D01*
X150329757Y-118508931D01*
X150329758Y-118508931D01*
X150495000Y-118541800D01*
X150916271Y-118541800D01*
X150870096Y-118550759D01*
X150759438Y-118623450D01*
X150685364Y-118733187D01*
X150659331Y-118863000D01*
X150659331Y-119663000D01*
X150683759Y-119788904D01*
X150756450Y-119899562D01*
X150866187Y-119973636D01*
X150964200Y-119993291D01*
X150964200Y-122678969D01*
X150856747Y-122786235D01*
X150761808Y-123014874D01*
X150761592Y-123262440D01*
X150856132Y-123491244D01*
X151031035Y-123666453D01*
X151259674Y-123761392D01*
X151507240Y-123761608D01*
X151736044Y-123667068D01*
X151911253Y-123492165D01*
X152006192Y-123263526D01*
X152006408Y-123015960D01*
X151911868Y-122787156D01*
X151827800Y-122702940D01*
X151827800Y-119993499D01*
X151921904Y-119975241D01*
X151934569Y-119966921D01*
X151957673Y-120022699D01*
X152136302Y-120201327D01*
X152369691Y-120298000D01*
X152610250Y-120298000D01*
X152769000Y-120139250D01*
X152769000Y-119390000D01*
X152749000Y-119390000D01*
X152749000Y-119136000D01*
X152769000Y-119136000D01*
X152769000Y-118386750D01*
X152610250Y-118228000D01*
X152369691Y-118228000D01*
X152136302Y-118324673D01*
X151957673Y-118503301D01*
X151934829Y-118558450D01*
X151925813Y-118552364D01*
X151827800Y-118532708D01*
X151827800Y-118376005D01*
X151827800Y-118376000D01*
X151827801Y-118376000D01*
X151800384Y-118238173D01*
X151794931Y-118210758D01*
X151794931Y-118210757D01*
X151701329Y-118070671D01*
X151442327Y-117811669D01*
X151477134Y-117811669D01*
X151486673Y-117834698D01*
X151665301Y-118013327D01*
X151898690Y-118110000D01*
X151966250Y-118110000D01*
X152125000Y-117951250D01*
X152125000Y-116727000D01*
X152111669Y-116727000D01*
X152111669Y-116473000D01*
X152125000Y-116473000D01*
X152125000Y-116453000D01*
X152325000Y-116453000D01*
X152325000Y-116473000D01*
X152901250Y-116473000D01*
X153060000Y-116314250D01*
X153060000Y-115598691D01*
X153016552Y-115493800D01*
X153883176Y-115493800D01*
X153838364Y-115560187D01*
X153812331Y-115690000D01*
X153812331Y-116490000D01*
X153836759Y-116615904D01*
X153845078Y-116628569D01*
X153789301Y-116651673D01*
X153610673Y-116830302D01*
X153514000Y-117063691D01*
X153514000Y-117304250D01*
X153672750Y-117463000D01*
X154422000Y-117463000D01*
X154422000Y-117443000D01*
X154676000Y-117443000D01*
X154676000Y-117463000D01*
X155425250Y-117463000D01*
X155438000Y-117450250D01*
X155450750Y-117463000D01*
X156200000Y-117463000D01*
X156200000Y-117443000D01*
X156454000Y-117443000D01*
X156454000Y-117463000D01*
X156474000Y-117463000D01*
X156474000Y-117717000D01*
X156454000Y-117717000D01*
X156454000Y-118466250D01*
X156503518Y-118515768D01*
G36*
X161230342Y-90127000D02*
X160969671Y-90387671D01*
X160876069Y-90527757D01*
X160843200Y-90693000D01*
X160843200Y-93198331D01*
X160800000Y-93198331D01*
X160674096Y-93222759D01*
X160563438Y-93295450D01*
X160489364Y-93405187D01*
X160463331Y-93535000D01*
X160463331Y-94485000D01*
X160487759Y-94610904D01*
X160560450Y-94721562D01*
X160670187Y-94795636D01*
X160800000Y-94821669D01*
X160843200Y-94821669D01*
X160843200Y-95274650D01*
X160724096Y-95297759D01*
X160613438Y-95370450D01*
X160539364Y-95480187D01*
X160519708Y-95578200D01*
X160428400Y-95578200D01*
X160263157Y-95611069D01*
X160123071Y-95704671D01*
X159613071Y-96214671D01*
X159519469Y-96354757D01*
X159486600Y-96520000D01*
X159486600Y-98982742D01*
X158597071Y-99872271D01*
X158503469Y-100012357D01*
X158470600Y-100177600D01*
X158470600Y-106501142D01*
X158317144Y-106654598D01*
X153168469Y-106654598D01*
X153168469Y-105435400D01*
X153144041Y-105309496D01*
X153071350Y-105198838D01*
X152961613Y-105124764D01*
X152831800Y-105098731D01*
X151561800Y-105098731D01*
X151435896Y-105123159D01*
X151384070Y-105157203D01*
X151336013Y-105124764D01*
X151206200Y-105098731D01*
X149936200Y-105098731D01*
X149810296Y-105123159D01*
X149758470Y-105157203D01*
X149710413Y-105124764D01*
X149580600Y-105098731D01*
X148371601Y-105098731D01*
X148371601Y-105019857D01*
X148718058Y-104673400D01*
X151761600Y-104673400D01*
X151926842Y-104640531D01*
X151926843Y-104640531D01*
X152066929Y-104546929D01*
X153055325Y-103558531D01*
X153055329Y-103558529D01*
X153055329Y-103558528D01*
X153148931Y-103418443D01*
X153148931Y-103418442D01*
X153154384Y-103391026D01*
X153155251Y-103386669D01*
X155550000Y-103386669D01*
X155675904Y-103362241D01*
X155786562Y-103289550D01*
X155860636Y-103179813D01*
X155886669Y-103050000D01*
X155886669Y-100950000D01*
X155862241Y-100824096D01*
X155789550Y-100713438D01*
X155679813Y-100639364D01*
X155550000Y-100613331D01*
X149950000Y-100613331D01*
X149824096Y-100637759D01*
X149713438Y-100710450D01*
X149639364Y-100820187D01*
X149613331Y-100950000D01*
X149613331Y-103050000D01*
X149637759Y-103175904D01*
X149710450Y-103286562D01*
X149820187Y-103360636D01*
X149950000Y-103386669D01*
X152005873Y-103386669D01*
X151582742Y-103809800D01*
X148539200Y-103809800D01*
X148373957Y-103842669D01*
X148233871Y-103936271D01*
X147634472Y-104535670D01*
X147540870Y-104675756D01*
X147508001Y-104840999D01*
X147508001Y-105146896D01*
X147475213Y-105124764D01*
X147345400Y-105098731D01*
X146075400Y-105098731D01*
X145949496Y-105123159D01*
X145923000Y-105140564D01*
X145923000Y-104851205D01*
X145923000Y-104851200D01*
X145923001Y-104851200D01*
X145895584Y-104713373D01*
X145890131Y-104685958D01*
X145890131Y-104685957D01*
X145796529Y-104545871D01*
X144983729Y-103733071D01*
X144843643Y-103639469D01*
X144678400Y-103606600D01*
X144214057Y-103606600D01*
X143994126Y-103386669D01*
X146050000Y-103386669D01*
X146175904Y-103362241D01*
X146286562Y-103289550D01*
X146360636Y-103179813D01*
X146386669Y-103050000D01*
X146386669Y-100950000D01*
X146362241Y-100824096D01*
X146289550Y-100713438D01*
X146179813Y-100639364D01*
X146050000Y-100613331D01*
X140450000Y-100613331D01*
X140324096Y-100637759D01*
X140213438Y-100710450D01*
X140139364Y-100820187D01*
X140127000Y-100881839D01*
X140127000Y-99127000D01*
X159000000Y-99127000D01*
X159048601Y-99117333D01*
X159089803Y-99089803D01*
X159117333Y-99048601D01*
X159127000Y-99000000D01*
X159127000Y-90127000D01*
X161230342Y-90127000D01*
X161230342Y-90127000D01*
G37*
X161230342Y-90127000D02*
X160969671Y-90387671D01*
X160876069Y-90527757D01*
X160843200Y-90693000D01*
X160843200Y-93198331D01*
X160800000Y-93198331D01*
X160674096Y-93222759D01*
X160563438Y-93295450D01*
X160489364Y-93405187D01*
X160463331Y-93535000D01*
X160463331Y-94485000D01*
X160487759Y-94610904D01*
X160560450Y-94721562D01*
X160670187Y-94795636D01*
X160800000Y-94821669D01*
X160843200Y-94821669D01*
X160843200Y-95274650D01*
X160724096Y-95297759D01*
X160613438Y-95370450D01*
X160539364Y-95480187D01*
X160519708Y-95578200D01*
X160428400Y-95578200D01*
X160263157Y-95611069D01*
X160123071Y-95704671D01*
X159613071Y-96214671D01*
X159519469Y-96354757D01*
X159486600Y-96520000D01*
X159486600Y-98982742D01*
X158597071Y-99872271D01*
X158503469Y-100012357D01*
X158470600Y-100177600D01*
X158470600Y-106501142D01*
X158317144Y-106654598D01*
X153168469Y-106654598D01*
X153168469Y-105435400D01*
X153144041Y-105309496D01*
X153071350Y-105198838D01*
X152961613Y-105124764D01*
X152831800Y-105098731D01*
X151561800Y-105098731D01*
X151435896Y-105123159D01*
X151384070Y-105157203D01*
X151336013Y-105124764D01*
X151206200Y-105098731D01*
X149936200Y-105098731D01*
X149810296Y-105123159D01*
X149758470Y-105157203D01*
X149710413Y-105124764D01*
X149580600Y-105098731D01*
X148371601Y-105098731D01*
X148371601Y-105019857D01*
X148718058Y-104673400D01*
X151761600Y-104673400D01*
X151926842Y-104640531D01*
X151926843Y-104640531D01*
X152066929Y-104546929D01*
X153055325Y-103558531D01*
X153055329Y-103558529D01*
X153055329Y-103558528D01*
X153148931Y-103418443D01*
X153148931Y-103418442D01*
X153154384Y-103391026D01*
X153155251Y-103386669D01*
X155550000Y-103386669D01*
X155675904Y-103362241D01*
X155786562Y-103289550D01*
X155860636Y-103179813D01*
X155886669Y-103050000D01*
X155886669Y-100950000D01*
X155862241Y-100824096D01*
X155789550Y-100713438D01*
X155679813Y-100639364D01*
X155550000Y-100613331D01*
X149950000Y-100613331D01*
X149824096Y-100637759D01*
X149713438Y-100710450D01*
X149639364Y-100820187D01*
X149613331Y-100950000D01*
X149613331Y-103050000D01*
X149637759Y-103175904D01*
X149710450Y-103286562D01*
X149820187Y-103360636D01*
X149950000Y-103386669D01*
X152005873Y-103386669D01*
X151582742Y-103809800D01*
X148539200Y-103809800D01*
X148373957Y-103842669D01*
X148233871Y-103936271D01*
X147634472Y-104535670D01*
X147540870Y-104675756D01*
X147508001Y-104840999D01*
X147508001Y-105146896D01*
X147475213Y-105124764D01*
X147345400Y-105098731D01*
X146075400Y-105098731D01*
X145949496Y-105123159D01*
X145923000Y-105140564D01*
X145923000Y-104851205D01*
X145923000Y-104851200D01*
X145923001Y-104851200D01*
X145895584Y-104713373D01*
X145890131Y-104685958D01*
X145890131Y-104685957D01*
X145796529Y-104545871D01*
X144983729Y-103733071D01*
X144843643Y-103639469D01*
X144678400Y-103606600D01*
X144214057Y-103606600D01*
X143994126Y-103386669D01*
X146050000Y-103386669D01*
X146175904Y-103362241D01*
X146286562Y-103289550D01*
X146360636Y-103179813D01*
X146386669Y-103050000D01*
X146386669Y-100950000D01*
X146362241Y-100824096D01*
X146289550Y-100713438D01*
X146179813Y-100639364D01*
X146050000Y-100613331D01*
X140450000Y-100613331D01*
X140324096Y-100637759D01*
X140213438Y-100710450D01*
X140139364Y-100820187D01*
X140127000Y-100881839D01*
X140127000Y-99127000D01*
X159000000Y-99127000D01*
X159048601Y-99117333D01*
X159089803Y-99089803D01*
X159117333Y-99048601D01*
X159127000Y-99000000D01*
X159127000Y-90127000D01*
X161230342Y-90127000D01*
G36*
X177846394Y-105168200D02*
X177086669Y-105168200D01*
X177086669Y-105100000D01*
X177062241Y-104974096D01*
X176989550Y-104863438D01*
X176879813Y-104789364D01*
X176750000Y-104763331D01*
X173250000Y-104763331D01*
X173124096Y-104787759D01*
X173013438Y-104860450D01*
X172939364Y-104970187D01*
X172913331Y-105100000D01*
X172913331Y-105168200D01*
X170259563Y-105168200D01*
X170228165Y-105136747D01*
X169999526Y-105041808D01*
X169751960Y-105041592D01*
X169697400Y-105064135D01*
X169697400Y-104841587D01*
X169750874Y-104863792D01*
X169998440Y-104864008D01*
X170227244Y-104769468D01*
X170323480Y-104673400D01*
X172110400Y-104673400D01*
X172275642Y-104640531D01*
X172275643Y-104640531D01*
X172415729Y-104546929D01*
X172913331Y-104049326D01*
X172913331Y-104100000D01*
X172937759Y-104225904D01*
X173010450Y-104336562D01*
X173120187Y-104410636D01*
X173250000Y-104436669D01*
X176750000Y-104436669D01*
X176875904Y-104412241D01*
X176986562Y-104339550D01*
X177060636Y-104229813D01*
X177086669Y-104100000D01*
X177086669Y-103100000D01*
X177062241Y-102974096D01*
X176989550Y-102863438D01*
X176879813Y-102789364D01*
X176750000Y-102763331D01*
X173250000Y-102763331D01*
X173124096Y-102787759D01*
X173013438Y-102860450D01*
X172939364Y-102970187D01*
X172913331Y-103100000D01*
X172913331Y-103168200D01*
X172752000Y-103168200D01*
X172586757Y-103201069D01*
X172446671Y-103294671D01*
X172446668Y-103294674D01*
X171931542Y-103809800D01*
X171513310Y-103809800D01*
X171649644Y-103753468D01*
X171824853Y-103578565D01*
X171919792Y-103349926D01*
X171920008Y-103102360D01*
X171825468Y-102873556D01*
X171729400Y-102777319D01*
X171729400Y-101032251D01*
X171824853Y-100936965D01*
X171919792Y-100708326D01*
X171920008Y-100460760D01*
X171825468Y-100231956D01*
X171650565Y-100056747D01*
X171421926Y-99961808D01*
X171174360Y-99961592D01*
X170945556Y-100056132D01*
X170770347Y-100231035D01*
X170675408Y-100459674D01*
X170675192Y-100707240D01*
X170769732Y-100936044D01*
X170865800Y-101032280D01*
X170865800Y-102777348D01*
X170770347Y-102872635D01*
X170675408Y-103101274D01*
X170675192Y-103348840D01*
X170769732Y-103577644D01*
X170944635Y-103752853D01*
X171081778Y-103809800D01*
X170323451Y-103809800D01*
X170228165Y-103714347D01*
X169999526Y-103619408D01*
X169751960Y-103619192D01*
X169697400Y-103641735D01*
X169697400Y-92922225D01*
X169745625Y-92874000D01*
X170548156Y-92874000D01*
X170598450Y-92950562D01*
X170617858Y-92963663D01*
X170601438Y-92974450D01*
X170527364Y-93084187D01*
X170501331Y-93214000D01*
X170501331Y-94164000D01*
X170525759Y-94289904D01*
X170598450Y-94400562D01*
X170708187Y-94474636D01*
X170838000Y-94500669D01*
X171788000Y-94500669D01*
X171913904Y-94476241D01*
X172024562Y-94403550D01*
X172098636Y-94293813D01*
X172124669Y-94164000D01*
X172124669Y-94120800D01*
X175399742Y-94120800D01*
X177165000Y-95886058D01*
X177165000Y-96616974D01*
X177109699Y-96561673D01*
X176876310Y-96465000D01*
X176623691Y-96465000D01*
X175285750Y-96465000D01*
X175127000Y-96623750D01*
X175127000Y-97473000D01*
X175147000Y-97473000D01*
X175147000Y-97727000D01*
X175127000Y-97727000D01*
X175127000Y-98576250D01*
X175150750Y-98600000D01*
X175127000Y-98623750D01*
X175127000Y-99473000D01*
X175147000Y-99473000D01*
X175147000Y-99727000D01*
X175127000Y-99727000D01*
X175127000Y-100576250D01*
X175285750Y-100735000D01*
X176623691Y-100735000D01*
X176876310Y-100735000D01*
X177109699Y-100638327D01*
X177165000Y-100583025D01*
X177165000Y-101014742D01*
X177085543Y-101094199D01*
X177062241Y-100974096D01*
X176989550Y-100863438D01*
X176879813Y-100789364D01*
X176750000Y-100763331D01*
X174873000Y-100763331D01*
X174873000Y-100576250D01*
X174873000Y-99727000D01*
X174873000Y-99473000D01*
X174873000Y-98623750D01*
X174849250Y-98600000D01*
X174873000Y-98576250D01*
X174873000Y-97727000D01*
X174873000Y-97473000D01*
X174873000Y-96623750D01*
X174714250Y-96465000D01*
X173376309Y-96465000D01*
X173123690Y-96465000D01*
X172890301Y-96561673D01*
X172711673Y-96740302D01*
X172615000Y-96973691D01*
X172615000Y-97314250D01*
X172773750Y-97473000D01*
X174873000Y-97473000D01*
X174873000Y-97727000D01*
X172773750Y-97727000D01*
X172615000Y-97885750D01*
X172615000Y-98226309D01*
X172711673Y-98459698D01*
X172851974Y-98600000D01*
X172711673Y-98740302D01*
X172615000Y-98973691D01*
X172615000Y-99314250D01*
X172773750Y-99473000D01*
X174873000Y-99473000D01*
X174873000Y-99727000D01*
X172773750Y-99727000D01*
X172615000Y-99885750D01*
X172615000Y-100226309D01*
X172711673Y-100459698D01*
X172890301Y-100638327D01*
X173123690Y-100735000D01*
X173376309Y-100735000D01*
X174714250Y-100735000D01*
X174873000Y-100576250D01*
X174873000Y-100763331D01*
X173250000Y-100763331D01*
X173124096Y-100787759D01*
X173013438Y-100860450D01*
X172939364Y-100970187D01*
X172913331Y-101100000D01*
X172913331Y-102100000D01*
X172937759Y-102225904D01*
X173010450Y-102336562D01*
X173120187Y-102410636D01*
X173250000Y-102436669D01*
X176750000Y-102436669D01*
X176875904Y-102412241D01*
X176986562Y-102339550D01*
X177060636Y-102229813D01*
X177086669Y-102100000D01*
X177086669Y-102031800D01*
X177190400Y-102031800D01*
X177355642Y-101998931D01*
X177355643Y-101998931D01*
X177495729Y-101905329D01*
X177774600Y-101626457D01*
X177774600Y-104199748D01*
X177679147Y-104295035D01*
X177584208Y-104523674D01*
X177583992Y-104771240D01*
X177678532Y-105000044D01*
X177846394Y-105168200D01*
X177846394Y-105168200D01*
G37*
X177846394Y-105168200D02*
X177086669Y-105168200D01*
X177086669Y-105100000D01*
X177062241Y-104974096D01*
X176989550Y-104863438D01*
X176879813Y-104789364D01*
X176750000Y-104763331D01*
X173250000Y-104763331D01*
X173124096Y-104787759D01*
X173013438Y-104860450D01*
X172939364Y-104970187D01*
X172913331Y-105100000D01*
X172913331Y-105168200D01*
X170259563Y-105168200D01*
X170228165Y-105136747D01*
X169999526Y-105041808D01*
X169751960Y-105041592D01*
X169697400Y-105064135D01*
X169697400Y-104841587D01*
X169750874Y-104863792D01*
X169998440Y-104864008D01*
X170227244Y-104769468D01*
X170323480Y-104673400D01*
X172110400Y-104673400D01*
X172275642Y-104640531D01*
X172275643Y-104640531D01*
X172415729Y-104546929D01*
X172913331Y-104049326D01*
X172913331Y-104100000D01*
X172937759Y-104225904D01*
X173010450Y-104336562D01*
X173120187Y-104410636D01*
X173250000Y-104436669D01*
X176750000Y-104436669D01*
X176875904Y-104412241D01*
X176986562Y-104339550D01*
X177060636Y-104229813D01*
X177086669Y-104100000D01*
X177086669Y-103100000D01*
X177062241Y-102974096D01*
X176989550Y-102863438D01*
X176879813Y-102789364D01*
X176750000Y-102763331D01*
X173250000Y-102763331D01*
X173124096Y-102787759D01*
X173013438Y-102860450D01*
X172939364Y-102970187D01*
X172913331Y-103100000D01*
X172913331Y-103168200D01*
X172752000Y-103168200D01*
X172586757Y-103201069D01*
X172446671Y-103294671D01*
X172446668Y-103294674D01*
X171931542Y-103809800D01*
X171513310Y-103809800D01*
X171649644Y-103753468D01*
X171824853Y-103578565D01*
X171919792Y-103349926D01*
X171920008Y-103102360D01*
X171825468Y-102873556D01*
X171729400Y-102777319D01*
X171729400Y-101032251D01*
X171824853Y-100936965D01*
X171919792Y-100708326D01*
X171920008Y-100460760D01*
X171825468Y-100231956D01*
X171650565Y-100056747D01*
X171421926Y-99961808D01*
X171174360Y-99961592D01*
X170945556Y-100056132D01*
X170770347Y-100231035D01*
X170675408Y-100459674D01*
X170675192Y-100707240D01*
X170769732Y-100936044D01*
X170865800Y-101032280D01*
X170865800Y-102777348D01*
X170770347Y-102872635D01*
X170675408Y-103101274D01*
X170675192Y-103348840D01*
X170769732Y-103577644D01*
X170944635Y-103752853D01*
X171081778Y-103809800D01*
X170323451Y-103809800D01*
X170228165Y-103714347D01*
X169999526Y-103619408D01*
X169751960Y-103619192D01*
X169697400Y-103641735D01*
X169697400Y-92922225D01*
X169745625Y-92874000D01*
X170548156Y-92874000D01*
X170598450Y-92950562D01*
X170617858Y-92963663D01*
X170601438Y-92974450D01*
X170527364Y-93084187D01*
X170501331Y-93214000D01*
X170501331Y-94164000D01*
X170525759Y-94289904D01*
X170598450Y-94400562D01*
X170708187Y-94474636D01*
X170838000Y-94500669D01*
X171788000Y-94500669D01*
X171913904Y-94476241D01*
X172024562Y-94403550D01*
X172098636Y-94293813D01*
X172124669Y-94164000D01*
X172124669Y-94120800D01*
X175399742Y-94120800D01*
X177165000Y-95886058D01*
X177165000Y-96616974D01*
X177109699Y-96561673D01*
X176876310Y-96465000D01*
X176623691Y-96465000D01*
X175285750Y-96465000D01*
X175127000Y-96623750D01*
X175127000Y-97473000D01*
X175147000Y-97473000D01*
X175147000Y-97727000D01*
X175127000Y-97727000D01*
X175127000Y-98576250D01*
X175150750Y-98600000D01*
X175127000Y-98623750D01*
X175127000Y-99473000D01*
X175147000Y-99473000D01*
X175147000Y-99727000D01*
X175127000Y-99727000D01*
X175127000Y-100576250D01*
X175285750Y-100735000D01*
X176623691Y-100735000D01*
X176876310Y-100735000D01*
X177109699Y-100638327D01*
X177165000Y-100583025D01*
X177165000Y-101014742D01*
X177085543Y-101094199D01*
X177062241Y-100974096D01*
X176989550Y-100863438D01*
X176879813Y-100789364D01*
X176750000Y-100763331D01*
X174873000Y-100763331D01*
X174873000Y-100576250D01*
X174873000Y-99727000D01*
X174873000Y-99473000D01*
X174873000Y-98623750D01*
X174849250Y-98600000D01*
X174873000Y-98576250D01*
X174873000Y-97727000D01*
X174873000Y-97473000D01*
X174873000Y-96623750D01*
X174714250Y-96465000D01*
X173376309Y-96465000D01*
X173123690Y-96465000D01*
X172890301Y-96561673D01*
X172711673Y-96740302D01*
X172615000Y-96973691D01*
X172615000Y-97314250D01*
X172773750Y-97473000D01*
X174873000Y-97473000D01*
X174873000Y-97727000D01*
X172773750Y-97727000D01*
X172615000Y-97885750D01*
X172615000Y-98226309D01*
X172711673Y-98459698D01*
X172851974Y-98600000D01*
X172711673Y-98740302D01*
X172615000Y-98973691D01*
X172615000Y-99314250D01*
X172773750Y-99473000D01*
X174873000Y-99473000D01*
X174873000Y-99727000D01*
X172773750Y-99727000D01*
X172615000Y-99885750D01*
X172615000Y-100226309D01*
X172711673Y-100459698D01*
X172890301Y-100638327D01*
X173123690Y-100735000D01*
X173376309Y-100735000D01*
X174714250Y-100735000D01*
X174873000Y-100576250D01*
X174873000Y-100763331D01*
X173250000Y-100763331D01*
X173124096Y-100787759D01*
X173013438Y-100860450D01*
X172939364Y-100970187D01*
X172913331Y-101100000D01*
X172913331Y-102100000D01*
X172937759Y-102225904D01*
X173010450Y-102336562D01*
X173120187Y-102410636D01*
X173250000Y-102436669D01*
X176750000Y-102436669D01*
X176875904Y-102412241D01*
X176986562Y-102339550D01*
X177060636Y-102229813D01*
X177086669Y-102100000D01*
X177086669Y-102031800D01*
X177190400Y-102031800D01*
X177355642Y-101998931D01*
X177355643Y-101998931D01*
X177495729Y-101905329D01*
X177774600Y-101626457D01*
X177774600Y-104199748D01*
X177679147Y-104295035D01*
X177584208Y-104523674D01*
X177583992Y-104771240D01*
X177678532Y-105000044D01*
X177846394Y-105168200D01*
G36*
X188063000Y-91604000D02*
X172077843Y-91604000D01*
X172027550Y-91527438D01*
X171917813Y-91453364D01*
X171788000Y-91427331D01*
X170838000Y-91427331D01*
X170712096Y-91451759D01*
X170601438Y-91524450D01*
X170547740Y-91604000D01*
X169482605Y-91604000D01*
X169482600Y-91603999D01*
X169239596Y-91652336D01*
X169033587Y-91789987D01*
X169033584Y-91789990D01*
X168613387Y-92210187D01*
X168475736Y-92416196D01*
X168427400Y-92659200D01*
X168427400Y-108483400D01*
X162089000Y-108483400D01*
X162089000Y-107708843D01*
X162165562Y-107658550D01*
X162178663Y-107639141D01*
X162189450Y-107655562D01*
X162299187Y-107729636D01*
X162429000Y-107755669D01*
X163379000Y-107755669D01*
X163504904Y-107731241D01*
X163615562Y-107658550D01*
X163689636Y-107548813D01*
X163715669Y-107419000D01*
X163715669Y-107375800D01*
X163921600Y-107375800D01*
X164086842Y-107342931D01*
X164086843Y-107342931D01*
X164226929Y-107249329D01*
X164575329Y-106900929D01*
X164668931Y-106760843D01*
X164668931Y-106760842D01*
X164701800Y-106595600D01*
X164701800Y-105098669D01*
X165032000Y-105098669D01*
X165157904Y-105074241D01*
X165268562Y-105001550D01*
X165342636Y-104891813D01*
X165368669Y-104762000D01*
X165368669Y-103238000D01*
X165344241Y-103112096D01*
X165271550Y-103001438D01*
X165161813Y-102927364D01*
X165032000Y-102901331D01*
X163835000Y-102901331D01*
X163835000Y-101611310D01*
X163835000Y-101358691D01*
X163835000Y-101295750D01*
X163835000Y-100724250D01*
X163835000Y-100661309D01*
X163835000Y-100408690D01*
X163835000Y-94611310D01*
X163835000Y-94358691D01*
X163835000Y-94295750D01*
X163835000Y-93724250D01*
X163835000Y-93661309D01*
X163835000Y-93408690D01*
X163738327Y-93175301D01*
X163559698Y-92996673D01*
X163326309Y-92900000D01*
X163010750Y-92900000D01*
X162852000Y-93058750D01*
X162852000Y-93883000D01*
X163676250Y-93883000D01*
X163835000Y-93724250D01*
X163835000Y-94295750D01*
X163676250Y-94137000D01*
X162852000Y-94137000D01*
X162852000Y-94961250D01*
X162950750Y-95060000D01*
X162877000Y-95133750D01*
X162877000Y-95883000D01*
X163626250Y-95883000D01*
X163785000Y-95724250D01*
X163785000Y-95483690D01*
X163688327Y-95250301D01*
X163509698Y-95071673D01*
X163476339Y-95057855D01*
X163559698Y-95023327D01*
X163738327Y-94844699D01*
X163835000Y-94611310D01*
X163835000Y-100408690D01*
X163738327Y-100175301D01*
X163559698Y-99996673D01*
X163476339Y-99962144D01*
X163509698Y-99948327D01*
X163688327Y-99769699D01*
X163785000Y-99536310D01*
X163785000Y-99295750D01*
X163785000Y-98724250D01*
X163785000Y-98483690D01*
X163785000Y-96536310D01*
X163785000Y-96295750D01*
X163626250Y-96137000D01*
X162877000Y-96137000D01*
X162877000Y-96886250D01*
X163035750Y-97045000D01*
X163276309Y-97045000D01*
X163509698Y-96948327D01*
X163688327Y-96769699D01*
X163785000Y-96536310D01*
X163785000Y-98483690D01*
X163688327Y-98250301D01*
X163509698Y-98071673D01*
X163276309Y-97975000D01*
X163035750Y-97975000D01*
X162877000Y-98133750D01*
X162877000Y-98883000D01*
X163626250Y-98883000D01*
X163785000Y-98724250D01*
X163785000Y-99295750D01*
X163626250Y-99137000D01*
X162877000Y-99137000D01*
X162877000Y-99886250D01*
X162950750Y-99960000D01*
X162852000Y-100058750D01*
X162852000Y-100883000D01*
X163676250Y-100883000D01*
X163835000Y-100724250D01*
X163835000Y-101295750D01*
X163676250Y-101137000D01*
X162852000Y-101137000D01*
X162852000Y-101961250D01*
X163010750Y-102120000D01*
X163326309Y-102120000D01*
X163559698Y-102023327D01*
X163738327Y-101844699D01*
X163835000Y-101611310D01*
X163835000Y-102901331D01*
X163508000Y-102901331D01*
X163382096Y-102925759D01*
X163271438Y-102998450D01*
X163197364Y-103108187D01*
X163171331Y-103238000D01*
X163171331Y-104762000D01*
X163195759Y-104887904D01*
X163268450Y-104998562D01*
X163378187Y-105072636D01*
X163508000Y-105098669D01*
X163838200Y-105098669D01*
X163838200Y-106416742D01*
X163742742Y-106512200D01*
X163715669Y-106512200D01*
X163715669Y-106469000D01*
X163691241Y-106343096D01*
X163618550Y-106232438D01*
X163508813Y-106158364D01*
X163379000Y-106132331D01*
X163139144Y-106132331D01*
X163139144Y-104207698D01*
X163111362Y-103652632D01*
X162952397Y-103268857D01*
X162710213Y-103199392D01*
X162530608Y-103378997D01*
X162530608Y-103019787D01*
X162461143Y-102777603D01*
X161937698Y-102590856D01*
X161382632Y-102618638D01*
X160998857Y-102777603D01*
X160929392Y-103019787D01*
X161730000Y-103820395D01*
X162530608Y-103019787D01*
X162530608Y-103378997D01*
X161909605Y-104000000D01*
X162710213Y-104800608D01*
X162952397Y-104731143D01*
X163139144Y-104207698D01*
X163139144Y-106132331D01*
X162530608Y-106132331D01*
X162530608Y-104980213D01*
X161730000Y-104179605D01*
X161550395Y-104359210D01*
X161550395Y-104000000D01*
X160749787Y-103199392D01*
X160507603Y-103268857D01*
X160320856Y-103792302D01*
X160348638Y-104347368D01*
X160507603Y-104731143D01*
X160749787Y-104800608D01*
X161550395Y-104000000D01*
X161550395Y-104359210D01*
X160929392Y-104980213D01*
X160998857Y-105222397D01*
X161522302Y-105409144D01*
X162077368Y-105381362D01*
X162461143Y-105222397D01*
X162530608Y-104980213D01*
X162530608Y-106132331D01*
X162429000Y-106132331D01*
X162303096Y-106156759D01*
X162192438Y-106229450D01*
X162179336Y-106248858D01*
X162168550Y-106232438D01*
X162058813Y-106158364D01*
X161929000Y-106132331D01*
X160979000Y-106132331D01*
X160853096Y-106156759D01*
X160742438Y-106229450D01*
X160668364Y-106339187D01*
X160642331Y-106469000D01*
X160642331Y-107419000D01*
X160666759Y-107544904D01*
X160739450Y-107655562D01*
X160819000Y-107709259D01*
X160819000Y-108483400D01*
X155854400Y-108483400D01*
X155611396Y-108531736D01*
X155405387Y-108669387D01*
X155267736Y-108875396D01*
X155219400Y-109118400D01*
X155219400Y-114808000D01*
X155232044Y-114871566D01*
X155231992Y-114931240D01*
X155254980Y-114986875D01*
X155267736Y-115051004D01*
X155303744Y-115104895D01*
X155326532Y-115160044D01*
X155369061Y-115202647D01*
X155405387Y-115257013D01*
X155459276Y-115293021D01*
X155501435Y-115335253D01*
X155557031Y-115358338D01*
X155611396Y-115394664D01*
X155674963Y-115407308D01*
X155724683Y-115427953D01*
X155690438Y-115450450D01*
X155616364Y-115560187D01*
X155596708Y-115658200D01*
X155279499Y-115658200D01*
X155261241Y-115564096D01*
X155188550Y-115453438D01*
X155078813Y-115379364D01*
X154965615Y-115356663D01*
X154947931Y-115267757D01*
X154854329Y-115127671D01*
X154483329Y-114756671D01*
X154343243Y-114663069D01*
X154178000Y-114630200D01*
X151765005Y-114630200D01*
X151765000Y-114630199D01*
X151599758Y-114663068D01*
X151553274Y-114694127D01*
X151459671Y-114756671D01*
X151459668Y-114756674D01*
X151269671Y-114946671D01*
X151176069Y-115086757D01*
X151143200Y-115252000D01*
X151143200Y-115391980D01*
X151125000Y-115388331D01*
X150725000Y-115388331D01*
X150599096Y-115412759D01*
X150598561Y-115413110D01*
X150475000Y-115388331D01*
X150075000Y-115388331D01*
X149949096Y-115412759D01*
X149948561Y-115413110D01*
X149825000Y-115388331D01*
X149425000Y-115388331D01*
X149299096Y-115412759D01*
X149298561Y-115413110D01*
X149175000Y-115388331D01*
X149072865Y-115388331D01*
X149063327Y-115365302D01*
X148884699Y-115186673D01*
X148651310Y-115090000D01*
X148583750Y-115090000D01*
X148425000Y-115248750D01*
X148425000Y-115393483D01*
X148413327Y-115365302D01*
X148234699Y-115186673D01*
X148112169Y-115135919D01*
X148066250Y-115090000D01*
X148001310Y-115090000D01*
X147998690Y-115090000D01*
X147933750Y-115090000D01*
X147887830Y-115135919D01*
X147765301Y-115186673D01*
X147675000Y-115276974D01*
X147584699Y-115186673D01*
X147462169Y-115135919D01*
X147416250Y-115090000D01*
X147351310Y-115090000D01*
X147348690Y-115090000D01*
X147283750Y-115090000D01*
X147237830Y-115135919D01*
X147115301Y-115186673D01*
X146936673Y-115365302D01*
X146925000Y-115393483D01*
X146925000Y-115248750D01*
X146766250Y-115090000D01*
X146698690Y-115090000D01*
X146465301Y-115186673D01*
X146286673Y-115365302D01*
X146277134Y-115388331D01*
X146175000Y-115388331D01*
X146156800Y-115391862D01*
X146156800Y-115041800D01*
X146123931Y-114876557D01*
X146030329Y-114736471D01*
X146030325Y-114736468D01*
X145864933Y-114571076D01*
X145976474Y-114617392D01*
X146224040Y-114617608D01*
X146452844Y-114523068D01*
X146628053Y-114348165D01*
X146722992Y-114119526D01*
X146723208Y-113871960D01*
X146628668Y-113643156D01*
X146453765Y-113467947D01*
X146225126Y-113373008D01*
X146156800Y-113372948D01*
X146156800Y-112694718D01*
X146382874Y-112788592D01*
X146630440Y-112788808D01*
X146859244Y-112694268D01*
X147034453Y-112519365D01*
X147129392Y-112290726D01*
X147129608Y-112043160D01*
X147035068Y-111814356D01*
X146860165Y-111639147D01*
X146806800Y-111616987D01*
X146806800Y-110608019D01*
X146825000Y-110611669D01*
X147225000Y-110611669D01*
X147350904Y-110587241D01*
X147351438Y-110586889D01*
X147475000Y-110611669D01*
X147875000Y-110611669D01*
X148000904Y-110587241D01*
X148001438Y-110586889D01*
X148125000Y-110611669D01*
X148525000Y-110611669D01*
X148543200Y-110608137D01*
X148543200Y-110773400D01*
X148576069Y-110938643D01*
X148669671Y-111078729D01*
X148729709Y-111138767D01*
X148729592Y-111273640D01*
X148824132Y-111502444D01*
X148999035Y-111677653D01*
X149227674Y-111772592D01*
X149475240Y-111772808D01*
X149704044Y-111678268D01*
X149879253Y-111503365D01*
X149974192Y-111274726D01*
X149974408Y-111027160D01*
X149879868Y-110798356D01*
X149704965Y-110623147D01*
X149677322Y-110611669D01*
X149825000Y-110611669D01*
X149950904Y-110587241D01*
X149951438Y-110586889D01*
X150075000Y-110611669D01*
X150475000Y-110611669D01*
X150600904Y-110587241D01*
X150601438Y-110586889D01*
X150725000Y-110611669D01*
X151125000Y-110611669D01*
X151250904Y-110587241D01*
X151251438Y-110586889D01*
X151375000Y-110611669D01*
X151775000Y-110611669D01*
X151900904Y-110587241D01*
X151901438Y-110586889D01*
X152025000Y-110611669D01*
X152425000Y-110611669D01*
X152550904Y-110587241D01*
X152661562Y-110514550D01*
X152735636Y-110404813D01*
X152761669Y-110275000D01*
X152761669Y-108554589D01*
X153188458Y-108127800D01*
X153729631Y-108127800D01*
X153701547Y-108155835D01*
X153606608Y-108384474D01*
X153606392Y-108632040D01*
X153700932Y-108860844D01*
X153797000Y-108957080D01*
X153797000Y-111718148D01*
X153701547Y-111813435D01*
X153606608Y-112042074D01*
X153606392Y-112289640D01*
X153700932Y-112518444D01*
X153875835Y-112693653D01*
X154104474Y-112788592D01*
X154352040Y-112788808D01*
X154580844Y-112694268D01*
X154756053Y-112519365D01*
X154850992Y-112290726D01*
X154851208Y-112043160D01*
X154756668Y-111814356D01*
X154660600Y-111718119D01*
X154660600Y-108957051D01*
X154756053Y-108861765D01*
X154850992Y-108633126D01*
X154851208Y-108385560D01*
X154756668Y-108156756D01*
X154727762Y-108127800D01*
X158902400Y-108127800D01*
X159067642Y-108094931D01*
X159067643Y-108094931D01*
X159207729Y-108001329D01*
X160020529Y-107188529D01*
X160114131Y-107048443D01*
X160114131Y-107048442D01*
X160119584Y-107021026D01*
X160147000Y-106883200D01*
X160147001Y-106883200D01*
X160147000Y-106883194D01*
X160147000Y-101575658D01*
X160280858Y-101441800D01*
X160463331Y-101441800D01*
X160463331Y-101485000D01*
X160487759Y-101610904D01*
X160560450Y-101721562D01*
X160670187Y-101795636D01*
X160800000Y-101821669D01*
X161702133Y-101821669D01*
X161711673Y-101844699D01*
X161890302Y-102023327D01*
X162123691Y-102120000D01*
X162439250Y-102120000D01*
X162598000Y-101961250D01*
X162598000Y-101137000D01*
X162578000Y-101137000D01*
X162578000Y-100883000D01*
X162598000Y-100883000D01*
X162598000Y-100058750D01*
X162524250Y-99985000D01*
X162623000Y-99886250D01*
X162623000Y-99137000D01*
X162603000Y-99137000D01*
X162603000Y-98883000D01*
X162623000Y-98883000D01*
X162623000Y-98133750D01*
X162464250Y-97975000D01*
X162223691Y-97975000D01*
X161990302Y-98071673D01*
X161811673Y-98250301D01*
X161788829Y-98305450D01*
X161779813Y-98299364D01*
X161650000Y-98273331D01*
X160850000Y-98273331D01*
X160724096Y-98297759D01*
X160613438Y-98370450D01*
X160539364Y-98480187D01*
X160513331Y-98610000D01*
X160513331Y-99410000D01*
X160537759Y-99535904D01*
X160610450Y-99646562D01*
X160720187Y-99720636D01*
X160818200Y-99740291D01*
X160818200Y-100198331D01*
X160800000Y-100198331D01*
X160674096Y-100222759D01*
X160563438Y-100295450D01*
X160489364Y-100405187D01*
X160463331Y-100535000D01*
X160463331Y-100578200D01*
X160102005Y-100578200D01*
X160102000Y-100578199D01*
X159964173Y-100605615D01*
X159936757Y-100611069D01*
X159796671Y-100704671D01*
X159409871Y-101091471D01*
X159334200Y-101204721D01*
X159334200Y-100356458D01*
X160223729Y-99466929D01*
X160317331Y-99326843D01*
X160317331Y-99326842D01*
X160350200Y-99161600D01*
X160350200Y-96698858D01*
X160533760Y-96515297D01*
X160537759Y-96535904D01*
X160610450Y-96646562D01*
X160720187Y-96720636D01*
X160850000Y-96746669D01*
X161650000Y-96746669D01*
X161775904Y-96722241D01*
X161788569Y-96713921D01*
X161811673Y-96769699D01*
X161990302Y-96948327D01*
X162223691Y-97045000D01*
X162464250Y-97045000D01*
X162623000Y-96886250D01*
X162623000Y-96137000D01*
X162603000Y-96137000D01*
X162603000Y-95883000D01*
X162623000Y-95883000D01*
X162623000Y-95133750D01*
X162524250Y-95035000D01*
X162598000Y-94961250D01*
X162598000Y-94137000D01*
X162578000Y-94137000D01*
X162578000Y-93883000D01*
X162598000Y-93883000D01*
X162598000Y-93058750D01*
X162439250Y-92900000D01*
X162123691Y-92900000D01*
X161890302Y-92996673D01*
X161711673Y-93175301D01*
X161706800Y-93187065D01*
X161706800Y-90871857D01*
X161926057Y-90652600D01*
X171500800Y-90652600D01*
X171666042Y-90619731D01*
X171666043Y-90619731D01*
X171806129Y-90526129D01*
X172205258Y-90127000D01*
X180000000Y-90127000D01*
X180048601Y-90117333D01*
X180089803Y-90089803D01*
X180117333Y-90048601D01*
X180127000Y-90000000D01*
X180127000Y-83127000D01*
X180669800Y-83127000D01*
X180669800Y-91000000D01*
X180694935Y-91126362D01*
X180766513Y-91233487D01*
X180873638Y-91305065D01*
X181000000Y-91330200D01*
X188063000Y-91330200D01*
X188063000Y-91604000D01*
X188063000Y-91604000D01*
G37*
X188063000Y-91604000D02*
X172077843Y-91604000D01*
X172027550Y-91527438D01*
X171917813Y-91453364D01*
X171788000Y-91427331D01*
X170838000Y-91427331D01*
X170712096Y-91451759D01*
X170601438Y-91524450D01*
X170547740Y-91604000D01*
X169482605Y-91604000D01*
X169482600Y-91603999D01*
X169239596Y-91652336D01*
X169033587Y-91789987D01*
X169033584Y-91789990D01*
X168613387Y-92210187D01*
X168475736Y-92416196D01*
X168427400Y-92659200D01*
X168427400Y-108483400D01*
X162089000Y-108483400D01*
X162089000Y-107708843D01*
X162165562Y-107658550D01*
X162178663Y-107639141D01*
X162189450Y-107655562D01*
X162299187Y-107729636D01*
X162429000Y-107755669D01*
X163379000Y-107755669D01*
X163504904Y-107731241D01*
X163615562Y-107658550D01*
X163689636Y-107548813D01*
X163715669Y-107419000D01*
X163715669Y-107375800D01*
X163921600Y-107375800D01*
X164086842Y-107342931D01*
X164086843Y-107342931D01*
X164226929Y-107249329D01*
X164575329Y-106900929D01*
X164668931Y-106760843D01*
X164668931Y-106760842D01*
X164701800Y-106595600D01*
X164701800Y-105098669D01*
X165032000Y-105098669D01*
X165157904Y-105074241D01*
X165268562Y-105001550D01*
X165342636Y-104891813D01*
X165368669Y-104762000D01*
X165368669Y-103238000D01*
X165344241Y-103112096D01*
X165271550Y-103001438D01*
X165161813Y-102927364D01*
X165032000Y-102901331D01*
X163835000Y-102901331D01*
X163835000Y-101611310D01*
X163835000Y-101358691D01*
X163835000Y-101295750D01*
X163835000Y-100724250D01*
X163835000Y-100661309D01*
X163835000Y-100408690D01*
X163835000Y-94611310D01*
X163835000Y-94358691D01*
X163835000Y-94295750D01*
X163835000Y-93724250D01*
X163835000Y-93661309D01*
X163835000Y-93408690D01*
X163738327Y-93175301D01*
X163559698Y-92996673D01*
X163326309Y-92900000D01*
X163010750Y-92900000D01*
X162852000Y-93058750D01*
X162852000Y-93883000D01*
X163676250Y-93883000D01*
X163835000Y-93724250D01*
X163835000Y-94295750D01*
X163676250Y-94137000D01*
X162852000Y-94137000D01*
X162852000Y-94961250D01*
X162950750Y-95060000D01*
X162877000Y-95133750D01*
X162877000Y-95883000D01*
X163626250Y-95883000D01*
X163785000Y-95724250D01*
X163785000Y-95483690D01*
X163688327Y-95250301D01*
X163509698Y-95071673D01*
X163476339Y-95057855D01*
X163559698Y-95023327D01*
X163738327Y-94844699D01*
X163835000Y-94611310D01*
X163835000Y-100408690D01*
X163738327Y-100175301D01*
X163559698Y-99996673D01*
X163476339Y-99962144D01*
X163509698Y-99948327D01*
X163688327Y-99769699D01*
X163785000Y-99536310D01*
X163785000Y-99295750D01*
X163785000Y-98724250D01*
X163785000Y-98483690D01*
X163785000Y-96536310D01*
X163785000Y-96295750D01*
X163626250Y-96137000D01*
X162877000Y-96137000D01*
X162877000Y-96886250D01*
X163035750Y-97045000D01*
X163276309Y-97045000D01*
X163509698Y-96948327D01*
X163688327Y-96769699D01*
X163785000Y-96536310D01*
X163785000Y-98483690D01*
X163688327Y-98250301D01*
X163509698Y-98071673D01*
X163276309Y-97975000D01*
X163035750Y-97975000D01*
X162877000Y-98133750D01*
X162877000Y-98883000D01*
X163626250Y-98883000D01*
X163785000Y-98724250D01*
X163785000Y-99295750D01*
X163626250Y-99137000D01*
X162877000Y-99137000D01*
X162877000Y-99886250D01*
X162950750Y-99960000D01*
X162852000Y-100058750D01*
X162852000Y-100883000D01*
X163676250Y-100883000D01*
X163835000Y-100724250D01*
X163835000Y-101295750D01*
X163676250Y-101137000D01*
X162852000Y-101137000D01*
X162852000Y-101961250D01*
X163010750Y-102120000D01*
X163326309Y-102120000D01*
X163559698Y-102023327D01*
X163738327Y-101844699D01*
X163835000Y-101611310D01*
X163835000Y-102901331D01*
X163508000Y-102901331D01*
X163382096Y-102925759D01*
X163271438Y-102998450D01*
X163197364Y-103108187D01*
X163171331Y-103238000D01*
X163171331Y-104762000D01*
X163195759Y-104887904D01*
X163268450Y-104998562D01*
X163378187Y-105072636D01*
X163508000Y-105098669D01*
X163838200Y-105098669D01*
X163838200Y-106416742D01*
X163742742Y-106512200D01*
X163715669Y-106512200D01*
X163715669Y-106469000D01*
X163691241Y-106343096D01*
X163618550Y-106232438D01*
X163508813Y-106158364D01*
X163379000Y-106132331D01*
X163139144Y-106132331D01*
X163139144Y-104207698D01*
X163111362Y-103652632D01*
X162952397Y-103268857D01*
X162710213Y-103199392D01*
X162530608Y-103378997D01*
X162530608Y-103019787D01*
X162461143Y-102777603D01*
X161937698Y-102590856D01*
X161382632Y-102618638D01*
X160998857Y-102777603D01*
X160929392Y-103019787D01*
X161730000Y-103820395D01*
X162530608Y-103019787D01*
X162530608Y-103378997D01*
X161909605Y-104000000D01*
X162710213Y-104800608D01*
X162952397Y-104731143D01*
X163139144Y-104207698D01*
X163139144Y-106132331D01*
X162530608Y-106132331D01*
X162530608Y-104980213D01*
X161730000Y-104179605D01*
X161550395Y-104359210D01*
X161550395Y-104000000D01*
X160749787Y-103199392D01*
X160507603Y-103268857D01*
X160320856Y-103792302D01*
X160348638Y-104347368D01*
X160507603Y-104731143D01*
X160749787Y-104800608D01*
X161550395Y-104000000D01*
X161550395Y-104359210D01*
X160929392Y-104980213D01*
X160998857Y-105222397D01*
X161522302Y-105409144D01*
X162077368Y-105381362D01*
X162461143Y-105222397D01*
X162530608Y-104980213D01*
X162530608Y-106132331D01*
X162429000Y-106132331D01*
X162303096Y-106156759D01*
X162192438Y-106229450D01*
X162179336Y-106248858D01*
X162168550Y-106232438D01*
X162058813Y-106158364D01*
X161929000Y-106132331D01*
X160979000Y-106132331D01*
X160853096Y-106156759D01*
X160742438Y-106229450D01*
X160668364Y-106339187D01*
X160642331Y-106469000D01*
X160642331Y-107419000D01*
X160666759Y-107544904D01*
X160739450Y-107655562D01*
X160819000Y-107709259D01*
X160819000Y-108483400D01*
X155854400Y-108483400D01*
X155611396Y-108531736D01*
X155405387Y-108669387D01*
X155267736Y-108875396D01*
X155219400Y-109118400D01*
X155219400Y-114808000D01*
X155232044Y-114871566D01*
X155231992Y-114931240D01*
X155254980Y-114986875D01*
X155267736Y-115051004D01*
X155303744Y-115104895D01*
X155326532Y-115160044D01*
X155369061Y-115202647D01*
X155405387Y-115257013D01*
X155459276Y-115293021D01*
X155501435Y-115335253D01*
X155557031Y-115358338D01*
X155611396Y-115394664D01*
X155674963Y-115407308D01*
X155724683Y-115427953D01*
X155690438Y-115450450D01*
X155616364Y-115560187D01*
X155596708Y-115658200D01*
X155279499Y-115658200D01*
X155261241Y-115564096D01*
X155188550Y-115453438D01*
X155078813Y-115379364D01*
X154965615Y-115356663D01*
X154947931Y-115267757D01*
X154854329Y-115127671D01*
X154483329Y-114756671D01*
X154343243Y-114663069D01*
X154178000Y-114630200D01*
X151765005Y-114630200D01*
X151765000Y-114630199D01*
X151599758Y-114663068D01*
X151553274Y-114694127D01*
X151459671Y-114756671D01*
X151459668Y-114756674D01*
X151269671Y-114946671D01*
X151176069Y-115086757D01*
X151143200Y-115252000D01*
X151143200Y-115391980D01*
X151125000Y-115388331D01*
X150725000Y-115388331D01*
X150599096Y-115412759D01*
X150598561Y-115413110D01*
X150475000Y-115388331D01*
X150075000Y-115388331D01*
X149949096Y-115412759D01*
X149948561Y-115413110D01*
X149825000Y-115388331D01*
X149425000Y-115388331D01*
X149299096Y-115412759D01*
X149298561Y-115413110D01*
X149175000Y-115388331D01*
X149072865Y-115388331D01*
X149063327Y-115365302D01*
X148884699Y-115186673D01*
X148651310Y-115090000D01*
X148583750Y-115090000D01*
X148425000Y-115248750D01*
X148425000Y-115393483D01*
X148413327Y-115365302D01*
X148234699Y-115186673D01*
X148112169Y-115135919D01*
X148066250Y-115090000D01*
X148001310Y-115090000D01*
X147998690Y-115090000D01*
X147933750Y-115090000D01*
X147887830Y-115135919D01*
X147765301Y-115186673D01*
X147675000Y-115276974D01*
X147584699Y-115186673D01*
X147462169Y-115135919D01*
X147416250Y-115090000D01*
X147351310Y-115090000D01*
X147348690Y-115090000D01*
X147283750Y-115090000D01*
X147237830Y-115135919D01*
X147115301Y-115186673D01*
X146936673Y-115365302D01*
X146925000Y-115393483D01*
X146925000Y-115248750D01*
X146766250Y-115090000D01*
X146698690Y-115090000D01*
X146465301Y-115186673D01*
X146286673Y-115365302D01*
X146277134Y-115388331D01*
X146175000Y-115388331D01*
X146156800Y-115391862D01*
X146156800Y-115041800D01*
X146123931Y-114876557D01*
X146030329Y-114736471D01*
X146030325Y-114736468D01*
X145864933Y-114571076D01*
X145976474Y-114617392D01*
X146224040Y-114617608D01*
X146452844Y-114523068D01*
X146628053Y-114348165D01*
X146722992Y-114119526D01*
X146723208Y-113871960D01*
X146628668Y-113643156D01*
X146453765Y-113467947D01*
X146225126Y-113373008D01*
X146156800Y-113372948D01*
X146156800Y-112694718D01*
X146382874Y-112788592D01*
X146630440Y-112788808D01*
X146859244Y-112694268D01*
X147034453Y-112519365D01*
X147129392Y-112290726D01*
X147129608Y-112043160D01*
X147035068Y-111814356D01*
X146860165Y-111639147D01*
X146806800Y-111616987D01*
X146806800Y-110608019D01*
X146825000Y-110611669D01*
X147225000Y-110611669D01*
X147350904Y-110587241D01*
X147351438Y-110586889D01*
X147475000Y-110611669D01*
X147875000Y-110611669D01*
X148000904Y-110587241D01*
X148001438Y-110586889D01*
X148125000Y-110611669D01*
X148525000Y-110611669D01*
X148543200Y-110608137D01*
X148543200Y-110773400D01*
X148576069Y-110938643D01*
X148669671Y-111078729D01*
X148729709Y-111138767D01*
X148729592Y-111273640D01*
X148824132Y-111502444D01*
X148999035Y-111677653D01*
X149227674Y-111772592D01*
X149475240Y-111772808D01*
X149704044Y-111678268D01*
X149879253Y-111503365D01*
X149974192Y-111274726D01*
X149974408Y-111027160D01*
X149879868Y-110798356D01*
X149704965Y-110623147D01*
X149677322Y-110611669D01*
X149825000Y-110611669D01*
X149950904Y-110587241D01*
X149951438Y-110586889D01*
X150075000Y-110611669D01*
X150475000Y-110611669D01*
X150600904Y-110587241D01*
X150601438Y-110586889D01*
X150725000Y-110611669D01*
X151125000Y-110611669D01*
X151250904Y-110587241D01*
X151251438Y-110586889D01*
X151375000Y-110611669D01*
X151775000Y-110611669D01*
X151900904Y-110587241D01*
X151901438Y-110586889D01*
X152025000Y-110611669D01*
X152425000Y-110611669D01*
X152550904Y-110587241D01*
X152661562Y-110514550D01*
X152735636Y-110404813D01*
X152761669Y-110275000D01*
X152761669Y-108554589D01*
X153188458Y-108127800D01*
X153729631Y-108127800D01*
X153701547Y-108155835D01*
X153606608Y-108384474D01*
X153606392Y-108632040D01*
X153700932Y-108860844D01*
X153797000Y-108957080D01*
X153797000Y-111718148D01*
X153701547Y-111813435D01*
X153606608Y-112042074D01*
X153606392Y-112289640D01*
X153700932Y-112518444D01*
X153875835Y-112693653D01*
X154104474Y-112788592D01*
X154352040Y-112788808D01*
X154580844Y-112694268D01*
X154756053Y-112519365D01*
X154850992Y-112290726D01*
X154851208Y-112043160D01*
X154756668Y-111814356D01*
X154660600Y-111718119D01*
X154660600Y-108957051D01*
X154756053Y-108861765D01*
X154850992Y-108633126D01*
X154851208Y-108385560D01*
X154756668Y-108156756D01*
X154727762Y-108127800D01*
X158902400Y-108127800D01*
X159067642Y-108094931D01*
X159067643Y-108094931D01*
X159207729Y-108001329D01*
X160020529Y-107188529D01*
X160114131Y-107048443D01*
X160114131Y-107048442D01*
X160119584Y-107021026D01*
X160147000Y-106883200D01*
X160147001Y-106883200D01*
X160147000Y-106883194D01*
X160147000Y-101575658D01*
X160280858Y-101441800D01*
X160463331Y-101441800D01*
X160463331Y-101485000D01*
X160487759Y-101610904D01*
X160560450Y-101721562D01*
X160670187Y-101795636D01*
X160800000Y-101821669D01*
X161702133Y-101821669D01*
X161711673Y-101844699D01*
X161890302Y-102023327D01*
X162123691Y-102120000D01*
X162439250Y-102120000D01*
X162598000Y-101961250D01*
X162598000Y-101137000D01*
X162578000Y-101137000D01*
X162578000Y-100883000D01*
X162598000Y-100883000D01*
X162598000Y-100058750D01*
X162524250Y-99985000D01*
X162623000Y-99886250D01*
X162623000Y-99137000D01*
X162603000Y-99137000D01*
X162603000Y-98883000D01*
X162623000Y-98883000D01*
X162623000Y-98133750D01*
X162464250Y-97975000D01*
X162223691Y-97975000D01*
X161990302Y-98071673D01*
X161811673Y-98250301D01*
X161788829Y-98305450D01*
X161779813Y-98299364D01*
X161650000Y-98273331D01*
X160850000Y-98273331D01*
X160724096Y-98297759D01*
X160613438Y-98370450D01*
X160539364Y-98480187D01*
X160513331Y-98610000D01*
X160513331Y-99410000D01*
X160537759Y-99535904D01*
X160610450Y-99646562D01*
X160720187Y-99720636D01*
X160818200Y-99740291D01*
X160818200Y-100198331D01*
X160800000Y-100198331D01*
X160674096Y-100222759D01*
X160563438Y-100295450D01*
X160489364Y-100405187D01*
X160463331Y-100535000D01*
X160463331Y-100578200D01*
X160102005Y-100578200D01*
X160102000Y-100578199D01*
X159964173Y-100605615D01*
X159936757Y-100611069D01*
X159796671Y-100704671D01*
X159409871Y-101091471D01*
X159334200Y-101204721D01*
X159334200Y-100356458D01*
X160223729Y-99466929D01*
X160317331Y-99326843D01*
X160317331Y-99326842D01*
X160350200Y-99161600D01*
X160350200Y-96698858D01*
X160533760Y-96515297D01*
X160537759Y-96535904D01*
X160610450Y-96646562D01*
X160720187Y-96720636D01*
X160850000Y-96746669D01*
X161650000Y-96746669D01*
X161775904Y-96722241D01*
X161788569Y-96713921D01*
X161811673Y-96769699D01*
X161990302Y-96948327D01*
X162223691Y-97045000D01*
X162464250Y-97045000D01*
X162623000Y-96886250D01*
X162623000Y-96137000D01*
X162603000Y-96137000D01*
X162603000Y-95883000D01*
X162623000Y-95883000D01*
X162623000Y-95133750D01*
X162524250Y-95035000D01*
X162598000Y-94961250D01*
X162598000Y-94137000D01*
X162578000Y-94137000D01*
X162578000Y-93883000D01*
X162598000Y-93883000D01*
X162598000Y-93058750D01*
X162439250Y-92900000D01*
X162123691Y-92900000D01*
X161890302Y-92996673D01*
X161711673Y-93175301D01*
X161706800Y-93187065D01*
X161706800Y-90871857D01*
X161926057Y-90652600D01*
X171500800Y-90652600D01*
X171666042Y-90619731D01*
X171666043Y-90619731D01*
X171806129Y-90526129D01*
X172205258Y-90127000D01*
X180000000Y-90127000D01*
X180048601Y-90117333D01*
X180089803Y-90089803D01*
X180117333Y-90048601D01*
X180127000Y-90000000D01*
X180127000Y-83127000D01*
X180669800Y-83127000D01*
X180669800Y-91000000D01*
X180694935Y-91126362D01*
X180766513Y-91233487D01*
X180873638Y-91305065D01*
X181000000Y-91330200D01*
X188063000Y-91330200D01*
X188063000Y-91604000D01*
G36*
X208873000Y-116873000D02*
X208642716Y-116873000D01*
X208642716Y-114083329D01*
X208642716Y-113416671D01*
X208642716Y-89583329D01*
X208642716Y-88916671D01*
X208631980Y-88856450D01*
X208386669Y-88401158D01*
X208386669Y-87450000D01*
X208386669Y-86050000D01*
X208362241Y-85924096D01*
X208289550Y-85813438D01*
X208179813Y-85739364D01*
X208050000Y-85713331D01*
X207635000Y-85713331D01*
X207635000Y-85283200D01*
X207586664Y-85040196D01*
X207586664Y-85040195D01*
X207449013Y-84834187D01*
X206879813Y-84264987D01*
X206673804Y-84127336D01*
X206430800Y-84079000D01*
X201990000Y-84079000D01*
X196629521Y-84079000D01*
X196557550Y-83969438D01*
X196447813Y-83895364D01*
X196318000Y-83869331D01*
X194286000Y-83869331D01*
X194160096Y-83893759D01*
X194049438Y-83966450D01*
X193975364Y-84076187D01*
X193949331Y-84206000D01*
X193949331Y-85222000D01*
X193973759Y-85347904D01*
X194046450Y-85458562D01*
X194156187Y-85532636D01*
X194286000Y-85558669D01*
X196318000Y-85558669D01*
X196443904Y-85534241D01*
X196554562Y-85461550D01*
X196628636Y-85351813D01*
X196629200Y-85349000D01*
X201355000Y-85349000D01*
X201355000Y-86260831D01*
X201340000Y-86260831D01*
X201214096Y-86285259D01*
X201103438Y-86357950D01*
X201029364Y-86467687D01*
X201003331Y-86597500D01*
X201003331Y-87497500D01*
X201027759Y-87623404D01*
X201100450Y-87734062D01*
X201210187Y-87808136D01*
X201340000Y-87834169D01*
X202640000Y-87834169D01*
X202765904Y-87809741D01*
X202876562Y-87737050D01*
X202950636Y-87627313D01*
X202976669Y-87497500D01*
X202976669Y-86597500D01*
X202952241Y-86471596D01*
X202879550Y-86360938D01*
X202769813Y-86286864D01*
X202640000Y-86260831D01*
X202625000Y-86260831D01*
X202625000Y-85349000D01*
X206167774Y-85349000D01*
X206365000Y-85546226D01*
X206365000Y-85713331D01*
X205950000Y-85713331D01*
X205824096Y-85737759D01*
X205713438Y-85810450D01*
X205639364Y-85920187D01*
X205613331Y-86050000D01*
X205613331Y-87450000D01*
X205637759Y-87575904D01*
X205710450Y-87686562D01*
X205820187Y-87760636D01*
X205950000Y-87786669D01*
X208050000Y-87786669D01*
X208175904Y-87762241D01*
X208286562Y-87689550D01*
X208360636Y-87579813D01*
X208386669Y-87450000D01*
X208386669Y-88401158D01*
X208383790Y-88395815D01*
X207978215Y-88065222D01*
X207477000Y-87915000D01*
X207127000Y-87915000D01*
X207127000Y-89123000D01*
X208519374Y-89123000D01*
X208642716Y-88916671D01*
X208642716Y-89583329D01*
X208519374Y-89377000D01*
X207127000Y-89377000D01*
X207127000Y-90585000D01*
X207477000Y-90585000D01*
X207978215Y-90434778D01*
X208383790Y-90104185D01*
X208631980Y-89643550D01*
X208642716Y-89583329D01*
X208642716Y-113416671D01*
X208631980Y-113356450D01*
X208407240Y-112939337D01*
X208407240Y-111250000D01*
X208328821Y-110855760D01*
X208105501Y-110521539D01*
X207771280Y-110298219D01*
X207377040Y-110219800D01*
X206622960Y-110219800D01*
X206228720Y-110298219D01*
X205894499Y-110521539D01*
X205671179Y-110855760D01*
X205592760Y-111250000D01*
X205671179Y-111644240D01*
X205894499Y-111978461D01*
X206228720Y-112201781D01*
X206622960Y-112280200D01*
X207377040Y-112280200D01*
X207771280Y-112201781D01*
X208105501Y-111978461D01*
X208328821Y-111644240D01*
X208407240Y-111250000D01*
X208407240Y-112939337D01*
X208383790Y-112895815D01*
X207978215Y-112565222D01*
X207477000Y-112415000D01*
X207127000Y-112415000D01*
X207127000Y-113623000D01*
X208519374Y-113623000D01*
X208642716Y-113416671D01*
X208642716Y-114083329D01*
X208519374Y-113877000D01*
X207127000Y-113877000D01*
X207127000Y-115085000D01*
X207477000Y-115085000D01*
X207978215Y-114934778D01*
X208383790Y-114604185D01*
X208631980Y-114143550D01*
X208642716Y-114083329D01*
X208642716Y-116873000D01*
X206873000Y-116873000D01*
X206873000Y-115085000D01*
X206873000Y-113877000D01*
X206873000Y-113623000D01*
X206873000Y-112415000D01*
X206523000Y-112415000D01*
X206021785Y-112565222D01*
X205616210Y-112895815D01*
X205368020Y-113356450D01*
X205357284Y-113416671D01*
X205480626Y-113623000D01*
X206873000Y-113623000D01*
X206873000Y-113877000D01*
X205480626Y-113877000D01*
X205357284Y-114083329D01*
X205368020Y-114143550D01*
X205616210Y-114604185D01*
X206021785Y-114934778D01*
X206523000Y-115085000D01*
X206873000Y-115085000D01*
X206873000Y-116873000D01*
X202565000Y-116873000D01*
X202565000Y-113537310D01*
X202565000Y-113284691D01*
X202565000Y-112680750D01*
X202565000Y-112109250D01*
X202565000Y-111505309D01*
X202565000Y-111252690D01*
X202468327Y-111019301D01*
X202289698Y-110840673D01*
X202056309Y-110744000D01*
X201199750Y-110744000D01*
X201041000Y-110902750D01*
X201041000Y-112268000D01*
X202406250Y-112268000D01*
X202565000Y-112109250D01*
X202565000Y-112680750D01*
X202406250Y-112522000D01*
X201041000Y-112522000D01*
X201041000Y-113887250D01*
X201199750Y-114046000D01*
X202056309Y-114046000D01*
X202289698Y-113949327D01*
X202468327Y-113770699D01*
X202565000Y-113537310D01*
X202565000Y-116873000D01*
X202000000Y-116873000D01*
X201951399Y-116882667D01*
X201910197Y-116910197D01*
X201882667Y-116951399D01*
X201873000Y-117000000D01*
X201873000Y-123873000D01*
X201630117Y-123873000D01*
X201771590Y-123484694D01*
X201771590Y-116984694D01*
X201745579Y-116384542D01*
X201565953Y-115950884D01*
X201312060Y-115867545D01*
X201132455Y-116047150D01*
X201132455Y-115687940D01*
X201049116Y-115434047D01*
X200787000Y-115338549D01*
X200787000Y-113887250D01*
X200787000Y-112522000D01*
X200787000Y-112268000D01*
X200787000Y-110902750D01*
X200628250Y-110744000D01*
X199771691Y-110744000D01*
X199538302Y-110840673D01*
X199359673Y-111019301D01*
X199263000Y-111252690D01*
X199263000Y-111505309D01*
X199263000Y-112109250D01*
X199421750Y-112268000D01*
X200787000Y-112268000D01*
X200787000Y-112522000D01*
X199421750Y-112522000D01*
X199263000Y-112680750D01*
X199263000Y-113284691D01*
X199263000Y-113537310D01*
X199359673Y-113770699D01*
X199538302Y-113949327D01*
X199771691Y-114046000D01*
X200628250Y-114046000D01*
X200787000Y-113887250D01*
X200787000Y-115338549D01*
X200484694Y-115228410D01*
X199884542Y-115254421D01*
X199450884Y-115434047D01*
X199367545Y-115687940D01*
X200250000Y-116570395D01*
X201132455Y-115687940D01*
X201132455Y-116047150D01*
X200429605Y-116750000D01*
X201312060Y-117632455D01*
X201565953Y-117549116D01*
X201771590Y-116984694D01*
X201771590Y-123484694D01*
X201745579Y-122884542D01*
X201565953Y-122450884D01*
X201312060Y-122367545D01*
X201132455Y-122547150D01*
X201132455Y-122187940D01*
X201132455Y-117812060D01*
X200250000Y-116929605D01*
X199367545Y-117812060D01*
X199450884Y-118065953D01*
X200015306Y-118271590D01*
X200615458Y-118245579D01*
X201049116Y-118065953D01*
X201132455Y-117812060D01*
X201132455Y-122187940D01*
X201049116Y-121934047D01*
X200484694Y-121728410D01*
X199884542Y-121754421D01*
X199450884Y-121934047D01*
X199367545Y-122187940D01*
X200250000Y-123070395D01*
X201132455Y-122187940D01*
X201132455Y-122547150D01*
X200429605Y-123250000D01*
X200443747Y-123264142D01*
X200264142Y-123443747D01*
X200250000Y-123429605D01*
X200235857Y-123443747D01*
X200056252Y-123264142D01*
X200070395Y-123250000D01*
X199187940Y-122367545D01*
X199127000Y-122387548D01*
X199127000Y-117612451D01*
X199187940Y-117632455D01*
X200070395Y-116750000D01*
X199187940Y-115867545D01*
X199127000Y-115887548D01*
X199127000Y-112000000D01*
X199117333Y-111951399D01*
X199089803Y-111910197D01*
X199048601Y-111882667D01*
X199000000Y-111873000D01*
X196788858Y-111873000D01*
X196891329Y-111770529D01*
X196984931Y-111630443D01*
X196984931Y-111630442D01*
X197017800Y-111465200D01*
X197017800Y-110248669D01*
X197061000Y-110248669D01*
X197186904Y-110224241D01*
X197297562Y-110151550D01*
X197371636Y-110041813D01*
X197397669Y-109912000D01*
X197397669Y-108962000D01*
X197373241Y-108836096D01*
X197300550Y-108725438D01*
X197281141Y-108712336D01*
X197297562Y-108701550D01*
X197371636Y-108591813D01*
X197397669Y-108462000D01*
X197397669Y-107512000D01*
X197373241Y-107386096D01*
X197300550Y-107275438D01*
X197221000Y-107221740D01*
X197221000Y-107036811D01*
X197224853Y-107032965D01*
X197247938Y-106977368D01*
X197284264Y-106923004D01*
X197296908Y-106859436D01*
X197319792Y-106804326D01*
X197319844Y-106744126D01*
X197332600Y-106680000D01*
X197319955Y-106616433D01*
X197320008Y-106556760D01*
X197297019Y-106501124D01*
X197284264Y-106436996D01*
X197248255Y-106383104D01*
X197225468Y-106327956D01*
X197182938Y-106285352D01*
X197146613Y-106230987D01*
X197092723Y-106194978D01*
X197050565Y-106152747D01*
X196994968Y-106129661D01*
X196944291Y-106095800D01*
X197265348Y-106095800D01*
X197360635Y-106191253D01*
X197589274Y-106286192D01*
X197836840Y-106286408D01*
X198065644Y-106191868D01*
X198240853Y-106016965D01*
X198335792Y-105788326D01*
X198336008Y-105540760D01*
X198241468Y-105311956D01*
X198212562Y-105283000D01*
X202411542Y-105283000D01*
X203987400Y-106858858D01*
X203987400Y-108102400D01*
X204020269Y-108267643D01*
X204113871Y-108407729D01*
X204761468Y-109055325D01*
X204761471Y-109055329D01*
X204761472Y-109055329D01*
X204901557Y-109148931D01*
X204901558Y-109148931D01*
X204928973Y-109154384D01*
X205066800Y-109181801D01*
X205066800Y-109181800D01*
X205066805Y-109181800D01*
X205696275Y-109181800D01*
X205894499Y-109478461D01*
X206228720Y-109701781D01*
X206622960Y-109780200D01*
X207377040Y-109780200D01*
X207771280Y-109701781D01*
X208105501Y-109478461D01*
X208328821Y-109144240D01*
X208407240Y-108750000D01*
X208407240Y-106250000D01*
X208328821Y-105855760D01*
X208105501Y-105521539D01*
X207771280Y-105298219D01*
X207377040Y-105219800D01*
X206622960Y-105219800D01*
X206228720Y-105298219D01*
X205894499Y-105521539D01*
X205671179Y-105855760D01*
X205592760Y-106250000D01*
X205671179Y-106644240D01*
X205894499Y-106978461D01*
X206228720Y-107201781D01*
X206622960Y-107280200D01*
X207377040Y-107280200D01*
X207771280Y-107201781D01*
X208105501Y-106978461D01*
X208328821Y-106644240D01*
X208407240Y-106250000D01*
X208407240Y-108750000D01*
X208328821Y-108355760D01*
X208105501Y-108021539D01*
X207771280Y-107798219D01*
X207377040Y-107719800D01*
X206622960Y-107719800D01*
X206228720Y-107798219D01*
X205894499Y-108021539D01*
X205696275Y-108318200D01*
X205245657Y-108318200D01*
X204851000Y-107923542D01*
X204851000Y-106680005D01*
X204851000Y-106680000D01*
X204851001Y-106680000D01*
X204823584Y-106542173D01*
X204818131Y-106514758D01*
X204818131Y-106514757D01*
X204724529Y-106374671D01*
X202895729Y-104545871D01*
X202755643Y-104452269D01*
X202590400Y-104419400D01*
X195250858Y-104419400D01*
X194126129Y-103294671D01*
X193986043Y-103201069D01*
X193820800Y-103168200D01*
X193086669Y-103168200D01*
X193086669Y-103100000D01*
X193062241Y-102974096D01*
X192989550Y-102863438D01*
X192879813Y-102789364D01*
X192750000Y-102763331D01*
X189250000Y-102763331D01*
X189124096Y-102787759D01*
X189013438Y-102860450D01*
X188939364Y-102970187D01*
X188913331Y-103100000D01*
X188913331Y-103168200D01*
X188513258Y-103168200D01*
X188188600Y-102843542D01*
X188188600Y-102006400D01*
X188155731Y-101841157D01*
X188062129Y-101701071D01*
X188062125Y-101701068D01*
X187972690Y-101611633D01*
X187972808Y-101476760D01*
X187878268Y-101247956D01*
X187836577Y-101206192D01*
X187971652Y-101206310D01*
X188670671Y-101905329D01*
X188810757Y-101998931D01*
X188810758Y-101998931D01*
X188913331Y-102019334D01*
X188913331Y-102100000D01*
X188937759Y-102225904D01*
X189010450Y-102336562D01*
X189120187Y-102410636D01*
X189250000Y-102436669D01*
X192750000Y-102436669D01*
X192875904Y-102412241D01*
X192986562Y-102339550D01*
X193060636Y-102229813D01*
X193086669Y-102100000D01*
X193086669Y-102031800D01*
X194689942Y-102031800D01*
X195173068Y-102514925D01*
X195173071Y-102514929D01*
X195173072Y-102514929D01*
X195266674Y-102577472D01*
X195313157Y-102608531D01*
X195313158Y-102608532D01*
X195478400Y-102641401D01*
X195478400Y-102641400D01*
X195478405Y-102641400D01*
X204240342Y-102641400D01*
X204393800Y-102794857D01*
X204393800Y-103225600D01*
X204426669Y-103390843D01*
X204520271Y-103530929D01*
X205044668Y-104055325D01*
X205044671Y-104055329D01*
X205044672Y-104055329D01*
X205138274Y-104117872D01*
X205184757Y-104148931D01*
X205184758Y-104148932D01*
X205350000Y-104181801D01*
X205350000Y-104181800D01*
X205350005Y-104181800D01*
X205696275Y-104181800D01*
X205894499Y-104478461D01*
X206228720Y-104701781D01*
X206622960Y-104780200D01*
X207377040Y-104780200D01*
X207771280Y-104701781D01*
X208105501Y-104478461D01*
X208328821Y-104144240D01*
X208407240Y-103750000D01*
X208328821Y-103355760D01*
X208105501Y-103021539D01*
X207771280Y-102798219D01*
X207377040Y-102719800D01*
X206622960Y-102719800D01*
X206228720Y-102798219D01*
X205894499Y-103021539D01*
X205696275Y-103318200D01*
X205528857Y-103318200D01*
X205257400Y-103046742D01*
X205257400Y-102616000D01*
X205224531Y-102450757D01*
X205130929Y-102310671D01*
X205130925Y-102310668D01*
X204724529Y-101904271D01*
X204584443Y-101810669D01*
X204419200Y-101777800D01*
X197929310Y-101777800D01*
X198065644Y-101721468D01*
X198105381Y-101681800D01*
X205696275Y-101681800D01*
X205894499Y-101978461D01*
X206228720Y-102201781D01*
X206622960Y-102280200D01*
X207377040Y-102280200D01*
X207771280Y-102201781D01*
X208105501Y-101978461D01*
X208328821Y-101644240D01*
X208407240Y-101250000D01*
X208407240Y-98750000D01*
X208328821Y-98355760D01*
X208105501Y-98021539D01*
X207771280Y-97798219D01*
X207377040Y-97719800D01*
X206622960Y-97719800D01*
X206228720Y-97798219D01*
X205894499Y-98021539D01*
X205671179Y-98355760D01*
X205592760Y-98750000D01*
X205671179Y-99144240D01*
X205894499Y-99478461D01*
X206228720Y-99701781D01*
X206622960Y-99780200D01*
X207377040Y-99780200D01*
X207771280Y-99701781D01*
X208105501Y-99478461D01*
X208328821Y-99144240D01*
X208407240Y-98750000D01*
X208407240Y-101250000D01*
X208328821Y-100855760D01*
X208105501Y-100521539D01*
X207771280Y-100298219D01*
X207377040Y-100219800D01*
X206622960Y-100219800D01*
X206228720Y-100298219D01*
X205894499Y-100521539D01*
X205696275Y-100818200D01*
X198218152Y-100818200D01*
X198066565Y-100666347D01*
X197929421Y-100609400D01*
X204174148Y-100609400D01*
X204269435Y-100704853D01*
X204498074Y-100799792D01*
X204745640Y-100800008D01*
X204974444Y-100705468D01*
X205149653Y-100530565D01*
X205244592Y-100301926D01*
X205244808Y-100054360D01*
X205150268Y-99825556D01*
X204975365Y-99650347D01*
X204746726Y-99555408D01*
X204499160Y-99555192D01*
X204270356Y-99649732D01*
X204174119Y-99745800D01*
X197104005Y-99745800D01*
X197104000Y-99745799D01*
X196938758Y-99778668D01*
X196892274Y-99809727D01*
X196798671Y-99872271D01*
X196798668Y-99872274D01*
X196315542Y-100355400D01*
X195284200Y-100355400D01*
X195284200Y-99828309D01*
X195284200Y-99587750D01*
X195125450Y-99429000D01*
X194376200Y-99429000D01*
X194376200Y-100178250D01*
X194534950Y-100337000D01*
X194775510Y-100337000D01*
X195008899Y-100240327D01*
X195187527Y-100061698D01*
X195284200Y-99828309D01*
X195284200Y-100355400D01*
X193828457Y-100355400D01*
X193810057Y-100337000D01*
X193963450Y-100337000D01*
X194122200Y-100178250D01*
X194122200Y-99429000D01*
X193372950Y-99429000D01*
X193214200Y-99587750D01*
X193214200Y-99741142D01*
X193086669Y-99613611D01*
X193086669Y-99100000D01*
X193062241Y-98974096D01*
X192989550Y-98863438D01*
X192879813Y-98789364D01*
X192750000Y-98763331D01*
X189250000Y-98763331D01*
X189124096Y-98787759D01*
X189013438Y-98860450D01*
X188939364Y-98970187D01*
X188913331Y-99100000D01*
X188913331Y-99339400D01*
X185928000Y-99339400D01*
X185762757Y-99372269D01*
X185622671Y-99465871D01*
X185622668Y-99465874D01*
X185216271Y-99872271D01*
X185122669Y-100012357D01*
X185089800Y-100177600D01*
X185089800Y-101761348D01*
X184994347Y-101856635D01*
X184899408Y-102085274D01*
X184899192Y-102332840D01*
X184993732Y-102561644D01*
X185168635Y-102736853D01*
X185397274Y-102831792D01*
X185644840Y-102832008D01*
X185873644Y-102737468D01*
X186048853Y-102562565D01*
X186143792Y-102333926D01*
X186144008Y-102086360D01*
X186049468Y-101857556D01*
X185953400Y-101761319D01*
X185953400Y-100356457D01*
X186106857Y-100203000D01*
X187460831Y-100203000D01*
X187432747Y-100231035D01*
X187337808Y-100459674D01*
X187337592Y-100707240D01*
X187432132Y-100936044D01*
X187473822Y-100977807D01*
X187227160Y-100977592D01*
X186998356Y-101072132D01*
X186823147Y-101247035D01*
X186728208Y-101475674D01*
X186727992Y-101723240D01*
X186822532Y-101952044D01*
X186997435Y-102127253D01*
X187226074Y-102222192D01*
X187325000Y-102222278D01*
X187325000Y-103022400D01*
X187357869Y-103187643D01*
X187451471Y-103327729D01*
X188029071Y-103905329D01*
X188169157Y-103998931D01*
X188169158Y-103998931D01*
X188196573Y-104004384D01*
X188334400Y-104031801D01*
X188334400Y-104031800D01*
X188334405Y-104031800D01*
X188913331Y-104031800D01*
X188913331Y-104100000D01*
X188937759Y-104225904D01*
X189010450Y-104336562D01*
X189120187Y-104410636D01*
X189250000Y-104436669D01*
X192750000Y-104436669D01*
X192875904Y-104412241D01*
X192986562Y-104339550D01*
X193060636Y-104229813D01*
X193086669Y-104100000D01*
X193086669Y-104031800D01*
X193641942Y-104031800D01*
X194766671Y-105156529D01*
X194906757Y-105250131D01*
X194906758Y-105250131D01*
X194994644Y-105267612D01*
X194994644Y-105267613D01*
X194951147Y-105311035D01*
X194856208Y-105539674D01*
X194855992Y-105787240D01*
X194902531Y-105899874D01*
X194297329Y-105294671D01*
X194157243Y-105201069D01*
X193992000Y-105168200D01*
X193086669Y-105168200D01*
X193086669Y-105100000D01*
X193062241Y-104974096D01*
X192989550Y-104863438D01*
X192879813Y-104789364D01*
X192750000Y-104763331D01*
X189250000Y-104763331D01*
X189124096Y-104787759D01*
X189013438Y-104860450D01*
X188939364Y-104970187D01*
X188913331Y-105100000D01*
X188913331Y-106100000D01*
X188937759Y-106225904D01*
X189010450Y-106336562D01*
X189120187Y-106410636D01*
X189250000Y-106436669D01*
X192750000Y-106436669D01*
X192875904Y-106412241D01*
X192986562Y-106339550D01*
X193060636Y-106229813D01*
X193086669Y-106100000D01*
X193086669Y-106031800D01*
X193813142Y-106031800D01*
X194449709Y-106668366D01*
X194449592Y-106803240D01*
X194544132Y-107032044D01*
X194719035Y-107207253D01*
X194947674Y-107302192D01*
X195195240Y-107302408D01*
X195424044Y-107207868D01*
X195599253Y-107032965D01*
X195694192Y-106804326D01*
X195694408Y-106556760D01*
X195599868Y-106327956D01*
X195558354Y-106286370D01*
X195601640Y-106286408D01*
X195830444Y-106191868D01*
X195926680Y-106095800D01*
X196450908Y-106095800D01*
X196400704Y-106129344D01*
X196345556Y-106152132D01*
X196302952Y-106194661D01*
X196248587Y-106230987D01*
X196136987Y-106342587D01*
X195999336Y-106548596D01*
X195951000Y-106791600D01*
X195951000Y-107222156D01*
X195874438Y-107272450D01*
X195820740Y-107352000D01*
X194813226Y-107352000D01*
X194612213Y-107150987D01*
X194406204Y-107013336D01*
X194163200Y-106965000D01*
X193056265Y-106965000D01*
X192989550Y-106863438D01*
X192879813Y-106789364D01*
X192750000Y-106763331D01*
X189250000Y-106763331D01*
X189124096Y-106787759D01*
X189013438Y-106860450D01*
X188939364Y-106970187D01*
X188913331Y-107100000D01*
X188913331Y-108100000D01*
X188937759Y-108225904D01*
X189010450Y-108336562D01*
X189120187Y-108410636D01*
X189250000Y-108436669D01*
X192750000Y-108436669D01*
X192875904Y-108412241D01*
X192986562Y-108339550D01*
X193057134Y-108235000D01*
X193900174Y-108235000D01*
X194101187Y-108436013D01*
X194307196Y-108573664D01*
X194550200Y-108622001D01*
X194550200Y-108622000D01*
X194550205Y-108622000D01*
X195821156Y-108622000D01*
X195871450Y-108698562D01*
X195890858Y-108711663D01*
X195874438Y-108722450D01*
X195800364Y-108832187D01*
X195774331Y-108962000D01*
X195774331Y-109912000D01*
X195798759Y-110037904D01*
X195871450Y-110148562D01*
X195981187Y-110222636D01*
X196111000Y-110248669D01*
X196154200Y-110248669D01*
X196154200Y-111168200D01*
X195750000Y-111168200D01*
X193385000Y-111168200D01*
X193385000Y-110226309D01*
X193385000Y-109885750D01*
X193385000Y-109314250D01*
X193385000Y-108973691D01*
X193288327Y-108740302D01*
X193109699Y-108561673D01*
X192876310Y-108465000D01*
X192623691Y-108465000D01*
X191285750Y-108465000D01*
X191127000Y-108623750D01*
X191127000Y-109473000D01*
X193226250Y-109473000D01*
X193385000Y-109314250D01*
X193385000Y-109885750D01*
X193226250Y-109727000D01*
X191127000Y-109727000D01*
X191127000Y-110576250D01*
X191285750Y-110735000D01*
X192623691Y-110735000D01*
X192876310Y-110735000D01*
X193109699Y-110638327D01*
X193288327Y-110459698D01*
X193385000Y-110226309D01*
X193385000Y-111168200D01*
X193086669Y-111168200D01*
X193086669Y-111100000D01*
X193062241Y-110974096D01*
X192989550Y-110863438D01*
X192879813Y-110789364D01*
X192750000Y-110763331D01*
X190873000Y-110763331D01*
X190873000Y-110576250D01*
X190873000Y-109727000D01*
X190873000Y-109473000D01*
X190873000Y-108623750D01*
X190714250Y-108465000D01*
X189376309Y-108465000D01*
X189123690Y-108465000D01*
X188890301Y-108561673D01*
X188711673Y-108740302D01*
X188615000Y-108973691D01*
X188615000Y-109314250D01*
X188773750Y-109473000D01*
X190873000Y-109473000D01*
X190873000Y-109727000D01*
X188773750Y-109727000D01*
X188615000Y-109885750D01*
X188615000Y-110226309D01*
X188711673Y-110459698D01*
X188890301Y-110638327D01*
X189123690Y-110735000D01*
X189376309Y-110735000D01*
X190714250Y-110735000D01*
X190873000Y-110576250D01*
X190873000Y-110763331D01*
X189250000Y-110763331D01*
X189124096Y-110787759D01*
X189013438Y-110860450D01*
X188939364Y-110970187D01*
X188913331Y-111100000D01*
X188913331Y-111873000D01*
X177086669Y-111873000D01*
X177086669Y-111100000D01*
X177062241Y-110974096D01*
X176989550Y-110863438D01*
X176879813Y-110789364D01*
X176750000Y-110763331D01*
X173250000Y-110763331D01*
X173124096Y-110787759D01*
X173013438Y-110860450D01*
X172939364Y-110970187D01*
X172913331Y-111100000D01*
X172913331Y-111168200D01*
X169832005Y-111168200D01*
X169832000Y-111168199D01*
X169694173Y-111195615D01*
X169666757Y-111201069D01*
X169526671Y-111294671D01*
X169526668Y-111294674D01*
X168948342Y-111873000D01*
X168544057Y-111873000D01*
X170385257Y-110031800D01*
X172913331Y-110031800D01*
X172913331Y-110100000D01*
X172937759Y-110225904D01*
X173010450Y-110336562D01*
X173120187Y-110410636D01*
X173250000Y-110436669D01*
X176750000Y-110436669D01*
X176875904Y-110412241D01*
X176986562Y-110339550D01*
X177060636Y-110229813D01*
X177086669Y-110100000D01*
X177086669Y-109100000D01*
X177062241Y-108974096D01*
X176989550Y-108863438D01*
X176879813Y-108789364D01*
X176750000Y-108763331D01*
X173250000Y-108763331D01*
X173124096Y-108787759D01*
X173013438Y-108860450D01*
X172939364Y-108970187D01*
X172913331Y-109100000D01*
X172913331Y-109168200D01*
X170206400Y-109168200D01*
X170041157Y-109201069D01*
X169901071Y-109294671D01*
X169901068Y-109294674D01*
X167322742Y-111873000D01*
X157000000Y-111873000D01*
X156951399Y-111882667D01*
X156910197Y-111910197D01*
X156882667Y-111951399D01*
X156873000Y-112000000D01*
X156873000Y-115390290D01*
X156856813Y-115379364D01*
X156727000Y-115353331D01*
X156164180Y-115353331D01*
X156206444Y-115335868D01*
X156249047Y-115293338D01*
X156303413Y-115257013D01*
X156339421Y-115203123D01*
X156381653Y-115160965D01*
X156404738Y-115105368D01*
X156441064Y-115051004D01*
X156453708Y-114987436D01*
X156476592Y-114932326D01*
X156476644Y-114872126D01*
X156489400Y-114808000D01*
X156489400Y-109753400D01*
X161137600Y-109753400D01*
X161340800Y-109753400D01*
X168859200Y-109753400D01*
X169102204Y-109705064D01*
X169308213Y-109567413D01*
X169511413Y-109364213D01*
X169649064Y-109158204D01*
X169697400Y-108915200D01*
X169697400Y-108295987D01*
X169750874Y-108318192D01*
X169998440Y-108318408D01*
X170227244Y-108223868D01*
X170402453Y-108048965D01*
X170409580Y-108031800D01*
X172913331Y-108031800D01*
X172913331Y-108100000D01*
X172937759Y-108225904D01*
X173010450Y-108336562D01*
X173120187Y-108410636D01*
X173250000Y-108436669D01*
X176750000Y-108436669D01*
X176875904Y-108412241D01*
X176986562Y-108339550D01*
X177060636Y-108229813D01*
X177086669Y-108100000D01*
X177086669Y-108031800D01*
X177671820Y-108031800D01*
X177678532Y-108048044D01*
X177853435Y-108223253D01*
X178082074Y-108318192D01*
X178329640Y-108318408D01*
X178558444Y-108223868D01*
X178733653Y-108048965D01*
X178828592Y-107820326D01*
X178828808Y-107572760D01*
X178734268Y-107343956D01*
X178559365Y-107168747D01*
X178330726Y-107073808D01*
X178083160Y-107073592D01*
X177854356Y-107168132D01*
X177854287Y-107168200D01*
X177086669Y-107168200D01*
X177086669Y-107100000D01*
X177062241Y-106974096D01*
X176989550Y-106863438D01*
X176879813Y-106789364D01*
X176750000Y-106763331D01*
X173250000Y-106763331D01*
X173124096Y-106787759D01*
X173013438Y-106860450D01*
X172939364Y-106970187D01*
X172913331Y-107100000D01*
X172913331Y-107168200D01*
X170226847Y-107168200D01*
X169999526Y-107073808D01*
X169751960Y-107073592D01*
X169697400Y-107096135D01*
X169697400Y-106263987D01*
X169750874Y-106286192D01*
X169998440Y-106286408D01*
X170227244Y-106191868D01*
X170387592Y-106031800D01*
X172913331Y-106031800D01*
X172913331Y-106100000D01*
X172937759Y-106225904D01*
X173010450Y-106336562D01*
X173120187Y-106410636D01*
X173250000Y-106436669D01*
X176750000Y-106436669D01*
X176875904Y-106412241D01*
X176986562Y-106339550D01*
X177060636Y-106229813D01*
X177086669Y-106100000D01*
X177086669Y-106031800D01*
X187651060Y-106031800D01*
X187810235Y-106191253D01*
X188038874Y-106286192D01*
X188286440Y-106286408D01*
X188515244Y-106191868D01*
X188690453Y-106016965D01*
X188785392Y-105788326D01*
X188785608Y-105540760D01*
X188691068Y-105311956D01*
X188516165Y-105136747D01*
X188287526Y-105041808D01*
X188039960Y-105041592D01*
X187811156Y-105136132D01*
X187779031Y-105168200D01*
X178566125Y-105168200D01*
X178733653Y-105000965D01*
X178828592Y-104772326D01*
X178828808Y-104524760D01*
X178734268Y-104295956D01*
X178638200Y-104199719D01*
X178638200Y-95886057D01*
X178791657Y-95732600D01*
X188527748Y-95732600D01*
X188623035Y-95828053D01*
X188851674Y-95922992D01*
X189099240Y-95923208D01*
X189328044Y-95828668D01*
X189503253Y-95653765D01*
X189546349Y-95549975D01*
X190365000Y-96368626D01*
X190365000Y-96763331D01*
X189250000Y-96763331D01*
X189124096Y-96787759D01*
X189013438Y-96860450D01*
X188939364Y-96970187D01*
X188913331Y-97100000D01*
X188913331Y-98100000D01*
X188937759Y-98225904D01*
X189010450Y-98336562D01*
X189120187Y-98410636D01*
X189250000Y-98436669D01*
X191200335Y-98436669D01*
X191202000Y-98437000D01*
X193416174Y-98437000D01*
X193310873Y-98542302D01*
X193214200Y-98775691D01*
X193214200Y-99016250D01*
X193372950Y-99175000D01*
X194122200Y-99175000D01*
X194122200Y-99155000D01*
X194376200Y-99155000D01*
X194376200Y-99175000D01*
X195125450Y-99175000D01*
X195284200Y-99016250D01*
X195284200Y-98775691D01*
X195187527Y-98542302D01*
X195082225Y-98437000D01*
X195684574Y-98437000D01*
X196248587Y-99001013D01*
X196302476Y-99037021D01*
X196344635Y-99079253D01*
X196400231Y-99102338D01*
X196454596Y-99138664D01*
X196518163Y-99151308D01*
X196573274Y-99174192D01*
X196633473Y-99174244D01*
X196697600Y-99187000D01*
X201574400Y-99187000D01*
X201817404Y-99138664D01*
X202023413Y-99001013D01*
X202770013Y-98254413D01*
X202907664Y-98048404D01*
X202956000Y-97805400D01*
X202956000Y-96885000D01*
X205613331Y-96885000D01*
X205613331Y-96950000D01*
X205637759Y-97075904D01*
X205710450Y-97186562D01*
X205820187Y-97260636D01*
X205950000Y-97286669D01*
X208050000Y-97286669D01*
X208175904Y-97262241D01*
X208286562Y-97189550D01*
X208360636Y-97079813D01*
X208386669Y-96950000D01*
X208386669Y-95550000D01*
X208362241Y-95424096D01*
X208289550Y-95313438D01*
X208179813Y-95239364D01*
X208050000Y-95213331D01*
X206873000Y-95213331D01*
X206873000Y-90585000D01*
X206873000Y-89377000D01*
X206873000Y-89123000D01*
X206873000Y-87915000D01*
X206523000Y-87915000D01*
X206021785Y-88065222D01*
X205616210Y-88395815D01*
X205368020Y-88856450D01*
X205357284Y-88916671D01*
X205480626Y-89123000D01*
X206873000Y-89123000D01*
X206873000Y-89377000D01*
X205480626Y-89377000D01*
X205357284Y-89583329D01*
X205368020Y-89643550D01*
X205616210Y-90104185D01*
X206021785Y-90434778D01*
X206523000Y-90585000D01*
X206873000Y-90585000D01*
X206873000Y-95213331D01*
X205950000Y-95213331D01*
X205824096Y-95237759D01*
X205713438Y-95310450D01*
X205639364Y-95420187D01*
X205613331Y-95550000D01*
X205613331Y-95615000D01*
X203057669Y-95615000D01*
X203057669Y-95473000D01*
X203033241Y-95347096D01*
X203024921Y-95334430D01*
X203080699Y-95311327D01*
X203259327Y-95132698D01*
X203356000Y-94899309D01*
X203356000Y-94658750D01*
X203356000Y-94087250D01*
X203356000Y-93846691D01*
X203275000Y-93651139D01*
X203275000Y-89528809D01*
X203275000Y-89238250D01*
X203275000Y-88666750D01*
X203275000Y-88376191D01*
X203178327Y-88142802D01*
X202999699Y-87964173D01*
X202766310Y-87867500D01*
X202513691Y-87867500D01*
X202275750Y-87867500D01*
X202117000Y-88026250D01*
X202117000Y-88825500D01*
X203116250Y-88825500D01*
X203275000Y-88666750D01*
X203275000Y-89238250D01*
X203116250Y-89079500D01*
X202117000Y-89079500D01*
X202117000Y-89878750D01*
X202275750Y-90037500D01*
X202513691Y-90037500D01*
X202766310Y-90037500D01*
X202999699Y-89940827D01*
X203178327Y-89762198D01*
X203275000Y-89528809D01*
X203275000Y-93651139D01*
X203259327Y-93613302D01*
X203080699Y-93434673D01*
X202847310Y-93338000D01*
X202606750Y-93338000D01*
X202448000Y-93496750D01*
X202448000Y-94246000D01*
X203197250Y-94246000D01*
X203356000Y-94087250D01*
X203356000Y-94658750D01*
X203197250Y-94500000D01*
X202448000Y-94500000D01*
X202448000Y-94520000D01*
X202194000Y-94520000D01*
X202194000Y-94500000D01*
X202194000Y-94246000D01*
X202194000Y-93496750D01*
X202035250Y-93338000D01*
X201863000Y-93338000D01*
X201863000Y-89878750D01*
X201863000Y-89079500D01*
X201863000Y-88825500D01*
X201863000Y-88026250D01*
X201704250Y-87867500D01*
X201466309Y-87867500D01*
X201213690Y-87867500D01*
X200980301Y-87964173D01*
X200801673Y-88142802D01*
X200705000Y-88376191D01*
X200705000Y-88666750D01*
X200863750Y-88825500D01*
X201863000Y-88825500D01*
X201863000Y-89079500D01*
X200863750Y-89079500D01*
X200705000Y-89238250D01*
X200705000Y-89528809D01*
X200801673Y-89762198D01*
X200980301Y-89940827D01*
X201213690Y-90037500D01*
X201466309Y-90037500D01*
X201704250Y-90037500D01*
X201863000Y-89878750D01*
X201863000Y-93338000D01*
X201794690Y-93338000D01*
X201561301Y-93434673D01*
X201382673Y-93613302D01*
X201286000Y-93846691D01*
X201286000Y-94087250D01*
X201444750Y-94246000D01*
X202194000Y-94246000D01*
X202194000Y-94500000D01*
X201444750Y-94500000D01*
X201286000Y-94658750D01*
X201286000Y-94899309D01*
X201382673Y-95132698D01*
X201561301Y-95311327D01*
X201616450Y-95334170D01*
X201610364Y-95343187D01*
X201584331Y-95473000D01*
X201584331Y-96273000D01*
X201608759Y-96398904D01*
X201681450Y-96509562D01*
X201686000Y-96512633D01*
X201686000Y-97542374D01*
X201311374Y-97917000D01*
X199945465Y-97917000D01*
X199945465Y-94819960D01*
X199712997Y-94257344D01*
X199282920Y-93826516D01*
X199275000Y-93823227D01*
X199275000Y-89528809D01*
X199275000Y-89238250D01*
X199275000Y-88666750D01*
X199275000Y-88376191D01*
X199178327Y-88142802D01*
X198999699Y-87964173D01*
X198766310Y-87867500D01*
X198513691Y-87867500D01*
X198275750Y-87867500D01*
X198117000Y-88026250D01*
X198117000Y-88825500D01*
X199116250Y-88825500D01*
X199275000Y-88666750D01*
X199275000Y-89238250D01*
X199116250Y-89079500D01*
X198117000Y-89079500D01*
X198117000Y-89878750D01*
X198275750Y-90037500D01*
X198513691Y-90037500D01*
X198766310Y-90037500D01*
X198999699Y-89940827D01*
X199178327Y-89762198D01*
X199275000Y-89528809D01*
X199275000Y-93823227D01*
X198720711Y-93593067D01*
X198111960Y-93592535D01*
X197549344Y-93825003D01*
X197118516Y-94255080D01*
X196885067Y-94817289D01*
X196884535Y-95426040D01*
X197117003Y-95988656D01*
X197547080Y-96419484D01*
X198109289Y-96652933D01*
X198718040Y-96653465D01*
X199280656Y-96420997D01*
X199711484Y-95990920D01*
X199944933Y-95428711D01*
X199945465Y-94819960D01*
X199945465Y-97917000D01*
X196960626Y-97917000D01*
X196396613Y-97352987D01*
X196190604Y-97215336D01*
X195947600Y-97167000D01*
X195175000Y-97167000D01*
X195175000Y-90270250D01*
X195175000Y-89413000D01*
X193809750Y-89413000D01*
X193651000Y-89571750D01*
X193651000Y-89920309D01*
X193747673Y-90153698D01*
X193926301Y-90332327D01*
X194159690Y-90429000D01*
X194412309Y-90429000D01*
X195016250Y-90429000D01*
X195175000Y-90270250D01*
X195175000Y-97167000D01*
X194889776Y-97167000D01*
X194888750Y-97165438D01*
X194779013Y-97091364D01*
X194649200Y-97065331D01*
X193849200Y-97065331D01*
X193723296Y-97089759D01*
X193612638Y-97162450D01*
X193609566Y-97167000D01*
X193086669Y-97167000D01*
X193086669Y-97100000D01*
X193062241Y-96974096D01*
X192989550Y-96863438D01*
X192879813Y-96789364D01*
X192750000Y-96763331D01*
X191635000Y-96763331D01*
X191635000Y-96105605D01*
X191635000Y-96105600D01*
X191635001Y-96105600D01*
X191586664Y-95862596D01*
X191449013Y-95656587D01*
X189333000Y-93540574D01*
X189333000Y-92239000D01*
X189333000Y-91330200D01*
X193000000Y-91330200D01*
X193126362Y-91305065D01*
X193233487Y-91233487D01*
X193305065Y-91126362D01*
X193330200Y-91000000D01*
X193330200Y-88330200D01*
X193835774Y-88330200D01*
X193747673Y-88418302D01*
X193651000Y-88651691D01*
X193651000Y-89000250D01*
X193809750Y-89159000D01*
X195175000Y-89159000D01*
X195175000Y-89139000D01*
X195429000Y-89139000D01*
X195429000Y-89159000D01*
X195449000Y-89159000D01*
X195449000Y-89413000D01*
X195429000Y-89413000D01*
X195429000Y-90270250D01*
X195587750Y-90429000D01*
X196191691Y-90429000D01*
X196444310Y-90429000D01*
X196677699Y-90332327D01*
X196856327Y-90153698D01*
X196953000Y-89920309D01*
X196953000Y-89913525D01*
X196980301Y-89940827D01*
X197213690Y-90037500D01*
X197466309Y-90037500D01*
X197704250Y-90037500D01*
X197863000Y-89878750D01*
X197863000Y-89079500D01*
X197843000Y-89079500D01*
X197843000Y-88825500D01*
X197863000Y-88825500D01*
X197863000Y-88026250D01*
X197704250Y-87867500D01*
X197466309Y-87867500D01*
X197213690Y-87867500D01*
X196980301Y-87964173D01*
X196801673Y-88142802D01*
X196736988Y-88298963D01*
X196677699Y-88239673D01*
X196444310Y-88143000D01*
X196293947Y-88143000D01*
X196305065Y-88126362D01*
X196330200Y-88000000D01*
X196330200Y-87842301D01*
X196443904Y-87820241D01*
X196554562Y-87747550D01*
X196598471Y-87682500D01*
X197066579Y-87682500D01*
X197100450Y-87734062D01*
X197210187Y-87808136D01*
X197340000Y-87834169D01*
X198640000Y-87834169D01*
X198765904Y-87809741D01*
X198876562Y-87737050D01*
X198950636Y-87627313D01*
X198976669Y-87497500D01*
X198976669Y-86597500D01*
X198952241Y-86471596D01*
X198879550Y-86360938D01*
X198769813Y-86286864D01*
X198640000Y-86260831D01*
X197340000Y-86260831D01*
X197214096Y-86285259D01*
X197103438Y-86357950D01*
X197066615Y-86412500D01*
X196639244Y-86412500D01*
X196630241Y-86366096D01*
X196557550Y-86255438D01*
X196447813Y-86181364D01*
X196330200Y-86157777D01*
X196330200Y-86000000D01*
X196305065Y-85873638D01*
X196233487Y-85766513D01*
X196126362Y-85694935D01*
X196000000Y-85669800D01*
X193330200Y-85669800D01*
X193330200Y-83127000D01*
X208873000Y-83127000D01*
X208873000Y-116873000D01*
X208873000Y-116873000D01*
G37*
X208873000Y-116873000D02*
X208642716Y-116873000D01*
X208642716Y-114083329D01*
X208642716Y-113416671D01*
X208642716Y-89583329D01*
X208642716Y-88916671D01*
X208631980Y-88856450D01*
X208386669Y-88401158D01*
X208386669Y-87450000D01*
X208386669Y-86050000D01*
X208362241Y-85924096D01*
X208289550Y-85813438D01*
X208179813Y-85739364D01*
X208050000Y-85713331D01*
X207635000Y-85713331D01*
X207635000Y-85283200D01*
X207586664Y-85040196D01*
X207586664Y-85040195D01*
X207449013Y-84834187D01*
X206879813Y-84264987D01*
X206673804Y-84127336D01*
X206430800Y-84079000D01*
X201990000Y-84079000D01*
X196629521Y-84079000D01*
X196557550Y-83969438D01*
X196447813Y-83895364D01*
X196318000Y-83869331D01*
X194286000Y-83869331D01*
X194160096Y-83893759D01*
X194049438Y-83966450D01*
X193975364Y-84076187D01*
X193949331Y-84206000D01*
X193949331Y-85222000D01*
X193973759Y-85347904D01*
X194046450Y-85458562D01*
X194156187Y-85532636D01*
X194286000Y-85558669D01*
X196318000Y-85558669D01*
X196443904Y-85534241D01*
X196554562Y-85461550D01*
X196628636Y-85351813D01*
X196629200Y-85349000D01*
X201355000Y-85349000D01*
X201355000Y-86260831D01*
X201340000Y-86260831D01*
X201214096Y-86285259D01*
X201103438Y-86357950D01*
X201029364Y-86467687D01*
X201003331Y-86597500D01*
X201003331Y-87497500D01*
X201027759Y-87623404D01*
X201100450Y-87734062D01*
X201210187Y-87808136D01*
X201340000Y-87834169D01*
X202640000Y-87834169D01*
X202765904Y-87809741D01*
X202876562Y-87737050D01*
X202950636Y-87627313D01*
X202976669Y-87497500D01*
X202976669Y-86597500D01*
X202952241Y-86471596D01*
X202879550Y-86360938D01*
X202769813Y-86286864D01*
X202640000Y-86260831D01*
X202625000Y-86260831D01*
X202625000Y-85349000D01*
X206167774Y-85349000D01*
X206365000Y-85546226D01*
X206365000Y-85713331D01*
X205950000Y-85713331D01*
X205824096Y-85737759D01*
X205713438Y-85810450D01*
X205639364Y-85920187D01*
X205613331Y-86050000D01*
X205613331Y-87450000D01*
X205637759Y-87575904D01*
X205710450Y-87686562D01*
X205820187Y-87760636D01*
X205950000Y-87786669D01*
X208050000Y-87786669D01*
X208175904Y-87762241D01*
X208286562Y-87689550D01*
X208360636Y-87579813D01*
X208386669Y-87450000D01*
X208386669Y-88401158D01*
X208383790Y-88395815D01*
X207978215Y-88065222D01*
X207477000Y-87915000D01*
X207127000Y-87915000D01*
X207127000Y-89123000D01*
X208519374Y-89123000D01*
X208642716Y-88916671D01*
X208642716Y-89583329D01*
X208519374Y-89377000D01*
X207127000Y-89377000D01*
X207127000Y-90585000D01*
X207477000Y-90585000D01*
X207978215Y-90434778D01*
X208383790Y-90104185D01*
X208631980Y-89643550D01*
X208642716Y-89583329D01*
X208642716Y-113416671D01*
X208631980Y-113356450D01*
X208407240Y-112939337D01*
X208407240Y-111250000D01*
X208328821Y-110855760D01*
X208105501Y-110521539D01*
X207771280Y-110298219D01*
X207377040Y-110219800D01*
X206622960Y-110219800D01*
X206228720Y-110298219D01*
X205894499Y-110521539D01*
X205671179Y-110855760D01*
X205592760Y-111250000D01*
X205671179Y-111644240D01*
X205894499Y-111978461D01*
X206228720Y-112201781D01*
X206622960Y-112280200D01*
X207377040Y-112280200D01*
X207771280Y-112201781D01*
X208105501Y-111978461D01*
X208328821Y-111644240D01*
X208407240Y-111250000D01*
X208407240Y-112939337D01*
X208383790Y-112895815D01*
X207978215Y-112565222D01*
X207477000Y-112415000D01*
X207127000Y-112415000D01*
X207127000Y-113623000D01*
X208519374Y-113623000D01*
X208642716Y-113416671D01*
X208642716Y-114083329D01*
X208519374Y-113877000D01*
X207127000Y-113877000D01*
X207127000Y-115085000D01*
X207477000Y-115085000D01*
X207978215Y-114934778D01*
X208383790Y-114604185D01*
X208631980Y-114143550D01*
X208642716Y-114083329D01*
X208642716Y-116873000D01*
X206873000Y-116873000D01*
X206873000Y-115085000D01*
X206873000Y-113877000D01*
X206873000Y-113623000D01*
X206873000Y-112415000D01*
X206523000Y-112415000D01*
X206021785Y-112565222D01*
X205616210Y-112895815D01*
X205368020Y-113356450D01*
X205357284Y-113416671D01*
X205480626Y-113623000D01*
X206873000Y-113623000D01*
X206873000Y-113877000D01*
X205480626Y-113877000D01*
X205357284Y-114083329D01*
X205368020Y-114143550D01*
X205616210Y-114604185D01*
X206021785Y-114934778D01*
X206523000Y-115085000D01*
X206873000Y-115085000D01*
X206873000Y-116873000D01*
X202565000Y-116873000D01*
X202565000Y-113537310D01*
X202565000Y-113284691D01*
X202565000Y-112680750D01*
X202565000Y-112109250D01*
X202565000Y-111505309D01*
X202565000Y-111252690D01*
X202468327Y-111019301D01*
X202289698Y-110840673D01*
X202056309Y-110744000D01*
X201199750Y-110744000D01*
X201041000Y-110902750D01*
X201041000Y-112268000D01*
X202406250Y-112268000D01*
X202565000Y-112109250D01*
X202565000Y-112680750D01*
X202406250Y-112522000D01*
X201041000Y-112522000D01*
X201041000Y-113887250D01*
X201199750Y-114046000D01*
X202056309Y-114046000D01*
X202289698Y-113949327D01*
X202468327Y-113770699D01*
X202565000Y-113537310D01*
X202565000Y-116873000D01*
X202000000Y-116873000D01*
X201951399Y-116882667D01*
X201910197Y-116910197D01*
X201882667Y-116951399D01*
X201873000Y-117000000D01*
X201873000Y-123873000D01*
X201630117Y-123873000D01*
X201771590Y-123484694D01*
X201771590Y-116984694D01*
X201745579Y-116384542D01*
X201565953Y-115950884D01*
X201312060Y-115867545D01*
X201132455Y-116047150D01*
X201132455Y-115687940D01*
X201049116Y-115434047D01*
X200787000Y-115338549D01*
X200787000Y-113887250D01*
X200787000Y-112522000D01*
X200787000Y-112268000D01*
X200787000Y-110902750D01*
X200628250Y-110744000D01*
X199771691Y-110744000D01*
X199538302Y-110840673D01*
X199359673Y-111019301D01*
X199263000Y-111252690D01*
X199263000Y-111505309D01*
X199263000Y-112109250D01*
X199421750Y-112268000D01*
X200787000Y-112268000D01*
X200787000Y-112522000D01*
X199421750Y-112522000D01*
X199263000Y-112680750D01*
X199263000Y-113284691D01*
X199263000Y-113537310D01*
X199359673Y-113770699D01*
X199538302Y-113949327D01*
X199771691Y-114046000D01*
X200628250Y-114046000D01*
X200787000Y-113887250D01*
X200787000Y-115338549D01*
X200484694Y-115228410D01*
X199884542Y-115254421D01*
X199450884Y-115434047D01*
X199367545Y-115687940D01*
X200250000Y-116570395D01*
X201132455Y-115687940D01*
X201132455Y-116047150D01*
X200429605Y-116750000D01*
X201312060Y-117632455D01*
X201565953Y-117549116D01*
X201771590Y-116984694D01*
X201771590Y-123484694D01*
X201745579Y-122884542D01*
X201565953Y-122450884D01*
X201312060Y-122367545D01*
X201132455Y-122547150D01*
X201132455Y-122187940D01*
X201132455Y-117812060D01*
X200250000Y-116929605D01*
X199367545Y-117812060D01*
X199450884Y-118065953D01*
X200015306Y-118271590D01*
X200615458Y-118245579D01*
X201049116Y-118065953D01*
X201132455Y-117812060D01*
X201132455Y-122187940D01*
X201049116Y-121934047D01*
X200484694Y-121728410D01*
X199884542Y-121754421D01*
X199450884Y-121934047D01*
X199367545Y-122187940D01*
X200250000Y-123070395D01*
X201132455Y-122187940D01*
X201132455Y-122547150D01*
X200429605Y-123250000D01*
X200443747Y-123264142D01*
X200264142Y-123443747D01*
X200250000Y-123429605D01*
X200235857Y-123443747D01*
X200056252Y-123264142D01*
X200070395Y-123250000D01*
X199187940Y-122367545D01*
X199127000Y-122387548D01*
X199127000Y-117612451D01*
X199187940Y-117632455D01*
X200070395Y-116750000D01*
X199187940Y-115867545D01*
X199127000Y-115887548D01*
X199127000Y-112000000D01*
X199117333Y-111951399D01*
X199089803Y-111910197D01*
X199048601Y-111882667D01*
X199000000Y-111873000D01*
X196788858Y-111873000D01*
X196891329Y-111770529D01*
X196984931Y-111630443D01*
X196984931Y-111630442D01*
X197017800Y-111465200D01*
X197017800Y-110248669D01*
X197061000Y-110248669D01*
X197186904Y-110224241D01*
X197297562Y-110151550D01*
X197371636Y-110041813D01*
X197397669Y-109912000D01*
X197397669Y-108962000D01*
X197373241Y-108836096D01*
X197300550Y-108725438D01*
X197281141Y-108712336D01*
X197297562Y-108701550D01*
X197371636Y-108591813D01*
X197397669Y-108462000D01*
X197397669Y-107512000D01*
X197373241Y-107386096D01*
X197300550Y-107275438D01*
X197221000Y-107221740D01*
X197221000Y-107036811D01*
X197224853Y-107032965D01*
X197247938Y-106977368D01*
X197284264Y-106923004D01*
X197296908Y-106859436D01*
X197319792Y-106804326D01*
X197319844Y-106744126D01*
X197332600Y-106680000D01*
X197319955Y-106616433D01*
X197320008Y-106556760D01*
X197297019Y-106501124D01*
X197284264Y-106436996D01*
X197248255Y-106383104D01*
X197225468Y-106327956D01*
X197182938Y-106285352D01*
X197146613Y-106230987D01*
X197092723Y-106194978D01*
X197050565Y-106152747D01*
X196994968Y-106129661D01*
X196944291Y-106095800D01*
X197265348Y-106095800D01*
X197360635Y-106191253D01*
X197589274Y-106286192D01*
X197836840Y-106286408D01*
X198065644Y-106191868D01*
X198240853Y-106016965D01*
X198335792Y-105788326D01*
X198336008Y-105540760D01*
X198241468Y-105311956D01*
X198212562Y-105283000D01*
X202411542Y-105283000D01*
X203987400Y-106858858D01*
X203987400Y-108102400D01*
X204020269Y-108267643D01*
X204113871Y-108407729D01*
X204761468Y-109055325D01*
X204761471Y-109055329D01*
X204761472Y-109055329D01*
X204901557Y-109148931D01*
X204901558Y-109148931D01*
X204928973Y-109154384D01*
X205066800Y-109181801D01*
X205066800Y-109181800D01*
X205066805Y-109181800D01*
X205696275Y-109181800D01*
X205894499Y-109478461D01*
X206228720Y-109701781D01*
X206622960Y-109780200D01*
X207377040Y-109780200D01*
X207771280Y-109701781D01*
X208105501Y-109478461D01*
X208328821Y-109144240D01*
X208407240Y-108750000D01*
X208407240Y-106250000D01*
X208328821Y-105855760D01*
X208105501Y-105521539D01*
X207771280Y-105298219D01*
X207377040Y-105219800D01*
X206622960Y-105219800D01*
X206228720Y-105298219D01*
X205894499Y-105521539D01*
X205671179Y-105855760D01*
X205592760Y-106250000D01*
X205671179Y-106644240D01*
X205894499Y-106978461D01*
X206228720Y-107201781D01*
X206622960Y-107280200D01*
X207377040Y-107280200D01*
X207771280Y-107201781D01*
X208105501Y-106978461D01*
X208328821Y-106644240D01*
X208407240Y-106250000D01*
X208407240Y-108750000D01*
X208328821Y-108355760D01*
X208105501Y-108021539D01*
X207771280Y-107798219D01*
X207377040Y-107719800D01*
X206622960Y-107719800D01*
X206228720Y-107798219D01*
X205894499Y-108021539D01*
X205696275Y-108318200D01*
X205245657Y-108318200D01*
X204851000Y-107923542D01*
X204851000Y-106680005D01*
X204851000Y-106680000D01*
X204851001Y-106680000D01*
X204823584Y-106542173D01*
X204818131Y-106514758D01*
X204818131Y-106514757D01*
X204724529Y-106374671D01*
X202895729Y-104545871D01*
X202755643Y-104452269D01*
X202590400Y-104419400D01*
X195250858Y-104419400D01*
X194126129Y-103294671D01*
X193986043Y-103201069D01*
X193820800Y-103168200D01*
X193086669Y-103168200D01*
X193086669Y-103100000D01*
X193062241Y-102974096D01*
X192989550Y-102863438D01*
X192879813Y-102789364D01*
X192750000Y-102763331D01*
X189250000Y-102763331D01*
X189124096Y-102787759D01*
X189013438Y-102860450D01*
X188939364Y-102970187D01*
X188913331Y-103100000D01*
X188913331Y-103168200D01*
X188513258Y-103168200D01*
X188188600Y-102843542D01*
X188188600Y-102006400D01*
X188155731Y-101841157D01*
X188062129Y-101701071D01*
X188062125Y-101701068D01*
X187972690Y-101611633D01*
X187972808Y-101476760D01*
X187878268Y-101247956D01*
X187836577Y-101206192D01*
X187971652Y-101206310D01*
X188670671Y-101905329D01*
X188810757Y-101998931D01*
X188810758Y-101998931D01*
X188913331Y-102019334D01*
X188913331Y-102100000D01*
X188937759Y-102225904D01*
X189010450Y-102336562D01*
X189120187Y-102410636D01*
X189250000Y-102436669D01*
X192750000Y-102436669D01*
X192875904Y-102412241D01*
X192986562Y-102339550D01*
X193060636Y-102229813D01*
X193086669Y-102100000D01*
X193086669Y-102031800D01*
X194689942Y-102031800D01*
X195173068Y-102514925D01*
X195173071Y-102514929D01*
X195173072Y-102514929D01*
X195266674Y-102577472D01*
X195313157Y-102608531D01*
X195313158Y-102608532D01*
X195478400Y-102641401D01*
X195478400Y-102641400D01*
X195478405Y-102641400D01*
X204240342Y-102641400D01*
X204393800Y-102794857D01*
X204393800Y-103225600D01*
X204426669Y-103390843D01*
X204520271Y-103530929D01*
X205044668Y-104055325D01*
X205044671Y-104055329D01*
X205044672Y-104055329D01*
X205138274Y-104117872D01*
X205184757Y-104148931D01*
X205184758Y-104148932D01*
X205350000Y-104181801D01*
X205350000Y-104181800D01*
X205350005Y-104181800D01*
X205696275Y-104181800D01*
X205894499Y-104478461D01*
X206228720Y-104701781D01*
X206622960Y-104780200D01*
X207377040Y-104780200D01*
X207771280Y-104701781D01*
X208105501Y-104478461D01*
X208328821Y-104144240D01*
X208407240Y-103750000D01*
X208328821Y-103355760D01*
X208105501Y-103021539D01*
X207771280Y-102798219D01*
X207377040Y-102719800D01*
X206622960Y-102719800D01*
X206228720Y-102798219D01*
X205894499Y-103021539D01*
X205696275Y-103318200D01*
X205528857Y-103318200D01*
X205257400Y-103046742D01*
X205257400Y-102616000D01*
X205224531Y-102450757D01*
X205130929Y-102310671D01*
X205130925Y-102310668D01*
X204724529Y-101904271D01*
X204584443Y-101810669D01*
X204419200Y-101777800D01*
X197929310Y-101777800D01*
X198065644Y-101721468D01*
X198105381Y-101681800D01*
X205696275Y-101681800D01*
X205894499Y-101978461D01*
X206228720Y-102201781D01*
X206622960Y-102280200D01*
X207377040Y-102280200D01*
X207771280Y-102201781D01*
X208105501Y-101978461D01*
X208328821Y-101644240D01*
X208407240Y-101250000D01*
X208407240Y-98750000D01*
X208328821Y-98355760D01*
X208105501Y-98021539D01*
X207771280Y-97798219D01*
X207377040Y-97719800D01*
X206622960Y-97719800D01*
X206228720Y-97798219D01*
X205894499Y-98021539D01*
X205671179Y-98355760D01*
X205592760Y-98750000D01*
X205671179Y-99144240D01*
X205894499Y-99478461D01*
X206228720Y-99701781D01*
X206622960Y-99780200D01*
X207377040Y-99780200D01*
X207771280Y-99701781D01*
X208105501Y-99478461D01*
X208328821Y-99144240D01*
X208407240Y-98750000D01*
X208407240Y-101250000D01*
X208328821Y-100855760D01*
X208105501Y-100521539D01*
X207771280Y-100298219D01*
X207377040Y-100219800D01*
X206622960Y-100219800D01*
X206228720Y-100298219D01*
X205894499Y-100521539D01*
X205696275Y-100818200D01*
X198218152Y-100818200D01*
X198066565Y-100666347D01*
X197929421Y-100609400D01*
X204174148Y-100609400D01*
X204269435Y-100704853D01*
X204498074Y-100799792D01*
X204745640Y-100800008D01*
X204974444Y-100705468D01*
X205149653Y-100530565D01*
X205244592Y-100301926D01*
X205244808Y-100054360D01*
X205150268Y-99825556D01*
X204975365Y-99650347D01*
X204746726Y-99555408D01*
X204499160Y-99555192D01*
X204270356Y-99649732D01*
X204174119Y-99745800D01*
X197104005Y-99745800D01*
X197104000Y-99745799D01*
X196938758Y-99778668D01*
X196892274Y-99809727D01*
X196798671Y-99872271D01*
X196798668Y-99872274D01*
X196315542Y-100355400D01*
X195284200Y-100355400D01*
X195284200Y-99828309D01*
X195284200Y-99587750D01*
X195125450Y-99429000D01*
X194376200Y-99429000D01*
X194376200Y-100178250D01*
X194534950Y-100337000D01*
X194775510Y-100337000D01*
X195008899Y-100240327D01*
X195187527Y-100061698D01*
X195284200Y-99828309D01*
X195284200Y-100355400D01*
X193828457Y-100355400D01*
X193810057Y-100337000D01*
X193963450Y-100337000D01*
X194122200Y-100178250D01*
X194122200Y-99429000D01*
X193372950Y-99429000D01*
X193214200Y-99587750D01*
X193214200Y-99741142D01*
X193086669Y-99613611D01*
X193086669Y-99100000D01*
X193062241Y-98974096D01*
X192989550Y-98863438D01*
X192879813Y-98789364D01*
X192750000Y-98763331D01*
X189250000Y-98763331D01*
X189124096Y-98787759D01*
X189013438Y-98860450D01*
X188939364Y-98970187D01*
X188913331Y-99100000D01*
X188913331Y-99339400D01*
X185928000Y-99339400D01*
X185762757Y-99372269D01*
X185622671Y-99465871D01*
X185622668Y-99465874D01*
X185216271Y-99872271D01*
X185122669Y-100012357D01*
X185089800Y-100177600D01*
X185089800Y-101761348D01*
X184994347Y-101856635D01*
X184899408Y-102085274D01*
X184899192Y-102332840D01*
X184993732Y-102561644D01*
X185168635Y-102736853D01*
X185397274Y-102831792D01*
X185644840Y-102832008D01*
X185873644Y-102737468D01*
X186048853Y-102562565D01*
X186143792Y-102333926D01*
X186144008Y-102086360D01*
X186049468Y-101857556D01*
X185953400Y-101761319D01*
X185953400Y-100356457D01*
X186106857Y-100203000D01*
X187460831Y-100203000D01*
X187432747Y-100231035D01*
X187337808Y-100459674D01*
X187337592Y-100707240D01*
X187432132Y-100936044D01*
X187473822Y-100977807D01*
X187227160Y-100977592D01*
X186998356Y-101072132D01*
X186823147Y-101247035D01*
X186728208Y-101475674D01*
X186727992Y-101723240D01*
X186822532Y-101952044D01*
X186997435Y-102127253D01*
X187226074Y-102222192D01*
X187325000Y-102222278D01*
X187325000Y-103022400D01*
X187357869Y-103187643D01*
X187451471Y-103327729D01*
X188029071Y-103905329D01*
X188169157Y-103998931D01*
X188169158Y-103998931D01*
X188196573Y-104004384D01*
X188334400Y-104031801D01*
X188334400Y-104031800D01*
X188334405Y-104031800D01*
X188913331Y-104031800D01*
X188913331Y-104100000D01*
X188937759Y-104225904D01*
X189010450Y-104336562D01*
X189120187Y-104410636D01*
X189250000Y-104436669D01*
X192750000Y-104436669D01*
X192875904Y-104412241D01*
X192986562Y-104339550D01*
X193060636Y-104229813D01*
X193086669Y-104100000D01*
X193086669Y-104031800D01*
X193641942Y-104031800D01*
X194766671Y-105156529D01*
X194906757Y-105250131D01*
X194906758Y-105250131D01*
X194994644Y-105267612D01*
X194994644Y-105267613D01*
X194951147Y-105311035D01*
X194856208Y-105539674D01*
X194855992Y-105787240D01*
X194902531Y-105899874D01*
X194297329Y-105294671D01*
X194157243Y-105201069D01*
X193992000Y-105168200D01*
X193086669Y-105168200D01*
X193086669Y-105100000D01*
X193062241Y-104974096D01*
X192989550Y-104863438D01*
X192879813Y-104789364D01*
X192750000Y-104763331D01*
X189250000Y-104763331D01*
X189124096Y-104787759D01*
X189013438Y-104860450D01*
X188939364Y-104970187D01*
X188913331Y-105100000D01*
X188913331Y-106100000D01*
X188937759Y-106225904D01*
X189010450Y-106336562D01*
X189120187Y-106410636D01*
X189250000Y-106436669D01*
X192750000Y-106436669D01*
X192875904Y-106412241D01*
X192986562Y-106339550D01*
X193060636Y-106229813D01*
X193086669Y-106100000D01*
X193086669Y-106031800D01*
X193813142Y-106031800D01*
X194449709Y-106668366D01*
X194449592Y-106803240D01*
X194544132Y-107032044D01*
X194719035Y-107207253D01*
X194947674Y-107302192D01*
X195195240Y-107302408D01*
X195424044Y-107207868D01*
X195599253Y-107032965D01*
X195694192Y-106804326D01*
X195694408Y-106556760D01*
X195599868Y-106327956D01*
X195558354Y-106286370D01*
X195601640Y-106286408D01*
X195830444Y-106191868D01*
X195926680Y-106095800D01*
X196450908Y-106095800D01*
X196400704Y-106129344D01*
X196345556Y-106152132D01*
X196302952Y-106194661D01*
X196248587Y-106230987D01*
X196136987Y-106342587D01*
X195999336Y-106548596D01*
X195951000Y-106791600D01*
X195951000Y-107222156D01*
X195874438Y-107272450D01*
X195820740Y-107352000D01*
X194813226Y-107352000D01*
X194612213Y-107150987D01*
X194406204Y-107013336D01*
X194163200Y-106965000D01*
X193056265Y-106965000D01*
X192989550Y-106863438D01*
X192879813Y-106789364D01*
X192750000Y-106763331D01*
X189250000Y-106763331D01*
X189124096Y-106787759D01*
X189013438Y-106860450D01*
X188939364Y-106970187D01*
X188913331Y-107100000D01*
X188913331Y-108100000D01*
X188937759Y-108225904D01*
X189010450Y-108336562D01*
X189120187Y-108410636D01*
X189250000Y-108436669D01*
X192750000Y-108436669D01*
X192875904Y-108412241D01*
X192986562Y-108339550D01*
X193057134Y-108235000D01*
X193900174Y-108235000D01*
X194101187Y-108436013D01*
X194307196Y-108573664D01*
X194550200Y-108622001D01*
X194550200Y-108622000D01*
X194550205Y-108622000D01*
X195821156Y-108622000D01*
X195871450Y-108698562D01*
X195890858Y-108711663D01*
X195874438Y-108722450D01*
X195800364Y-108832187D01*
X195774331Y-108962000D01*
X195774331Y-109912000D01*
X195798759Y-110037904D01*
X195871450Y-110148562D01*
X195981187Y-110222636D01*
X196111000Y-110248669D01*
X196154200Y-110248669D01*
X196154200Y-111168200D01*
X195750000Y-111168200D01*
X193385000Y-111168200D01*
X193385000Y-110226309D01*
X193385000Y-109885750D01*
X193385000Y-109314250D01*
X193385000Y-108973691D01*
X193288327Y-108740302D01*
X193109699Y-108561673D01*
X192876310Y-108465000D01*
X192623691Y-108465000D01*
X191285750Y-108465000D01*
X191127000Y-108623750D01*
X191127000Y-109473000D01*
X193226250Y-109473000D01*
X193385000Y-109314250D01*
X193385000Y-109885750D01*
X193226250Y-109727000D01*
X191127000Y-109727000D01*
X191127000Y-110576250D01*
X191285750Y-110735000D01*
X192623691Y-110735000D01*
X192876310Y-110735000D01*
X193109699Y-110638327D01*
X193288327Y-110459698D01*
X193385000Y-110226309D01*
X193385000Y-111168200D01*
X193086669Y-111168200D01*
X193086669Y-111100000D01*
X193062241Y-110974096D01*
X192989550Y-110863438D01*
X192879813Y-110789364D01*
X192750000Y-110763331D01*
X190873000Y-110763331D01*
X190873000Y-110576250D01*
X190873000Y-109727000D01*
X190873000Y-109473000D01*
X190873000Y-108623750D01*
X190714250Y-108465000D01*
X189376309Y-108465000D01*
X189123690Y-108465000D01*
X188890301Y-108561673D01*
X188711673Y-108740302D01*
X188615000Y-108973691D01*
X188615000Y-109314250D01*
X188773750Y-109473000D01*
X190873000Y-109473000D01*
X190873000Y-109727000D01*
X188773750Y-109727000D01*
X188615000Y-109885750D01*
X188615000Y-110226309D01*
X188711673Y-110459698D01*
X188890301Y-110638327D01*
X189123690Y-110735000D01*
X189376309Y-110735000D01*
X190714250Y-110735000D01*
X190873000Y-110576250D01*
X190873000Y-110763331D01*
X189250000Y-110763331D01*
X189124096Y-110787759D01*
X189013438Y-110860450D01*
X188939364Y-110970187D01*
X188913331Y-111100000D01*
X188913331Y-111873000D01*
X177086669Y-111873000D01*
X177086669Y-111100000D01*
X177062241Y-110974096D01*
X176989550Y-110863438D01*
X176879813Y-110789364D01*
X176750000Y-110763331D01*
X173250000Y-110763331D01*
X173124096Y-110787759D01*
X173013438Y-110860450D01*
X172939364Y-110970187D01*
X172913331Y-111100000D01*
X172913331Y-111168200D01*
X169832005Y-111168200D01*
X169832000Y-111168199D01*
X169694173Y-111195615D01*
X169666757Y-111201069D01*
X169526671Y-111294671D01*
X169526668Y-111294674D01*
X168948342Y-111873000D01*
X168544057Y-111873000D01*
X170385257Y-110031800D01*
X172913331Y-110031800D01*
X172913331Y-110100000D01*
X172937759Y-110225904D01*
X173010450Y-110336562D01*
X173120187Y-110410636D01*
X173250000Y-110436669D01*
X176750000Y-110436669D01*
X176875904Y-110412241D01*
X176986562Y-110339550D01*
X177060636Y-110229813D01*
X177086669Y-110100000D01*
X177086669Y-109100000D01*
X177062241Y-108974096D01*
X176989550Y-108863438D01*
X176879813Y-108789364D01*
X176750000Y-108763331D01*
X173250000Y-108763331D01*
X173124096Y-108787759D01*
X173013438Y-108860450D01*
X172939364Y-108970187D01*
X172913331Y-109100000D01*
X172913331Y-109168200D01*
X170206400Y-109168200D01*
X170041157Y-109201069D01*
X169901071Y-109294671D01*
X169901068Y-109294674D01*
X167322742Y-111873000D01*
X157000000Y-111873000D01*
X156951399Y-111882667D01*
X156910197Y-111910197D01*
X156882667Y-111951399D01*
X156873000Y-112000000D01*
X156873000Y-115390290D01*
X156856813Y-115379364D01*
X156727000Y-115353331D01*
X156164180Y-115353331D01*
X156206444Y-115335868D01*
X156249047Y-115293338D01*
X156303413Y-115257013D01*
X156339421Y-115203123D01*
X156381653Y-115160965D01*
X156404738Y-115105368D01*
X156441064Y-115051004D01*
X156453708Y-114987436D01*
X156476592Y-114932326D01*
X156476644Y-114872126D01*
X156489400Y-114808000D01*
X156489400Y-109753400D01*
X161137600Y-109753400D01*
X161340800Y-109753400D01*
X168859200Y-109753400D01*
X169102204Y-109705064D01*
X169308213Y-109567413D01*
X169511413Y-109364213D01*
X169649064Y-109158204D01*
X169697400Y-108915200D01*
X169697400Y-108295987D01*
X169750874Y-108318192D01*
X169998440Y-108318408D01*
X170227244Y-108223868D01*
X170402453Y-108048965D01*
X170409580Y-108031800D01*
X172913331Y-108031800D01*
X172913331Y-108100000D01*
X172937759Y-108225904D01*
X173010450Y-108336562D01*
X173120187Y-108410636D01*
X173250000Y-108436669D01*
X176750000Y-108436669D01*
X176875904Y-108412241D01*
X176986562Y-108339550D01*
X177060636Y-108229813D01*
X177086669Y-108100000D01*
X177086669Y-108031800D01*
X177671820Y-108031800D01*
X177678532Y-108048044D01*
X177853435Y-108223253D01*
X178082074Y-108318192D01*
X178329640Y-108318408D01*
X178558444Y-108223868D01*
X178733653Y-108048965D01*
X178828592Y-107820326D01*
X178828808Y-107572760D01*
X178734268Y-107343956D01*
X178559365Y-107168747D01*
X178330726Y-107073808D01*
X178083160Y-107073592D01*
X177854356Y-107168132D01*
X177854287Y-107168200D01*
X177086669Y-107168200D01*
X177086669Y-107100000D01*
X177062241Y-106974096D01*
X176989550Y-106863438D01*
X176879813Y-106789364D01*
X176750000Y-106763331D01*
X173250000Y-106763331D01*
X173124096Y-106787759D01*
X173013438Y-106860450D01*
X172939364Y-106970187D01*
X172913331Y-107100000D01*
X172913331Y-107168200D01*
X170226847Y-107168200D01*
X169999526Y-107073808D01*
X169751960Y-107073592D01*
X169697400Y-107096135D01*
X169697400Y-106263987D01*
X169750874Y-106286192D01*
X169998440Y-106286408D01*
X170227244Y-106191868D01*
X170387592Y-106031800D01*
X172913331Y-106031800D01*
X172913331Y-106100000D01*
X172937759Y-106225904D01*
X173010450Y-106336562D01*
X173120187Y-106410636D01*
X173250000Y-106436669D01*
X176750000Y-106436669D01*
X176875904Y-106412241D01*
X176986562Y-106339550D01*
X177060636Y-106229813D01*
X177086669Y-106100000D01*
X177086669Y-106031800D01*
X187651060Y-106031800D01*
X187810235Y-106191253D01*
X188038874Y-106286192D01*
X188286440Y-106286408D01*
X188515244Y-106191868D01*
X188690453Y-106016965D01*
X188785392Y-105788326D01*
X188785608Y-105540760D01*
X188691068Y-105311956D01*
X188516165Y-105136747D01*
X188287526Y-105041808D01*
X188039960Y-105041592D01*
X187811156Y-105136132D01*
X187779031Y-105168200D01*
X178566125Y-105168200D01*
X178733653Y-105000965D01*
X178828592Y-104772326D01*
X178828808Y-104524760D01*
X178734268Y-104295956D01*
X178638200Y-104199719D01*
X178638200Y-95886057D01*
X178791657Y-95732600D01*
X188527748Y-95732600D01*
X188623035Y-95828053D01*
X188851674Y-95922992D01*
X189099240Y-95923208D01*
X189328044Y-95828668D01*
X189503253Y-95653765D01*
X189546349Y-95549975D01*
X190365000Y-96368626D01*
X190365000Y-96763331D01*
X189250000Y-96763331D01*
X189124096Y-96787759D01*
X189013438Y-96860450D01*
X188939364Y-96970187D01*
X188913331Y-97100000D01*
X188913331Y-98100000D01*
X188937759Y-98225904D01*
X189010450Y-98336562D01*
X189120187Y-98410636D01*
X189250000Y-98436669D01*
X191200335Y-98436669D01*
X191202000Y-98437000D01*
X193416174Y-98437000D01*
X193310873Y-98542302D01*
X193214200Y-98775691D01*
X193214200Y-99016250D01*
X193372950Y-99175000D01*
X194122200Y-99175000D01*
X194122200Y-99155000D01*
X194376200Y-99155000D01*
X194376200Y-99175000D01*
X195125450Y-99175000D01*
X195284200Y-99016250D01*
X195284200Y-98775691D01*
X195187527Y-98542302D01*
X195082225Y-98437000D01*
X195684574Y-98437000D01*
X196248587Y-99001013D01*
X196302476Y-99037021D01*
X196344635Y-99079253D01*
X196400231Y-99102338D01*
X196454596Y-99138664D01*
X196518163Y-99151308D01*
X196573274Y-99174192D01*
X196633473Y-99174244D01*
X196697600Y-99187000D01*
X201574400Y-99187000D01*
X201817404Y-99138664D01*
X202023413Y-99001013D01*
X202770013Y-98254413D01*
X202907664Y-98048404D01*
X202956000Y-97805400D01*
X202956000Y-96885000D01*
X205613331Y-96885000D01*
X205613331Y-96950000D01*
X205637759Y-97075904D01*
X205710450Y-97186562D01*
X205820187Y-97260636D01*
X205950000Y-97286669D01*
X208050000Y-97286669D01*
X208175904Y-97262241D01*
X208286562Y-97189550D01*
X208360636Y-97079813D01*
X208386669Y-96950000D01*
X208386669Y-95550000D01*
X208362241Y-95424096D01*
X208289550Y-95313438D01*
X208179813Y-95239364D01*
X208050000Y-95213331D01*
X206873000Y-95213331D01*
X206873000Y-90585000D01*
X206873000Y-89377000D01*
X206873000Y-89123000D01*
X206873000Y-87915000D01*
X206523000Y-87915000D01*
X206021785Y-88065222D01*
X205616210Y-88395815D01*
X205368020Y-88856450D01*
X205357284Y-88916671D01*
X205480626Y-89123000D01*
X206873000Y-89123000D01*
X206873000Y-89377000D01*
X205480626Y-89377000D01*
X205357284Y-89583329D01*
X205368020Y-89643550D01*
X205616210Y-90104185D01*
X206021785Y-90434778D01*
X206523000Y-90585000D01*
X206873000Y-90585000D01*
X206873000Y-95213331D01*
X205950000Y-95213331D01*
X205824096Y-95237759D01*
X205713438Y-95310450D01*
X205639364Y-95420187D01*
X205613331Y-95550000D01*
X205613331Y-95615000D01*
X203057669Y-95615000D01*
X203057669Y-95473000D01*
X203033241Y-95347096D01*
X203024921Y-95334430D01*
X203080699Y-95311327D01*
X203259327Y-95132698D01*
X203356000Y-94899309D01*
X203356000Y-94658750D01*
X203356000Y-94087250D01*
X203356000Y-93846691D01*
X203275000Y-93651139D01*
X203275000Y-89528809D01*
X203275000Y-89238250D01*
X203275000Y-88666750D01*
X203275000Y-88376191D01*
X203178327Y-88142802D01*
X202999699Y-87964173D01*
X202766310Y-87867500D01*
X202513691Y-87867500D01*
X202275750Y-87867500D01*
X202117000Y-88026250D01*
X202117000Y-88825500D01*
X203116250Y-88825500D01*
X203275000Y-88666750D01*
X203275000Y-89238250D01*
X203116250Y-89079500D01*
X202117000Y-89079500D01*
X202117000Y-89878750D01*
X202275750Y-90037500D01*
X202513691Y-90037500D01*
X202766310Y-90037500D01*
X202999699Y-89940827D01*
X203178327Y-89762198D01*
X203275000Y-89528809D01*
X203275000Y-93651139D01*
X203259327Y-93613302D01*
X203080699Y-93434673D01*
X202847310Y-93338000D01*
X202606750Y-93338000D01*
X202448000Y-93496750D01*
X202448000Y-94246000D01*
X203197250Y-94246000D01*
X203356000Y-94087250D01*
X203356000Y-94658750D01*
X203197250Y-94500000D01*
X202448000Y-94500000D01*
X202448000Y-94520000D01*
X202194000Y-94520000D01*
X202194000Y-94500000D01*
X202194000Y-94246000D01*
X202194000Y-93496750D01*
X202035250Y-93338000D01*
X201863000Y-93338000D01*
X201863000Y-89878750D01*
X201863000Y-89079500D01*
X201863000Y-88825500D01*
X201863000Y-88026250D01*
X201704250Y-87867500D01*
X201466309Y-87867500D01*
X201213690Y-87867500D01*
X200980301Y-87964173D01*
X200801673Y-88142802D01*
X200705000Y-88376191D01*
X200705000Y-88666750D01*
X200863750Y-88825500D01*
X201863000Y-88825500D01*
X201863000Y-89079500D01*
X200863750Y-89079500D01*
X200705000Y-89238250D01*
X200705000Y-89528809D01*
X200801673Y-89762198D01*
X200980301Y-89940827D01*
X201213690Y-90037500D01*
X201466309Y-90037500D01*
X201704250Y-90037500D01*
X201863000Y-89878750D01*
X201863000Y-93338000D01*
X201794690Y-93338000D01*
X201561301Y-93434673D01*
X201382673Y-93613302D01*
X201286000Y-93846691D01*
X201286000Y-94087250D01*
X201444750Y-94246000D01*
X202194000Y-94246000D01*
X202194000Y-94500000D01*
X201444750Y-94500000D01*
X201286000Y-94658750D01*
X201286000Y-94899309D01*
X201382673Y-95132698D01*
X201561301Y-95311327D01*
X201616450Y-95334170D01*
X201610364Y-95343187D01*
X201584331Y-95473000D01*
X201584331Y-96273000D01*
X201608759Y-96398904D01*
X201681450Y-96509562D01*
X201686000Y-96512633D01*
X201686000Y-97542374D01*
X201311374Y-97917000D01*
X199945465Y-97917000D01*
X199945465Y-94819960D01*
X199712997Y-94257344D01*
X199282920Y-93826516D01*
X199275000Y-93823227D01*
X199275000Y-89528809D01*
X199275000Y-89238250D01*
X199275000Y-88666750D01*
X199275000Y-88376191D01*
X199178327Y-88142802D01*
X198999699Y-87964173D01*
X198766310Y-87867500D01*
X198513691Y-87867500D01*
X198275750Y-87867500D01*
X198117000Y-88026250D01*
X198117000Y-88825500D01*
X199116250Y-88825500D01*
X199275000Y-88666750D01*
X199275000Y-89238250D01*
X199116250Y-89079500D01*
X198117000Y-89079500D01*
X198117000Y-89878750D01*
X198275750Y-90037500D01*
X198513691Y-90037500D01*
X198766310Y-90037500D01*
X198999699Y-89940827D01*
X199178327Y-89762198D01*
X199275000Y-89528809D01*
X199275000Y-93823227D01*
X198720711Y-93593067D01*
X198111960Y-93592535D01*
X197549344Y-93825003D01*
X197118516Y-94255080D01*
X196885067Y-94817289D01*
X196884535Y-95426040D01*
X197117003Y-95988656D01*
X197547080Y-96419484D01*
X198109289Y-96652933D01*
X198718040Y-96653465D01*
X199280656Y-96420997D01*
X199711484Y-95990920D01*
X199944933Y-95428711D01*
X199945465Y-94819960D01*
X199945465Y-97917000D01*
X196960626Y-97917000D01*
X196396613Y-97352987D01*
X196190604Y-97215336D01*
X195947600Y-97167000D01*
X195175000Y-97167000D01*
X195175000Y-90270250D01*
X195175000Y-89413000D01*
X193809750Y-89413000D01*
X193651000Y-89571750D01*
X193651000Y-89920309D01*
X193747673Y-90153698D01*
X193926301Y-90332327D01*
X194159690Y-90429000D01*
X194412309Y-90429000D01*
X195016250Y-90429000D01*
X195175000Y-90270250D01*
X195175000Y-97167000D01*
X194889776Y-97167000D01*
X194888750Y-97165438D01*
X194779013Y-97091364D01*
X194649200Y-97065331D01*
X193849200Y-97065331D01*
X193723296Y-97089759D01*
X193612638Y-97162450D01*
X193609566Y-97167000D01*
X193086669Y-97167000D01*
X193086669Y-97100000D01*
X193062241Y-96974096D01*
X192989550Y-96863438D01*
X192879813Y-96789364D01*
X192750000Y-96763331D01*
X191635000Y-96763331D01*
X191635000Y-96105605D01*
X191635000Y-96105600D01*
X191635001Y-96105600D01*
X191586664Y-95862596D01*
X191449013Y-95656587D01*
X189333000Y-93540574D01*
X189333000Y-92239000D01*
X189333000Y-91330200D01*
X193000000Y-91330200D01*
X193126362Y-91305065D01*
X193233487Y-91233487D01*
X193305065Y-91126362D01*
X193330200Y-91000000D01*
X193330200Y-88330200D01*
X193835774Y-88330200D01*
X193747673Y-88418302D01*
X193651000Y-88651691D01*
X193651000Y-89000250D01*
X193809750Y-89159000D01*
X195175000Y-89159000D01*
X195175000Y-89139000D01*
X195429000Y-89139000D01*
X195429000Y-89159000D01*
X195449000Y-89159000D01*
X195449000Y-89413000D01*
X195429000Y-89413000D01*
X195429000Y-90270250D01*
X195587750Y-90429000D01*
X196191691Y-90429000D01*
X196444310Y-90429000D01*
X196677699Y-90332327D01*
X196856327Y-90153698D01*
X196953000Y-89920309D01*
X196953000Y-89913525D01*
X196980301Y-89940827D01*
X197213690Y-90037500D01*
X197466309Y-90037500D01*
X197704250Y-90037500D01*
X197863000Y-89878750D01*
X197863000Y-89079500D01*
X197843000Y-89079500D01*
X197843000Y-88825500D01*
X197863000Y-88825500D01*
X197863000Y-88026250D01*
X197704250Y-87867500D01*
X197466309Y-87867500D01*
X197213690Y-87867500D01*
X196980301Y-87964173D01*
X196801673Y-88142802D01*
X196736988Y-88298963D01*
X196677699Y-88239673D01*
X196444310Y-88143000D01*
X196293947Y-88143000D01*
X196305065Y-88126362D01*
X196330200Y-88000000D01*
X196330200Y-87842301D01*
X196443904Y-87820241D01*
X196554562Y-87747550D01*
X196598471Y-87682500D01*
X197066579Y-87682500D01*
X197100450Y-87734062D01*
X197210187Y-87808136D01*
X197340000Y-87834169D01*
X198640000Y-87834169D01*
X198765904Y-87809741D01*
X198876562Y-87737050D01*
X198950636Y-87627313D01*
X198976669Y-87497500D01*
X198976669Y-86597500D01*
X198952241Y-86471596D01*
X198879550Y-86360938D01*
X198769813Y-86286864D01*
X198640000Y-86260831D01*
X197340000Y-86260831D01*
X197214096Y-86285259D01*
X197103438Y-86357950D01*
X197066615Y-86412500D01*
X196639244Y-86412500D01*
X196630241Y-86366096D01*
X196557550Y-86255438D01*
X196447813Y-86181364D01*
X196330200Y-86157777D01*
X196330200Y-86000000D01*
X196305065Y-85873638D01*
X196233487Y-85766513D01*
X196126362Y-85694935D01*
X196000000Y-85669800D01*
X193330200Y-85669800D01*
X193330200Y-83127000D01*
X208873000Y-83127000D01*
X208873000Y-116873000D01*
G36*
X121873000Y-97873000D02*
X111127000Y-97873000D01*
X111127000Y-86127000D01*
X121873000Y-86127000D01*
X121873000Y-97873000D01*
X121873000Y-97873000D01*
G37*
X121873000Y-97873000D02*
X111127000Y-97873000D01*
X111127000Y-86127000D01*
X121873000Y-86127000D01*
X121873000Y-97873000D01*
M02*
