M48
INCH,TZ
T1C0.014
T2C0.032
T3C0.035
T4C0.035
T5C0.038
T6C0.039
T7C0.040
T8C0.047
T9C0.060
%
G90
G05
T1
X54560Y-48480
X54800Y-48240
X55520Y-44320
X55760Y-39200
X56240Y-42560
X56240Y-45040
X56480Y-46960
X56560Y-47760
X56960Y-42400
X57280Y-42480
X57520Y-44880
X57680Y-44160
X57920Y-42320
X58160Y-45280
X58240Y-47440
X58480Y-42400
X58800Y-43760
X58880Y-48160
X59600Y-48480
X60720Y-42720
X60720Y-44160
X60800Y-46960
X61360Y-45200
X64640Y-37040
X64720Y-38880
X65680Y-47200
X66880Y-41040
X66880Y-41600
X66880Y-42400
X67440Y-39600
X67440Y-40640
X67840Y-38400
X70160Y-41200
X70160Y-42400
X73040Y-40240
X73760Y-40000
X74000Y-39600
X74080Y-41600
X74400Y-37520
X76400Y-43200
X76800Y-42000
X76960Y-41600
X77040Y-39120
X77440Y-38800
X77440Y-42000
X77840Y-39840
X77840Y-41600
X78720Y-35040
X78937Y-47638
X79440Y-36640
X80560Y-39440
T2
X63673Y-40945
T3
X48819Y-30496
X48819Y-32496
T4
X55709Y-31496
X57677Y-31496
X81496Y-34154
X81496Y-35138
X81496Y-37894
X81496Y-38878
X81496Y-39862
X81496Y-40846
X81496Y-41831
X81496Y-42815
X81496Y-43799
X81496Y-44783
T5
X64673Y-40945
X65217Y-48425
X66217Y-48425
X67217Y-48425
X68217Y-48425
X69217Y-48425
X70217Y-48425
T6
X77067Y-45965
X77067Y-48524
X78839Y-45965
X78839Y-48524
T7
X79100Y-44250
T8
X48917Y-39921
X51870Y-41181
T9
X44863Y-35220
X44863Y-37220
X48700Y-43850
X48700Y-45850
X51950Y-43850
X51950Y-45850
X52737Y-35220
X52737Y-37220
T0
M30
