G04 #@! TF.FileFunction,Soldermask,Top*
%FSLAX46Y46*%
G04 Gerber Fmt 4.6, Leading zero omitted, Abs format (unit mm)*
G04 Created by KiCad (PCBNEW (2015-08-16 BZR 6096)-product) date Wed 23 Sep 2015 10:28:05 PDT*
%MOMM*%
G01*
G04 APERTURE LIST*
%ADD10C,0.152400*%
%ADD11R,1.300000X0.900000*%
%ADD12R,0.800000X0.800000*%
%ADD13R,2.100000X1.400000*%
%ADD14O,2.100000X1.400000*%
%ADD15R,1.524000X1.524000*%
%ADD16C,1.524000*%
%ADD17R,0.950000X0.950000*%
%ADD18R,2.700000X6.200000*%
%ADD19R,1.400000X1.100000*%
%ADD20C,1.750000*%
%ADD21R,2.032000X2.032000*%
%ADD22R,1.270000X1.270000*%
%ADD23R,2.032000X3.657600*%
%ADD24R,2.032000X1.016000*%
%ADD25R,0.400000X1.750000*%
%ADD26R,3.500000X1.000000*%
%ADD27R,5.600000X2.100000*%
%ADD28R,1.400000X2.100000*%
%ADD29O,1.400000X2.100000*%
%ADD30O,0.762000X4.000000*%
%ADD31C,1.998980*%
%ADD32O,5.000000X0.762000*%
%ADD33C,2.500000*%
%ADD34O,0.762000X5.000000*%
%ADD35C,3.048000*%
%ADD36C,3.175000*%
%ADD37C,2.400000*%
G04 APERTURE END LIST*
D10*
D11*
X201990000Y-87047500D03*
X201990000Y-88952500D03*
X197990000Y-87047500D03*
X197990000Y-88952500D03*
D12*
X151396000Y-119263000D03*
X152896000Y-119263000D03*
X148094000Y-119263000D03*
X149594000Y-119263000D03*
X161250000Y-96010000D03*
X162750000Y-96010000D03*
X161250000Y-99010000D03*
X162750000Y-99010000D03*
X144792000Y-123200000D03*
X146292000Y-123200000D03*
X146292000Y-119243000D03*
X144792000Y-119243000D03*
X156327000Y-116090000D03*
X156327000Y-117590000D03*
X154549000Y-116090000D03*
X154549000Y-117590000D03*
X202321000Y-95873000D03*
X202321000Y-94373000D03*
X194249200Y-97802000D03*
X194249200Y-99302000D03*
D13*
X207000000Y-86750000D03*
D14*
X207000000Y-89250000D03*
D15*
X164270000Y-104000000D03*
D16*
X161730000Y-104000000D03*
D14*
X207000000Y-98750000D03*
X207000000Y-101250000D03*
D13*
X207000000Y-96250000D03*
D14*
X207000000Y-103750000D03*
X207000000Y-106250000D03*
X207000000Y-108750000D03*
X207000000Y-111250000D03*
X207000000Y-113750000D03*
D15*
X178350000Y-123000000D03*
D16*
X175810000Y-123000000D03*
X173270000Y-123000000D03*
X170730000Y-123000000D03*
X168190000Y-123000000D03*
X165650000Y-123000000D03*
D17*
X148275000Y-85010000D03*
X149725000Y-85010000D03*
X152275000Y-85010000D03*
X153725000Y-85010000D03*
X156275000Y-85010000D03*
X157725000Y-85010000D03*
X122962000Y-96725000D03*
X122962000Y-95275000D03*
D18*
X119802000Y-90000000D03*
X128102000Y-90000000D03*
D17*
X160275000Y-85010000D03*
X161725000Y-85010000D03*
X124962000Y-96725000D03*
X124962000Y-95275000D03*
X164275000Y-85010000D03*
X165725000Y-85010000D03*
X168275000Y-85010000D03*
X169725000Y-85010000D03*
X172275000Y-85010000D03*
X173725000Y-85010000D03*
X161275000Y-94010000D03*
X162725000Y-94010000D03*
X161275000Y-101010000D03*
X162725000Y-101010000D03*
X144817000Y-121295000D03*
X146267000Y-121295000D03*
D19*
X171287600Y-116777800D03*
X171287600Y-118527800D03*
D17*
X196586000Y-107987000D03*
X196586000Y-109437000D03*
X161454000Y-106944000D03*
X162904000Y-106944000D03*
X171313000Y-92239000D03*
X171313000Y-93689000D03*
D20*
X195750000Y-116750000D03*
X200250000Y-116750000D03*
X195750000Y-123250000D03*
X200250000Y-123250000D03*
D21*
X200914000Y-112395000D03*
D22*
X150571200Y-106070400D03*
X148945600Y-106070400D03*
X146710400Y-106070400D03*
X152196800Y-106070400D03*
D23*
X188698000Y-87000000D03*
D24*
X195302000Y-87000000D03*
X195302000Y-84714000D03*
X195302000Y-89286000D03*
D25*
X143775000Y-116600000D03*
X144425000Y-116600000D03*
X145075000Y-116600000D03*
X145725000Y-116600000D03*
X146375000Y-116600000D03*
X147025000Y-116600000D03*
X147675000Y-116600000D03*
X148325000Y-116600000D03*
X148975000Y-116600000D03*
X149625000Y-116600000D03*
X150275000Y-116600000D03*
X150925000Y-116600000D03*
X151575000Y-116600000D03*
X152225000Y-116600000D03*
X152225000Y-109400000D03*
X151575000Y-109400000D03*
X150925000Y-109400000D03*
X150275000Y-109400000D03*
X149625000Y-109400000D03*
X148975000Y-109400000D03*
X148325000Y-109400000D03*
X147675000Y-109400000D03*
X147025000Y-109400000D03*
X146375000Y-109400000D03*
X145725000Y-109400000D03*
X145075000Y-109400000D03*
X144425000Y-109400000D03*
X143775000Y-109400000D03*
D26*
X191000000Y-111600000D03*
X191000000Y-109600000D03*
X191000000Y-107600000D03*
X191000000Y-105600000D03*
X191000000Y-103600000D03*
X191000000Y-101600000D03*
X191000000Y-99600000D03*
X191000000Y-97600000D03*
X175000000Y-97600000D03*
X175000000Y-99600000D03*
X175000000Y-101600000D03*
X175000000Y-103600000D03*
X175000000Y-105600000D03*
X175000000Y-107600000D03*
X175000000Y-109600000D03*
X175000000Y-111600000D03*
D27*
X143250000Y-102000000D03*
X152750000Y-102000000D03*
D17*
X141234000Y-115329800D03*
X141234000Y-113879800D03*
D28*
X146500000Y-80000000D03*
D29*
X141500000Y-80000000D03*
D30*
X144000000Y-80000000D03*
D31*
X124000000Y-82540000D03*
X124000000Y-77460000D03*
D32*
X124000000Y-80000000D03*
D33*
X131750000Y-104600000D03*
X124250000Y-101400000D03*
D34*
X128000000Y-103000000D03*
D35*
X131953000Y-116459000D03*
X131953000Y-111379000D03*
X123698000Y-116459000D03*
X123698000Y-111379000D03*
X113952000Y-94540000D03*
X113952000Y-89460000D03*
X133952000Y-94540000D03*
X133952000Y-89460000D03*
D36*
X206000000Y-79000000D03*
X206000000Y-121000000D03*
X114000000Y-121000000D03*
X114000000Y-79000000D03*
X160000000Y-79000000D03*
X160000000Y-121000000D03*
D37*
X198399400Y-77978000D03*
X152984200Y-77978000D03*
X198399400Y-95123000D03*
X152984200Y-95123000D03*
M02*
