G04 #@! TF.FileFunction,Copper,L2,Bot,Signal*
%FSLAX46Y46*%
G04 Gerber Fmt 4.6, Leading zero omitted, Abs format (unit mm)*
G04 Created by KiCad (PCBNEW (2015-08-16 BZR 6096)-product) date Wed 23 Sep 2015 10:28:05 PDT*
%MOMM*%
G01*
G04 APERTURE LIST*
%ADD10C,0.152400*%
%ADD11R,2.100000X1.400000*%
%ADD12O,2.100000X1.400000*%
%ADD13R,1.524000X1.524000*%
%ADD14C,1.524000*%
%ADD15C,1.750000*%
%ADD16R,2.032000X2.032000*%
%ADD17R,1.400000X2.100000*%
%ADD18O,1.400000X2.100000*%
%ADD19C,1.998980*%
%ADD20C,2.500000*%
%ADD21C,3.048000*%
%ADD22C,0.584200*%
%ADD23C,0.203200*%
%ADD24C,0.609600*%
%ADD25C,1.016000*%
%ADD26C,0.254000*%
G04 APERTURE END LIST*
D10*
D11*
X207000000Y-86750000D03*
D12*
X207000000Y-89250000D03*
D13*
X164270000Y-104000000D03*
D14*
X161730000Y-104000000D03*
D12*
X207000000Y-98750000D03*
X207000000Y-101250000D03*
D11*
X207000000Y-96250000D03*
D12*
X207000000Y-103750000D03*
X207000000Y-106250000D03*
X207000000Y-108750000D03*
X207000000Y-111250000D03*
X207000000Y-113750000D03*
D13*
X178350000Y-123000000D03*
D14*
X175810000Y-123000000D03*
X173270000Y-123000000D03*
X170730000Y-123000000D03*
X168190000Y-123000000D03*
X165650000Y-123000000D03*
D15*
X195750000Y-116750000D03*
X200250000Y-116750000D03*
X195750000Y-123250000D03*
X200250000Y-123250000D03*
D16*
X200914000Y-112395000D03*
D17*
X146500000Y-80000000D03*
D18*
X141500000Y-80000000D03*
D19*
X124000000Y-82540000D03*
X124000000Y-77460000D03*
D20*
X131750000Y-104600000D03*
X124250000Y-101400000D03*
D21*
X131953000Y-116459000D03*
X131953000Y-111379000D03*
X123698000Y-116459000D03*
X123698000Y-111379000D03*
X113952000Y-94540000D03*
X113952000Y-89460000D03*
X133952000Y-94540000D03*
X133952000Y-89460000D03*
D22*
X144272000Y-115011200D03*
X146710400Y-111353600D03*
X147929600Y-120497600D03*
X147726400Y-115011200D03*
X154432000Y-119278400D03*
X195681600Y-99364800D03*
X194056000Y-109728000D03*
X201777600Y-93065600D03*
X172313600Y-97536000D03*
X199948800Y-89001600D03*
X164185600Y-94081600D03*
X164388800Y-98755200D03*
X141630400Y-99568000D03*
X200500000Y-121000000D03*
X161544000Y-115214400D03*
X170891200Y-115214400D03*
X141224000Y-109931200D03*
X141224000Y-117246400D03*
X196697600Y-98552000D03*
X196697600Y-106680000D03*
X155854400Y-114808000D03*
X143662400Y-121310400D03*
X138582400Y-123139200D03*
X151384000Y-123139200D03*
X139192000Y-122529600D03*
X149555200Y-122326400D03*
X169875200Y-104241600D03*
X146100800Y-113995200D03*
X171297600Y-103225600D03*
X171297600Y-100584000D03*
X187960000Y-100584000D03*
X204622400Y-100177600D03*
X145491200Y-107899200D03*
X185521600Y-102209600D03*
X144678400Y-107696000D03*
X187350400Y-101600000D03*
X166827200Y-119888000D03*
X148539200Y-107696000D03*
X147116800Y-107492800D03*
X195072000Y-106680000D03*
D23*
X172313600Y-97536000D02*
X172516800Y-97536000D01*
D24*
X192500000Y-123000000D02*
X194500000Y-121000000D01*
X194500000Y-121000000D02*
X200500000Y-121000000D01*
X178350000Y-123000000D02*
X192500000Y-123000000D01*
X161340800Y-115214400D02*
X161544000Y-115214400D01*
X170891200Y-115214400D02*
X161340800Y-115214400D01*
D23*
X141224000Y-109931200D02*
X141224000Y-117246400D01*
D24*
X196697600Y-98552000D02*
X196697600Y-106680000D01*
X155854400Y-114808000D02*
X155854400Y-120700800D01*
X155244800Y-121310400D02*
X155854400Y-120700800D01*
X143662400Y-121310400D02*
X155244800Y-121310400D01*
D23*
X138582400Y-123139200D02*
X151384000Y-123139200D01*
X139605091Y-122529600D02*
X139801600Y-122726109D01*
X139192000Y-122529600D02*
X139605091Y-122529600D01*
X139998109Y-122726109D02*
X140004790Y-122732790D01*
X139801600Y-122726109D02*
X139998109Y-122726109D01*
X140004790Y-122732790D02*
X149148810Y-122732790D01*
X149148810Y-122732790D02*
X149555200Y-122326400D01*
D25*
X131750000Y-104600000D02*
X131750000Y-99750000D01*
X146500000Y-81500000D02*
X146500000Y-80000000D01*
X144000000Y-84000000D02*
X146500000Y-81500000D01*
X130000000Y-84000000D02*
X144000000Y-84000000D01*
X128000000Y-86000000D02*
X130000000Y-84000000D01*
X128000000Y-96000000D02*
X128000000Y-86000000D01*
X131750000Y-99750000D02*
X128000000Y-96000000D01*
D23*
X169875200Y-104241600D02*
X169633600Y-104000000D01*
X169633600Y-104000000D02*
X164270000Y-104000000D01*
X146100800Y-113995200D02*
X170891200Y-113995200D01*
X170891200Y-113995200D02*
X171297600Y-113588800D01*
X171297600Y-113588800D02*
X171297600Y-111760000D01*
X171297600Y-111760000D02*
X171297600Y-103225600D01*
X171297600Y-100584000D02*
X187960000Y-100584000D01*
X205208400Y-106250000D02*
X207000000Y-106250000D01*
X204622400Y-105664000D02*
X205208400Y-106250000D01*
X204622400Y-100177600D02*
X204622400Y-105664000D01*
X145491200Y-107899200D02*
X151180800Y-102209600D01*
X151180800Y-102209600D02*
X185521600Y-102209600D01*
X144678400Y-107696000D02*
X150774400Y-101600000D01*
X150774400Y-101600000D02*
X187350400Y-101600000D01*
X166827200Y-119888000D02*
X169672000Y-119888000D01*
X169672000Y-119888000D02*
X170730000Y-120946000D01*
X170730000Y-120946000D02*
X170730000Y-123000000D01*
X147320000Y-107696000D02*
X147116800Y-107492800D01*
X148539200Y-107696000D02*
X147320000Y-107696000D01*
X195072000Y-106680000D02*
X198323200Y-109931200D01*
X198323200Y-109931200D02*
X205681200Y-109931200D01*
X205681200Y-109931200D02*
X207000000Y-111250000D01*
D26*
G36*
X208873000Y-116873000D02*
X202000000Y-116873000D01*
X201950590Y-116883006D01*
X201908965Y-116911447D01*
X201881685Y-116953841D01*
X201873000Y-117000000D01*
X201873000Y-123873000D01*
X201630118Y-123873000D01*
X201771590Y-123484694D01*
X201745579Y-122884542D01*
X201565953Y-122450884D01*
X201312060Y-122367545D01*
X200429605Y-123250000D01*
X200443748Y-123264143D01*
X200264143Y-123443748D01*
X200250000Y-123429605D01*
X200235858Y-123443748D01*
X200056253Y-123264143D01*
X200070395Y-123250000D01*
X199187940Y-122367545D01*
X199127000Y-122387548D01*
X199127000Y-122187940D01*
X199367545Y-122187940D01*
X200250000Y-123070395D01*
X201132455Y-122187940D01*
X201049116Y-121934047D01*
X200484694Y-121728410D01*
X199884542Y-121754421D01*
X199450884Y-121934047D01*
X199367545Y-122187940D01*
X199127000Y-122187940D01*
X199127000Y-117812060D01*
X199367545Y-117812060D01*
X199450884Y-118065953D01*
X200015306Y-118271590D01*
X200615458Y-118245579D01*
X201049116Y-118065953D01*
X201132455Y-117812060D01*
X200250000Y-116929605D01*
X199367545Y-117812060D01*
X199127000Y-117812060D01*
X199127000Y-117612452D01*
X199187940Y-117632455D01*
X200070395Y-116750000D01*
X200429605Y-116750000D01*
X201312060Y-117632455D01*
X201565953Y-117549116D01*
X201771590Y-116984694D01*
X201745579Y-116384542D01*
X201565953Y-115950884D01*
X201312060Y-115867545D01*
X200429605Y-116750000D01*
X200070395Y-116750000D01*
X199187940Y-115867545D01*
X199127000Y-115887548D01*
X199127000Y-115687940D01*
X199367545Y-115687940D01*
X200250000Y-116570395D01*
X201132455Y-115687940D01*
X201049116Y-115434047D01*
X200484694Y-115228410D01*
X199884542Y-115254421D01*
X199450884Y-115434047D01*
X199367545Y-115687940D01*
X199127000Y-115687940D01*
X199127000Y-114083329D01*
X205357284Y-114083329D01*
X205368020Y-114143550D01*
X205616210Y-114604185D01*
X206021785Y-114934778D01*
X206523000Y-115085000D01*
X206873000Y-115085000D01*
X206873000Y-113877000D01*
X207127000Y-113877000D01*
X207127000Y-115085000D01*
X207477000Y-115085000D01*
X207978215Y-114934778D01*
X208383790Y-114604185D01*
X208631980Y-114143550D01*
X208642716Y-114083329D01*
X208519374Y-113877000D01*
X207127000Y-113877000D01*
X206873000Y-113877000D01*
X205480626Y-113877000D01*
X205357284Y-114083329D01*
X199127000Y-114083329D01*
X199127000Y-112680750D01*
X199263000Y-112680750D01*
X199263000Y-113537310D01*
X199359673Y-113770699D01*
X199538302Y-113949327D01*
X199771691Y-114046000D01*
X200628250Y-114046000D01*
X200787000Y-113887250D01*
X200787000Y-112522000D01*
X201041000Y-112522000D01*
X201041000Y-113887250D01*
X201199750Y-114046000D01*
X202056309Y-114046000D01*
X202289698Y-113949327D01*
X202468327Y-113770699D01*
X202565000Y-113537310D01*
X202565000Y-112680750D01*
X202406250Y-112522000D01*
X201041000Y-112522000D01*
X200787000Y-112522000D01*
X199421750Y-112522000D01*
X199263000Y-112680750D01*
X199127000Y-112680750D01*
X199127000Y-112000000D01*
X199116994Y-111950590D01*
X199088553Y-111908965D01*
X199046159Y-111881685D01*
X199000000Y-111873000D01*
X171932600Y-111873000D01*
X171932600Y-111252690D01*
X199263000Y-111252690D01*
X199263000Y-112109250D01*
X199421750Y-112268000D01*
X200787000Y-112268000D01*
X200787000Y-110902750D01*
X201041000Y-110902750D01*
X201041000Y-112268000D01*
X202406250Y-112268000D01*
X202565000Y-112109250D01*
X202565000Y-111252690D01*
X202468327Y-111019301D01*
X202289698Y-110840673D01*
X202056309Y-110744000D01*
X201199750Y-110744000D01*
X201041000Y-110902750D01*
X200787000Y-110902750D01*
X200628250Y-110744000D01*
X199771691Y-110744000D01*
X199538302Y-110840673D01*
X199359673Y-111019301D01*
X199263000Y-111252690D01*
X171932600Y-111252690D01*
X171932600Y-106843482D01*
X194246357Y-106843482D01*
X194371767Y-107146998D01*
X194603781Y-107379417D01*
X194907077Y-107505357D01*
X194999411Y-107505437D01*
X197874187Y-110380213D01*
X198080196Y-110517864D01*
X198323200Y-110566200D01*
X205418174Y-110566200D01*
X205539750Y-110687776D01*
X205479466Y-110777998D01*
X205385579Y-111250000D01*
X205479466Y-111722002D01*
X205746833Y-112122146D01*
X206146977Y-112389513D01*
X206424111Y-112444638D01*
X206021785Y-112565222D01*
X205616210Y-112895815D01*
X205368020Y-113356450D01*
X205357284Y-113416671D01*
X205480626Y-113623000D01*
X206873000Y-113623000D01*
X206873000Y-113603000D01*
X207127000Y-113603000D01*
X207127000Y-113623000D01*
X208519374Y-113623000D01*
X208642716Y-113416671D01*
X208631980Y-113356450D01*
X208383790Y-112895815D01*
X207978215Y-112565222D01*
X207575889Y-112444638D01*
X207853023Y-112389513D01*
X208253167Y-112122146D01*
X208520534Y-111722002D01*
X208614421Y-111250000D01*
X208520534Y-110777998D01*
X208253167Y-110377854D01*
X207853023Y-110110487D01*
X207381021Y-110016600D01*
X206664626Y-110016600D01*
X206631426Y-109983400D01*
X207381021Y-109983400D01*
X207853023Y-109889513D01*
X208253167Y-109622146D01*
X208520534Y-109222002D01*
X208614421Y-108750000D01*
X208520534Y-108277998D01*
X208253167Y-107877854D01*
X207853023Y-107610487D01*
X207381021Y-107516600D01*
X206618979Y-107516600D01*
X206146977Y-107610487D01*
X205746833Y-107877854D01*
X205479466Y-108277998D01*
X205385579Y-108750000D01*
X205479466Y-109222002D01*
X205529043Y-109296200D01*
X198586226Y-109296200D01*
X196795612Y-107505586D01*
X196861082Y-107505643D01*
X196954239Y-107467151D01*
X197018365Y-107454396D01*
X197072253Y-107418389D01*
X197164598Y-107380233D01*
X197235934Y-107309021D01*
X197290297Y-107272697D01*
X197326304Y-107218809D01*
X197397017Y-107148219D01*
X197435672Y-107055128D01*
X197471996Y-107000765D01*
X197484640Y-106937201D01*
X197522957Y-106844923D01*
X197523045Y-106744125D01*
X197535800Y-106680000D01*
X197535800Y-100341082D01*
X203796757Y-100341082D01*
X203922167Y-100644598D01*
X203987400Y-100709945D01*
X203987400Y-105664000D01*
X204035736Y-105907004D01*
X204173387Y-106113013D01*
X204759387Y-106699013D01*
X204965396Y-106836664D01*
X205208400Y-106885000D01*
X205588378Y-106885000D01*
X205746833Y-107122146D01*
X206146977Y-107389513D01*
X206618979Y-107483400D01*
X207381021Y-107483400D01*
X207853023Y-107389513D01*
X208253167Y-107122146D01*
X208520534Y-106722002D01*
X208614421Y-106250000D01*
X208520534Y-105777998D01*
X208253167Y-105377854D01*
X207853023Y-105110487D01*
X207381021Y-105016600D01*
X206618979Y-105016600D01*
X206146977Y-105110487D01*
X205746833Y-105377854D01*
X205588378Y-105615000D01*
X205471426Y-105615000D01*
X205257400Y-105400974D01*
X205257400Y-103750000D01*
X205385579Y-103750000D01*
X205479466Y-104222002D01*
X205746833Y-104622146D01*
X206146977Y-104889513D01*
X206618979Y-104983400D01*
X207381021Y-104983400D01*
X207853023Y-104889513D01*
X208253167Y-104622146D01*
X208520534Y-104222002D01*
X208614421Y-103750000D01*
X208520534Y-103277998D01*
X208253167Y-102877854D01*
X207853023Y-102610487D01*
X207381021Y-102516600D01*
X206618979Y-102516600D01*
X206146977Y-102610487D01*
X205746833Y-102877854D01*
X205479466Y-103277998D01*
X205385579Y-103750000D01*
X205257400Y-103750000D01*
X205257400Y-101250000D01*
X205385579Y-101250000D01*
X205479466Y-101722002D01*
X205746833Y-102122146D01*
X206146977Y-102389513D01*
X206618979Y-102483400D01*
X207381021Y-102483400D01*
X207853023Y-102389513D01*
X208253167Y-102122146D01*
X208520534Y-101722002D01*
X208614421Y-101250000D01*
X208520534Y-100777998D01*
X208253167Y-100377854D01*
X207853023Y-100110487D01*
X207381021Y-100016600D01*
X206618979Y-100016600D01*
X206146977Y-100110487D01*
X205746833Y-100377854D01*
X205479466Y-100777998D01*
X205385579Y-101250000D01*
X205257400Y-101250000D01*
X205257400Y-100710124D01*
X205321817Y-100645819D01*
X205447757Y-100342523D01*
X205448043Y-100014118D01*
X205322633Y-99710602D01*
X205090619Y-99478183D01*
X204787323Y-99352243D01*
X204458918Y-99351957D01*
X204155402Y-99477367D01*
X203922983Y-99709381D01*
X203797043Y-100012677D01*
X203796757Y-100341082D01*
X197535800Y-100341082D01*
X197535800Y-98750000D01*
X205385579Y-98750000D01*
X205479466Y-99222002D01*
X205746833Y-99622146D01*
X206146977Y-99889513D01*
X206618979Y-99983400D01*
X207381021Y-99983400D01*
X207853023Y-99889513D01*
X208253167Y-99622146D01*
X208520534Y-99222002D01*
X208614421Y-98750000D01*
X208520534Y-98277998D01*
X208253167Y-97877854D01*
X207853023Y-97610487D01*
X207381021Y-97516600D01*
X206618979Y-97516600D01*
X206146977Y-97610487D01*
X205746833Y-97877854D01*
X205479466Y-98277998D01*
X205385579Y-98750000D01*
X197535800Y-98750000D01*
X197535800Y-98552000D01*
X197523156Y-98488434D01*
X197523243Y-98388518D01*
X197484751Y-98295361D01*
X197471996Y-98231235D01*
X197435989Y-98177347D01*
X197397833Y-98085002D01*
X197326621Y-98013666D01*
X197290297Y-97959303D01*
X197236409Y-97923296D01*
X197165819Y-97852583D01*
X197072728Y-97813928D01*
X197018365Y-97777604D01*
X196954801Y-97764960D01*
X196862523Y-97726643D01*
X196761725Y-97726555D01*
X196697600Y-97713800D01*
X196634034Y-97726444D01*
X196534118Y-97726357D01*
X196440961Y-97764849D01*
X196376835Y-97777604D01*
X196322947Y-97813611D01*
X196230602Y-97851767D01*
X196159266Y-97922979D01*
X196104903Y-97959303D01*
X196068896Y-98013191D01*
X195998183Y-98083781D01*
X195959528Y-98176872D01*
X195923204Y-98231235D01*
X195910560Y-98294799D01*
X195872243Y-98387077D01*
X195872155Y-98487875D01*
X195859400Y-98552000D01*
X195859400Y-106423963D01*
X195772233Y-106213002D01*
X195540219Y-105980583D01*
X195236923Y-105854643D01*
X194908518Y-105854357D01*
X194605002Y-105979767D01*
X194372583Y-106211781D01*
X194246643Y-106515077D01*
X194246357Y-106843482D01*
X171932600Y-106843482D01*
X171932600Y-103758124D01*
X171997017Y-103693819D01*
X172122957Y-103390523D01*
X172123243Y-103062118D01*
X172033367Y-102844600D01*
X184989076Y-102844600D01*
X185053381Y-102909017D01*
X185356677Y-103034957D01*
X185685082Y-103035243D01*
X185988598Y-102909833D01*
X186221017Y-102677819D01*
X186346957Y-102374523D01*
X186347079Y-102235000D01*
X186817876Y-102235000D01*
X186882181Y-102299417D01*
X187185477Y-102425357D01*
X187513882Y-102425643D01*
X187817398Y-102300233D01*
X188049817Y-102068219D01*
X188175757Y-101764923D01*
X188176043Y-101436518D01*
X188158893Y-101395012D01*
X188426998Y-101284233D01*
X188659417Y-101052219D01*
X188785357Y-100748923D01*
X188785643Y-100420518D01*
X188660233Y-100117002D01*
X188428219Y-99884583D01*
X188124923Y-99758643D01*
X187796518Y-99758357D01*
X187493002Y-99883767D01*
X187427655Y-99949000D01*
X171830124Y-99949000D01*
X171765819Y-99884583D01*
X171462523Y-99758643D01*
X171134118Y-99758357D01*
X170830602Y-99883767D01*
X170598183Y-100115781D01*
X170472243Y-100419077D01*
X170471957Y-100747482D01*
X170561833Y-100965000D01*
X150774400Y-100965000D01*
X150531396Y-101013336D01*
X150325387Y-101150987D01*
X144605938Y-106870436D01*
X144514918Y-106870357D01*
X144211402Y-106995767D01*
X143978983Y-107227781D01*
X143853043Y-107531077D01*
X143852757Y-107859482D01*
X143978167Y-108162998D01*
X144210181Y-108395417D01*
X144513477Y-108521357D01*
X144841882Y-108521643D01*
X144915695Y-108491144D01*
X145022981Y-108598617D01*
X145326277Y-108724557D01*
X145654682Y-108724843D01*
X145958198Y-108599433D01*
X146190617Y-108367419D01*
X146316557Y-108064123D01*
X146316637Y-107971789D01*
X146390855Y-107897571D01*
X146416567Y-107959798D01*
X146648581Y-108192217D01*
X146951877Y-108318157D01*
X147256768Y-108318423D01*
X147320000Y-108331000D01*
X148006676Y-108331000D01*
X148070981Y-108395417D01*
X148374277Y-108521357D01*
X148702682Y-108521643D01*
X149006198Y-108396233D01*
X149238617Y-108164219D01*
X149364557Y-107860923D01*
X149364843Y-107532518D01*
X149239433Y-107229002D01*
X149007419Y-106996583D01*
X148704123Y-106870643D01*
X148375718Y-106870357D01*
X148072202Y-106995767D01*
X148006855Y-107061000D01*
X147831576Y-107061000D01*
X147817033Y-107025802D01*
X147585019Y-106793383D01*
X147521442Y-106766984D01*
X149308212Y-104980213D01*
X160929392Y-104980213D01*
X160998857Y-105222397D01*
X161522302Y-105409144D01*
X162077368Y-105381362D01*
X162461143Y-105222397D01*
X162530608Y-104980213D01*
X161730000Y-104179605D01*
X160929392Y-104980213D01*
X149308212Y-104980213D01*
X150496123Y-103792302D01*
X160320856Y-103792302D01*
X160348638Y-104347368D01*
X160507603Y-104731143D01*
X160749787Y-104800608D01*
X161550395Y-104000000D01*
X160749787Y-103199392D01*
X160507603Y-103268857D01*
X160320856Y-103792302D01*
X150496123Y-103792302D01*
X151443825Y-102844600D01*
X160979640Y-102844600D01*
X160929392Y-103019787D01*
X161730000Y-103820395D01*
X162530608Y-103019787D01*
X162480360Y-102844600D01*
X163134330Y-102844600D01*
X163128790Y-102848165D01*
X163006999Y-103026412D01*
X162964151Y-103238000D01*
X162964151Y-103297234D01*
X162952397Y-103268857D01*
X162710213Y-103199392D01*
X161909605Y-104000000D01*
X162710213Y-104800608D01*
X162952397Y-104731143D01*
X162964151Y-104698197D01*
X162964151Y-104762000D01*
X163001344Y-104959666D01*
X163118165Y-105141210D01*
X163296412Y-105263001D01*
X163508000Y-105305849D01*
X165032000Y-105305849D01*
X165229666Y-105268656D01*
X165411210Y-105151835D01*
X165533001Y-104973588D01*
X165575849Y-104762000D01*
X165575849Y-104635000D01*
X169144557Y-104635000D01*
X169174967Y-104708598D01*
X169406981Y-104941017D01*
X169710277Y-105066957D01*
X170038682Y-105067243D01*
X170342198Y-104941833D01*
X170574617Y-104709819D01*
X170662600Y-104497933D01*
X170662600Y-111873000D01*
X157000000Y-111873000D01*
X156950590Y-111883006D01*
X156908965Y-111911447D01*
X156881685Y-111953841D01*
X156873000Y-112000000D01*
X156873000Y-113360200D01*
X146633324Y-113360200D01*
X146569019Y-113295783D01*
X146265723Y-113169843D01*
X145937318Y-113169557D01*
X145633802Y-113294967D01*
X145401383Y-113526981D01*
X145275443Y-113830277D01*
X145275157Y-114158682D01*
X145400567Y-114462198D01*
X145632581Y-114694617D01*
X145935877Y-114820557D01*
X146264282Y-114820843D01*
X146567798Y-114695433D01*
X146633145Y-114630200D01*
X155034390Y-114630200D01*
X155029043Y-114643077D01*
X155028955Y-114743875D01*
X155016200Y-114808000D01*
X155016200Y-120353606D01*
X154897606Y-120472200D01*
X143662400Y-120472200D01*
X143598834Y-120484844D01*
X143498918Y-120484757D01*
X143405761Y-120523249D01*
X143341635Y-120536004D01*
X143287747Y-120572011D01*
X143195402Y-120610167D01*
X143124066Y-120681379D01*
X143069703Y-120717703D01*
X143033696Y-120771591D01*
X142962983Y-120842181D01*
X142924328Y-120935272D01*
X142888004Y-120989635D01*
X142875360Y-121053199D01*
X142837043Y-121145477D01*
X142836955Y-121246275D01*
X142824200Y-121310400D01*
X142836844Y-121373966D01*
X142836757Y-121473882D01*
X142875249Y-121567039D01*
X142888004Y-121631165D01*
X142924011Y-121685053D01*
X142962167Y-121777398D01*
X143033379Y-121848734D01*
X143069703Y-121903097D01*
X143123591Y-121939104D01*
X143194181Y-122009817D01*
X143287272Y-122048472D01*
X143341635Y-122084796D01*
X143405199Y-122097440D01*
X143406043Y-122097790D01*
X140127000Y-122097790D01*
X140127000Y-110094682D01*
X140398357Y-110094682D01*
X140523767Y-110398198D01*
X140589000Y-110463545D01*
X140589000Y-116713876D01*
X140524583Y-116778181D01*
X140398643Y-117081477D01*
X140398357Y-117409882D01*
X140523767Y-117713398D01*
X140755781Y-117945817D01*
X141059077Y-118071757D01*
X141387482Y-118072043D01*
X141690998Y-117946633D01*
X141923417Y-117714619D01*
X142049357Y-117411323D01*
X142049643Y-117082918D01*
X141924233Y-116779402D01*
X141859000Y-116714055D01*
X141859000Y-110463724D01*
X141923417Y-110399419D01*
X142049357Y-110096123D01*
X142049643Y-109767718D01*
X141924233Y-109464202D01*
X141692219Y-109231783D01*
X141388923Y-109105843D01*
X141060518Y-109105557D01*
X140757002Y-109230967D01*
X140524583Y-109462981D01*
X140398643Y-109766277D01*
X140398357Y-110094682D01*
X140127000Y-110094682D01*
X140127000Y-99127000D01*
X159000000Y-99127000D01*
X159049410Y-99116994D01*
X159091035Y-99088553D01*
X159118315Y-99046159D01*
X159127000Y-99000000D01*
X159127000Y-95466282D01*
X196665700Y-95466282D01*
X196929038Y-96103609D01*
X197416226Y-96591648D01*
X198053093Y-96856098D01*
X198742682Y-96856700D01*
X199380009Y-96593362D01*
X199868048Y-96106174D01*
X200098991Y-95550000D01*
X205406151Y-95550000D01*
X205406151Y-96950000D01*
X205443344Y-97147666D01*
X205560165Y-97329210D01*
X205738412Y-97451001D01*
X205950000Y-97493849D01*
X208050000Y-97493849D01*
X208247666Y-97456656D01*
X208429210Y-97339835D01*
X208551001Y-97161588D01*
X208593849Y-96950000D01*
X208593849Y-95550000D01*
X208556656Y-95352334D01*
X208439835Y-95170790D01*
X208261588Y-95048999D01*
X208050000Y-95006151D01*
X205950000Y-95006151D01*
X205752334Y-95043344D01*
X205570790Y-95160165D01*
X205448999Y-95338412D01*
X205406151Y-95550000D01*
X200098991Y-95550000D01*
X200132498Y-95469307D01*
X200133100Y-94779718D01*
X199869762Y-94142391D01*
X199382574Y-93654352D01*
X198745707Y-93389902D01*
X198056118Y-93389300D01*
X197418791Y-93652638D01*
X196930752Y-94139826D01*
X196666302Y-94776693D01*
X196665700Y-95466282D01*
X159127000Y-95466282D01*
X159127000Y-90127000D01*
X180000000Y-90127000D01*
X180049410Y-90116994D01*
X180091035Y-90088553D01*
X180118315Y-90046159D01*
X180127000Y-90000000D01*
X180127000Y-89583329D01*
X205357284Y-89583329D01*
X205368020Y-89643550D01*
X205616210Y-90104185D01*
X206021785Y-90434778D01*
X206523000Y-90585000D01*
X206873000Y-90585000D01*
X206873000Y-89377000D01*
X207127000Y-89377000D01*
X207127000Y-90585000D01*
X207477000Y-90585000D01*
X207978215Y-90434778D01*
X208383790Y-90104185D01*
X208631980Y-89643550D01*
X208642716Y-89583329D01*
X208519374Y-89377000D01*
X207127000Y-89377000D01*
X206873000Y-89377000D01*
X205480626Y-89377000D01*
X205357284Y-89583329D01*
X180127000Y-89583329D01*
X180127000Y-88916671D01*
X205357284Y-88916671D01*
X205480626Y-89123000D01*
X206873000Y-89123000D01*
X206873000Y-89103000D01*
X207127000Y-89103000D01*
X207127000Y-89123000D01*
X208519374Y-89123000D01*
X208642716Y-88916671D01*
X208631980Y-88856450D01*
X208383790Y-88395815D01*
X207978215Y-88065222D01*
X207740079Y-87993849D01*
X208050000Y-87993849D01*
X208247666Y-87956656D01*
X208429210Y-87839835D01*
X208551001Y-87661588D01*
X208593849Y-87450000D01*
X208593849Y-86050000D01*
X208556656Y-85852334D01*
X208439835Y-85670790D01*
X208261588Y-85548999D01*
X208050000Y-85506151D01*
X205950000Y-85506151D01*
X205752334Y-85543344D01*
X205570790Y-85660165D01*
X205448999Y-85838412D01*
X205406151Y-86050000D01*
X205406151Y-87450000D01*
X205443344Y-87647666D01*
X205560165Y-87829210D01*
X205738412Y-87951001D01*
X205950000Y-87993849D01*
X206259921Y-87993849D01*
X206021785Y-88065222D01*
X205616210Y-88395815D01*
X205368020Y-88856450D01*
X205357284Y-88916671D01*
X180127000Y-88916671D01*
X180127000Y-83127000D01*
X208873000Y-83127000D01*
X208873000Y-116873000D01*
X208873000Y-116873000D01*
G37*
X208873000Y-116873000D02*
X202000000Y-116873000D01*
X201950590Y-116883006D01*
X201908965Y-116911447D01*
X201881685Y-116953841D01*
X201873000Y-117000000D01*
X201873000Y-123873000D01*
X201630118Y-123873000D01*
X201771590Y-123484694D01*
X201745579Y-122884542D01*
X201565953Y-122450884D01*
X201312060Y-122367545D01*
X200429605Y-123250000D01*
X200443748Y-123264143D01*
X200264143Y-123443748D01*
X200250000Y-123429605D01*
X200235858Y-123443748D01*
X200056253Y-123264143D01*
X200070395Y-123250000D01*
X199187940Y-122367545D01*
X199127000Y-122387548D01*
X199127000Y-122187940D01*
X199367545Y-122187940D01*
X200250000Y-123070395D01*
X201132455Y-122187940D01*
X201049116Y-121934047D01*
X200484694Y-121728410D01*
X199884542Y-121754421D01*
X199450884Y-121934047D01*
X199367545Y-122187940D01*
X199127000Y-122187940D01*
X199127000Y-117812060D01*
X199367545Y-117812060D01*
X199450884Y-118065953D01*
X200015306Y-118271590D01*
X200615458Y-118245579D01*
X201049116Y-118065953D01*
X201132455Y-117812060D01*
X200250000Y-116929605D01*
X199367545Y-117812060D01*
X199127000Y-117812060D01*
X199127000Y-117612452D01*
X199187940Y-117632455D01*
X200070395Y-116750000D01*
X200429605Y-116750000D01*
X201312060Y-117632455D01*
X201565953Y-117549116D01*
X201771590Y-116984694D01*
X201745579Y-116384542D01*
X201565953Y-115950884D01*
X201312060Y-115867545D01*
X200429605Y-116750000D01*
X200070395Y-116750000D01*
X199187940Y-115867545D01*
X199127000Y-115887548D01*
X199127000Y-115687940D01*
X199367545Y-115687940D01*
X200250000Y-116570395D01*
X201132455Y-115687940D01*
X201049116Y-115434047D01*
X200484694Y-115228410D01*
X199884542Y-115254421D01*
X199450884Y-115434047D01*
X199367545Y-115687940D01*
X199127000Y-115687940D01*
X199127000Y-114083329D01*
X205357284Y-114083329D01*
X205368020Y-114143550D01*
X205616210Y-114604185D01*
X206021785Y-114934778D01*
X206523000Y-115085000D01*
X206873000Y-115085000D01*
X206873000Y-113877000D01*
X207127000Y-113877000D01*
X207127000Y-115085000D01*
X207477000Y-115085000D01*
X207978215Y-114934778D01*
X208383790Y-114604185D01*
X208631980Y-114143550D01*
X208642716Y-114083329D01*
X208519374Y-113877000D01*
X207127000Y-113877000D01*
X206873000Y-113877000D01*
X205480626Y-113877000D01*
X205357284Y-114083329D01*
X199127000Y-114083329D01*
X199127000Y-112680750D01*
X199263000Y-112680750D01*
X199263000Y-113537310D01*
X199359673Y-113770699D01*
X199538302Y-113949327D01*
X199771691Y-114046000D01*
X200628250Y-114046000D01*
X200787000Y-113887250D01*
X200787000Y-112522000D01*
X201041000Y-112522000D01*
X201041000Y-113887250D01*
X201199750Y-114046000D01*
X202056309Y-114046000D01*
X202289698Y-113949327D01*
X202468327Y-113770699D01*
X202565000Y-113537310D01*
X202565000Y-112680750D01*
X202406250Y-112522000D01*
X201041000Y-112522000D01*
X200787000Y-112522000D01*
X199421750Y-112522000D01*
X199263000Y-112680750D01*
X199127000Y-112680750D01*
X199127000Y-112000000D01*
X199116994Y-111950590D01*
X199088553Y-111908965D01*
X199046159Y-111881685D01*
X199000000Y-111873000D01*
X171932600Y-111873000D01*
X171932600Y-111252690D01*
X199263000Y-111252690D01*
X199263000Y-112109250D01*
X199421750Y-112268000D01*
X200787000Y-112268000D01*
X200787000Y-110902750D01*
X201041000Y-110902750D01*
X201041000Y-112268000D01*
X202406250Y-112268000D01*
X202565000Y-112109250D01*
X202565000Y-111252690D01*
X202468327Y-111019301D01*
X202289698Y-110840673D01*
X202056309Y-110744000D01*
X201199750Y-110744000D01*
X201041000Y-110902750D01*
X200787000Y-110902750D01*
X200628250Y-110744000D01*
X199771691Y-110744000D01*
X199538302Y-110840673D01*
X199359673Y-111019301D01*
X199263000Y-111252690D01*
X171932600Y-111252690D01*
X171932600Y-106843482D01*
X194246357Y-106843482D01*
X194371767Y-107146998D01*
X194603781Y-107379417D01*
X194907077Y-107505357D01*
X194999411Y-107505437D01*
X197874187Y-110380213D01*
X198080196Y-110517864D01*
X198323200Y-110566200D01*
X205418174Y-110566200D01*
X205539750Y-110687776D01*
X205479466Y-110777998D01*
X205385579Y-111250000D01*
X205479466Y-111722002D01*
X205746833Y-112122146D01*
X206146977Y-112389513D01*
X206424111Y-112444638D01*
X206021785Y-112565222D01*
X205616210Y-112895815D01*
X205368020Y-113356450D01*
X205357284Y-113416671D01*
X205480626Y-113623000D01*
X206873000Y-113623000D01*
X206873000Y-113603000D01*
X207127000Y-113603000D01*
X207127000Y-113623000D01*
X208519374Y-113623000D01*
X208642716Y-113416671D01*
X208631980Y-113356450D01*
X208383790Y-112895815D01*
X207978215Y-112565222D01*
X207575889Y-112444638D01*
X207853023Y-112389513D01*
X208253167Y-112122146D01*
X208520534Y-111722002D01*
X208614421Y-111250000D01*
X208520534Y-110777998D01*
X208253167Y-110377854D01*
X207853023Y-110110487D01*
X207381021Y-110016600D01*
X206664626Y-110016600D01*
X206631426Y-109983400D01*
X207381021Y-109983400D01*
X207853023Y-109889513D01*
X208253167Y-109622146D01*
X208520534Y-109222002D01*
X208614421Y-108750000D01*
X208520534Y-108277998D01*
X208253167Y-107877854D01*
X207853023Y-107610487D01*
X207381021Y-107516600D01*
X206618979Y-107516600D01*
X206146977Y-107610487D01*
X205746833Y-107877854D01*
X205479466Y-108277998D01*
X205385579Y-108750000D01*
X205479466Y-109222002D01*
X205529043Y-109296200D01*
X198586226Y-109296200D01*
X196795612Y-107505586D01*
X196861082Y-107505643D01*
X196954239Y-107467151D01*
X197018365Y-107454396D01*
X197072253Y-107418389D01*
X197164598Y-107380233D01*
X197235934Y-107309021D01*
X197290297Y-107272697D01*
X197326304Y-107218809D01*
X197397017Y-107148219D01*
X197435672Y-107055128D01*
X197471996Y-107000765D01*
X197484640Y-106937201D01*
X197522957Y-106844923D01*
X197523045Y-106744125D01*
X197535800Y-106680000D01*
X197535800Y-100341082D01*
X203796757Y-100341082D01*
X203922167Y-100644598D01*
X203987400Y-100709945D01*
X203987400Y-105664000D01*
X204035736Y-105907004D01*
X204173387Y-106113013D01*
X204759387Y-106699013D01*
X204965396Y-106836664D01*
X205208400Y-106885000D01*
X205588378Y-106885000D01*
X205746833Y-107122146D01*
X206146977Y-107389513D01*
X206618979Y-107483400D01*
X207381021Y-107483400D01*
X207853023Y-107389513D01*
X208253167Y-107122146D01*
X208520534Y-106722002D01*
X208614421Y-106250000D01*
X208520534Y-105777998D01*
X208253167Y-105377854D01*
X207853023Y-105110487D01*
X207381021Y-105016600D01*
X206618979Y-105016600D01*
X206146977Y-105110487D01*
X205746833Y-105377854D01*
X205588378Y-105615000D01*
X205471426Y-105615000D01*
X205257400Y-105400974D01*
X205257400Y-103750000D01*
X205385579Y-103750000D01*
X205479466Y-104222002D01*
X205746833Y-104622146D01*
X206146977Y-104889513D01*
X206618979Y-104983400D01*
X207381021Y-104983400D01*
X207853023Y-104889513D01*
X208253167Y-104622146D01*
X208520534Y-104222002D01*
X208614421Y-103750000D01*
X208520534Y-103277998D01*
X208253167Y-102877854D01*
X207853023Y-102610487D01*
X207381021Y-102516600D01*
X206618979Y-102516600D01*
X206146977Y-102610487D01*
X205746833Y-102877854D01*
X205479466Y-103277998D01*
X205385579Y-103750000D01*
X205257400Y-103750000D01*
X205257400Y-101250000D01*
X205385579Y-101250000D01*
X205479466Y-101722002D01*
X205746833Y-102122146D01*
X206146977Y-102389513D01*
X206618979Y-102483400D01*
X207381021Y-102483400D01*
X207853023Y-102389513D01*
X208253167Y-102122146D01*
X208520534Y-101722002D01*
X208614421Y-101250000D01*
X208520534Y-100777998D01*
X208253167Y-100377854D01*
X207853023Y-100110487D01*
X207381021Y-100016600D01*
X206618979Y-100016600D01*
X206146977Y-100110487D01*
X205746833Y-100377854D01*
X205479466Y-100777998D01*
X205385579Y-101250000D01*
X205257400Y-101250000D01*
X205257400Y-100710124D01*
X205321817Y-100645819D01*
X205447757Y-100342523D01*
X205448043Y-100014118D01*
X205322633Y-99710602D01*
X205090619Y-99478183D01*
X204787323Y-99352243D01*
X204458918Y-99351957D01*
X204155402Y-99477367D01*
X203922983Y-99709381D01*
X203797043Y-100012677D01*
X203796757Y-100341082D01*
X197535800Y-100341082D01*
X197535800Y-98750000D01*
X205385579Y-98750000D01*
X205479466Y-99222002D01*
X205746833Y-99622146D01*
X206146977Y-99889513D01*
X206618979Y-99983400D01*
X207381021Y-99983400D01*
X207853023Y-99889513D01*
X208253167Y-99622146D01*
X208520534Y-99222002D01*
X208614421Y-98750000D01*
X208520534Y-98277998D01*
X208253167Y-97877854D01*
X207853023Y-97610487D01*
X207381021Y-97516600D01*
X206618979Y-97516600D01*
X206146977Y-97610487D01*
X205746833Y-97877854D01*
X205479466Y-98277998D01*
X205385579Y-98750000D01*
X197535800Y-98750000D01*
X197535800Y-98552000D01*
X197523156Y-98488434D01*
X197523243Y-98388518D01*
X197484751Y-98295361D01*
X197471996Y-98231235D01*
X197435989Y-98177347D01*
X197397833Y-98085002D01*
X197326621Y-98013666D01*
X197290297Y-97959303D01*
X197236409Y-97923296D01*
X197165819Y-97852583D01*
X197072728Y-97813928D01*
X197018365Y-97777604D01*
X196954801Y-97764960D01*
X196862523Y-97726643D01*
X196761725Y-97726555D01*
X196697600Y-97713800D01*
X196634034Y-97726444D01*
X196534118Y-97726357D01*
X196440961Y-97764849D01*
X196376835Y-97777604D01*
X196322947Y-97813611D01*
X196230602Y-97851767D01*
X196159266Y-97922979D01*
X196104903Y-97959303D01*
X196068896Y-98013191D01*
X195998183Y-98083781D01*
X195959528Y-98176872D01*
X195923204Y-98231235D01*
X195910560Y-98294799D01*
X195872243Y-98387077D01*
X195872155Y-98487875D01*
X195859400Y-98552000D01*
X195859400Y-106423963D01*
X195772233Y-106213002D01*
X195540219Y-105980583D01*
X195236923Y-105854643D01*
X194908518Y-105854357D01*
X194605002Y-105979767D01*
X194372583Y-106211781D01*
X194246643Y-106515077D01*
X194246357Y-106843482D01*
X171932600Y-106843482D01*
X171932600Y-103758124D01*
X171997017Y-103693819D01*
X172122957Y-103390523D01*
X172123243Y-103062118D01*
X172033367Y-102844600D01*
X184989076Y-102844600D01*
X185053381Y-102909017D01*
X185356677Y-103034957D01*
X185685082Y-103035243D01*
X185988598Y-102909833D01*
X186221017Y-102677819D01*
X186346957Y-102374523D01*
X186347079Y-102235000D01*
X186817876Y-102235000D01*
X186882181Y-102299417D01*
X187185477Y-102425357D01*
X187513882Y-102425643D01*
X187817398Y-102300233D01*
X188049817Y-102068219D01*
X188175757Y-101764923D01*
X188176043Y-101436518D01*
X188158893Y-101395012D01*
X188426998Y-101284233D01*
X188659417Y-101052219D01*
X188785357Y-100748923D01*
X188785643Y-100420518D01*
X188660233Y-100117002D01*
X188428219Y-99884583D01*
X188124923Y-99758643D01*
X187796518Y-99758357D01*
X187493002Y-99883767D01*
X187427655Y-99949000D01*
X171830124Y-99949000D01*
X171765819Y-99884583D01*
X171462523Y-99758643D01*
X171134118Y-99758357D01*
X170830602Y-99883767D01*
X170598183Y-100115781D01*
X170472243Y-100419077D01*
X170471957Y-100747482D01*
X170561833Y-100965000D01*
X150774400Y-100965000D01*
X150531396Y-101013336D01*
X150325387Y-101150987D01*
X144605938Y-106870436D01*
X144514918Y-106870357D01*
X144211402Y-106995767D01*
X143978983Y-107227781D01*
X143853043Y-107531077D01*
X143852757Y-107859482D01*
X143978167Y-108162998D01*
X144210181Y-108395417D01*
X144513477Y-108521357D01*
X144841882Y-108521643D01*
X144915695Y-108491144D01*
X145022981Y-108598617D01*
X145326277Y-108724557D01*
X145654682Y-108724843D01*
X145958198Y-108599433D01*
X146190617Y-108367419D01*
X146316557Y-108064123D01*
X146316637Y-107971789D01*
X146390855Y-107897571D01*
X146416567Y-107959798D01*
X146648581Y-108192217D01*
X146951877Y-108318157D01*
X147256768Y-108318423D01*
X147320000Y-108331000D01*
X148006676Y-108331000D01*
X148070981Y-108395417D01*
X148374277Y-108521357D01*
X148702682Y-108521643D01*
X149006198Y-108396233D01*
X149238617Y-108164219D01*
X149364557Y-107860923D01*
X149364843Y-107532518D01*
X149239433Y-107229002D01*
X149007419Y-106996583D01*
X148704123Y-106870643D01*
X148375718Y-106870357D01*
X148072202Y-106995767D01*
X148006855Y-107061000D01*
X147831576Y-107061000D01*
X147817033Y-107025802D01*
X147585019Y-106793383D01*
X147521442Y-106766984D01*
X149308212Y-104980213D01*
X160929392Y-104980213D01*
X160998857Y-105222397D01*
X161522302Y-105409144D01*
X162077368Y-105381362D01*
X162461143Y-105222397D01*
X162530608Y-104980213D01*
X161730000Y-104179605D01*
X160929392Y-104980213D01*
X149308212Y-104980213D01*
X150496123Y-103792302D01*
X160320856Y-103792302D01*
X160348638Y-104347368D01*
X160507603Y-104731143D01*
X160749787Y-104800608D01*
X161550395Y-104000000D01*
X160749787Y-103199392D01*
X160507603Y-103268857D01*
X160320856Y-103792302D01*
X150496123Y-103792302D01*
X151443825Y-102844600D01*
X160979640Y-102844600D01*
X160929392Y-103019787D01*
X161730000Y-103820395D01*
X162530608Y-103019787D01*
X162480360Y-102844600D01*
X163134330Y-102844600D01*
X163128790Y-102848165D01*
X163006999Y-103026412D01*
X162964151Y-103238000D01*
X162964151Y-103297234D01*
X162952397Y-103268857D01*
X162710213Y-103199392D01*
X161909605Y-104000000D01*
X162710213Y-104800608D01*
X162952397Y-104731143D01*
X162964151Y-104698197D01*
X162964151Y-104762000D01*
X163001344Y-104959666D01*
X163118165Y-105141210D01*
X163296412Y-105263001D01*
X163508000Y-105305849D01*
X165032000Y-105305849D01*
X165229666Y-105268656D01*
X165411210Y-105151835D01*
X165533001Y-104973588D01*
X165575849Y-104762000D01*
X165575849Y-104635000D01*
X169144557Y-104635000D01*
X169174967Y-104708598D01*
X169406981Y-104941017D01*
X169710277Y-105066957D01*
X170038682Y-105067243D01*
X170342198Y-104941833D01*
X170574617Y-104709819D01*
X170662600Y-104497933D01*
X170662600Y-111873000D01*
X157000000Y-111873000D01*
X156950590Y-111883006D01*
X156908965Y-111911447D01*
X156881685Y-111953841D01*
X156873000Y-112000000D01*
X156873000Y-113360200D01*
X146633324Y-113360200D01*
X146569019Y-113295783D01*
X146265723Y-113169843D01*
X145937318Y-113169557D01*
X145633802Y-113294967D01*
X145401383Y-113526981D01*
X145275443Y-113830277D01*
X145275157Y-114158682D01*
X145400567Y-114462198D01*
X145632581Y-114694617D01*
X145935877Y-114820557D01*
X146264282Y-114820843D01*
X146567798Y-114695433D01*
X146633145Y-114630200D01*
X155034390Y-114630200D01*
X155029043Y-114643077D01*
X155028955Y-114743875D01*
X155016200Y-114808000D01*
X155016200Y-120353606D01*
X154897606Y-120472200D01*
X143662400Y-120472200D01*
X143598834Y-120484844D01*
X143498918Y-120484757D01*
X143405761Y-120523249D01*
X143341635Y-120536004D01*
X143287747Y-120572011D01*
X143195402Y-120610167D01*
X143124066Y-120681379D01*
X143069703Y-120717703D01*
X143033696Y-120771591D01*
X142962983Y-120842181D01*
X142924328Y-120935272D01*
X142888004Y-120989635D01*
X142875360Y-121053199D01*
X142837043Y-121145477D01*
X142836955Y-121246275D01*
X142824200Y-121310400D01*
X142836844Y-121373966D01*
X142836757Y-121473882D01*
X142875249Y-121567039D01*
X142888004Y-121631165D01*
X142924011Y-121685053D01*
X142962167Y-121777398D01*
X143033379Y-121848734D01*
X143069703Y-121903097D01*
X143123591Y-121939104D01*
X143194181Y-122009817D01*
X143287272Y-122048472D01*
X143341635Y-122084796D01*
X143405199Y-122097440D01*
X143406043Y-122097790D01*
X140127000Y-122097790D01*
X140127000Y-110094682D01*
X140398357Y-110094682D01*
X140523767Y-110398198D01*
X140589000Y-110463545D01*
X140589000Y-116713876D01*
X140524583Y-116778181D01*
X140398643Y-117081477D01*
X140398357Y-117409882D01*
X140523767Y-117713398D01*
X140755781Y-117945817D01*
X141059077Y-118071757D01*
X141387482Y-118072043D01*
X141690998Y-117946633D01*
X141923417Y-117714619D01*
X142049357Y-117411323D01*
X142049643Y-117082918D01*
X141924233Y-116779402D01*
X141859000Y-116714055D01*
X141859000Y-110463724D01*
X141923417Y-110399419D01*
X142049357Y-110096123D01*
X142049643Y-109767718D01*
X141924233Y-109464202D01*
X141692219Y-109231783D01*
X141388923Y-109105843D01*
X141060518Y-109105557D01*
X140757002Y-109230967D01*
X140524583Y-109462981D01*
X140398643Y-109766277D01*
X140398357Y-110094682D01*
X140127000Y-110094682D01*
X140127000Y-99127000D01*
X159000000Y-99127000D01*
X159049410Y-99116994D01*
X159091035Y-99088553D01*
X159118315Y-99046159D01*
X159127000Y-99000000D01*
X159127000Y-95466282D01*
X196665700Y-95466282D01*
X196929038Y-96103609D01*
X197416226Y-96591648D01*
X198053093Y-96856098D01*
X198742682Y-96856700D01*
X199380009Y-96593362D01*
X199868048Y-96106174D01*
X200098991Y-95550000D01*
X205406151Y-95550000D01*
X205406151Y-96950000D01*
X205443344Y-97147666D01*
X205560165Y-97329210D01*
X205738412Y-97451001D01*
X205950000Y-97493849D01*
X208050000Y-97493849D01*
X208247666Y-97456656D01*
X208429210Y-97339835D01*
X208551001Y-97161588D01*
X208593849Y-96950000D01*
X208593849Y-95550000D01*
X208556656Y-95352334D01*
X208439835Y-95170790D01*
X208261588Y-95048999D01*
X208050000Y-95006151D01*
X205950000Y-95006151D01*
X205752334Y-95043344D01*
X205570790Y-95160165D01*
X205448999Y-95338412D01*
X205406151Y-95550000D01*
X200098991Y-95550000D01*
X200132498Y-95469307D01*
X200133100Y-94779718D01*
X199869762Y-94142391D01*
X199382574Y-93654352D01*
X198745707Y-93389902D01*
X198056118Y-93389300D01*
X197418791Y-93652638D01*
X196930752Y-94139826D01*
X196666302Y-94776693D01*
X196665700Y-95466282D01*
X159127000Y-95466282D01*
X159127000Y-90127000D01*
X180000000Y-90127000D01*
X180049410Y-90116994D01*
X180091035Y-90088553D01*
X180118315Y-90046159D01*
X180127000Y-90000000D01*
X180127000Y-89583329D01*
X205357284Y-89583329D01*
X205368020Y-89643550D01*
X205616210Y-90104185D01*
X206021785Y-90434778D01*
X206523000Y-90585000D01*
X206873000Y-90585000D01*
X206873000Y-89377000D01*
X207127000Y-89377000D01*
X207127000Y-90585000D01*
X207477000Y-90585000D01*
X207978215Y-90434778D01*
X208383790Y-90104185D01*
X208631980Y-89643550D01*
X208642716Y-89583329D01*
X208519374Y-89377000D01*
X207127000Y-89377000D01*
X206873000Y-89377000D01*
X205480626Y-89377000D01*
X205357284Y-89583329D01*
X180127000Y-89583329D01*
X180127000Y-88916671D01*
X205357284Y-88916671D01*
X205480626Y-89123000D01*
X206873000Y-89123000D01*
X206873000Y-89103000D01*
X207127000Y-89103000D01*
X207127000Y-89123000D01*
X208519374Y-89123000D01*
X208642716Y-88916671D01*
X208631980Y-88856450D01*
X208383790Y-88395815D01*
X207978215Y-88065222D01*
X207740079Y-87993849D01*
X208050000Y-87993849D01*
X208247666Y-87956656D01*
X208429210Y-87839835D01*
X208551001Y-87661588D01*
X208593849Y-87450000D01*
X208593849Y-86050000D01*
X208556656Y-85852334D01*
X208439835Y-85670790D01*
X208261588Y-85548999D01*
X208050000Y-85506151D01*
X205950000Y-85506151D01*
X205752334Y-85543344D01*
X205570790Y-85660165D01*
X205448999Y-85838412D01*
X205406151Y-86050000D01*
X205406151Y-87450000D01*
X205443344Y-87647666D01*
X205560165Y-87829210D01*
X205738412Y-87951001D01*
X205950000Y-87993849D01*
X206259921Y-87993849D01*
X206021785Y-88065222D01*
X205616210Y-88395815D01*
X205368020Y-88856450D01*
X205357284Y-88916671D01*
X180127000Y-88916671D01*
X180127000Y-83127000D01*
X208873000Y-83127000D01*
X208873000Y-116873000D01*
M02*
