G04 #@! TF.FileFunction,Soldermask,Bot*
%FSLAX46Y46*%
G04 Gerber Fmt 4.6, Leading zero omitted, Abs format (unit mm)*
G04 Created by KiCad (PCBNEW (2015-08-16 BZR 6096)-product) date Wed 23 Sep 2015 10:28:05 PDT*
%MOMM*%
G01*
G04 APERTURE LIST*
%ADD10C,0.152400*%
%ADD11R,2.100000X1.400000*%
%ADD12O,2.100000X1.400000*%
%ADD13R,1.524000X1.524000*%
%ADD14C,1.524000*%
%ADD15C,1.750000*%
%ADD16R,2.032000X2.032000*%
%ADD17R,1.400000X2.100000*%
%ADD18O,1.400000X2.100000*%
%ADD19O,0.762000X4.000000*%
%ADD20C,1.998980*%
%ADD21O,5.000000X0.762000*%
%ADD22C,2.500000*%
%ADD23O,0.762000X5.000000*%
%ADD24C,3.048000*%
%ADD25C,3.175000*%
%ADD26C,2.400000*%
G04 APERTURE END LIST*
D10*
D11*
X207000000Y-86750000D03*
D12*
X207000000Y-89250000D03*
D13*
X164270000Y-104000000D03*
D14*
X161730000Y-104000000D03*
D12*
X207000000Y-98750000D03*
X207000000Y-101250000D03*
D11*
X207000000Y-96250000D03*
D12*
X207000000Y-103750000D03*
X207000000Y-106250000D03*
X207000000Y-108750000D03*
X207000000Y-111250000D03*
X207000000Y-113750000D03*
D13*
X178350000Y-123000000D03*
D14*
X175810000Y-123000000D03*
X173270000Y-123000000D03*
X170730000Y-123000000D03*
X168190000Y-123000000D03*
X165650000Y-123000000D03*
D15*
X195750000Y-116750000D03*
X200250000Y-116750000D03*
X195750000Y-123250000D03*
X200250000Y-123250000D03*
D16*
X200914000Y-112395000D03*
D17*
X146500000Y-80000000D03*
D18*
X141500000Y-80000000D03*
D19*
X144000000Y-80000000D03*
D20*
X124000000Y-82540000D03*
X124000000Y-77460000D03*
D21*
X124000000Y-80000000D03*
D22*
X131750000Y-104600000D03*
X124250000Y-101400000D03*
D23*
X128000000Y-103000000D03*
D24*
X131953000Y-116459000D03*
X131953000Y-111379000D03*
X123698000Y-116459000D03*
X123698000Y-111379000D03*
X113952000Y-94540000D03*
X113952000Y-89460000D03*
X133952000Y-94540000D03*
X133952000Y-89460000D03*
D25*
X206000000Y-79000000D03*
X206000000Y-121000000D03*
X114000000Y-121000000D03*
X114000000Y-79000000D03*
X160000000Y-79000000D03*
X160000000Y-121000000D03*
D26*
X198399400Y-77978000D03*
X152984200Y-77978000D03*
X198399400Y-95123000D03*
X152984200Y-95123000D03*
M02*
